<?xml version="1.0" encoding="UTF-8"?>
<svg width="233px" height="171px" viewBox="0 0 233 171" version="1.1" xmlns="http://www.w3.org/2000/svg" xmlns:xlink="http://www.w3.org/1999/xlink">
    <!-- Generator: Sketch 51.2 (57519) - http://www.bohemiancoding.com/sketch -->
    <title>Untitled</title>
    <desc>Created with Sketch.</desc>
    <defs></defs>
    <g id="Page-1" stroke="none" stroke-width="1" fill="none" fill-rule="evenodd">
        <g id="SLT-Website-Graphics" transform="translate(-3342.066406, -2366.589844)" fill="#FFCE05" fill-rule="nonzero">
            <g id="Group" transform="translate(3283.562500, 2183.000000)">
                <g transform="translate(60.000000, 184.000000)" id="Shape">
                    <path d="M196.1,17.6 C193.4,17.6 190.8,18.5 190.6,21.5 C190.4,24.3 188.9,27.9 192.9,28.7 C195,29.1 197.6,29 199.8,28.7 C201.3,28.5 203.1,28 203.5,26.3 C204,24.4 202.3,21.8 201.2,20.4 C200,18.8 198.3,17.4 196.1,17.6 C194.2,17.7 194.2,20.7 196.1,20.6 C197.6,20.5 198.6,21.8 199.3,23 C199.7,23.6 200,24.3 200.3,25 C200.6,25.7 200.7,25.5 200.2,25.7 C199.2,26.2 197.5,25.9 196.5,25.9 C195.8,25.9 193.5,26.2 193,25.7 C192.6,25.2 193.4,22.2 193.5,21.6 C193.6,21.1 193.3,21.5 193.6,21.2 C193.8,21 194.5,20.9 194.8,20.8 C195.2,20.7 195.6,20.7 196,20.7 C198.1,20.5 198.1,17.5 196.1,17.6 Z"></path>
                    <path d="M222.5,33.3 C221.1,32.8 219.5,32.3 217.9,32.3 C215.9,32.4 215.5,33.5 214.8,35.1 C214.1,36.6 213.3,38 213.4,39.7 C213.6,42.4 216.1,44 218.4,45.1 C220.1,45.9 221.7,43.4 219.9,42.5 C218.6,41.9 216.3,40.9 216.4,39.1 C216.4,38.1 217.1,37.2 217.5,36.4 C217.7,36 217.8,35.4 218,35.1 C217.7,35.6 217.6,35.1 218.1,35.3 C218.4,35.4 218.7,35.3 219,35.4 C219.9,35.5 220.8,35.8 221.7,36.2 C223.5,36.9 224.3,34 222.5,33.3 Z"></path>
                    <path d="M150.2,65.5 C146.8,77.2 136.1,81.1 125.5,84.3 C118.2,86.5 110.8,88.6 103.8,92 C98,94.8 92.3,97.9 86.3,100.5 C73.4,106 61.4,111.5 50.4,120.3 C43.9,125.5 37.1,130.4 30.7,135.8 C27.2,138.8 24.4,142.2 21.2,145.6 C14.9,152.4 8.1,158.7 1.4,165 C5.5067062e-14,166.3 2.1,168.4 3.5,167.1 C9.5,161.5 15.5,155.8 21.3,149.9 C24.4,146.7 27,143.2 30.3,140.2 C36.1,134.9 42.5,130.2 48.7,125.4 C55.1,120.4 61.3,115.5 68.6,111.8 C75.1,108.5 81.8,105.8 88.5,102.9 C94.8,100.2 100.6,96.7 106.8,93.9 C114.5,90.4 122.7,88.4 130.8,85.8 C140.9,82.6 149.9,77.1 153,66.3 C153.6,64.5 150.7,63.7 150.2,65.5 Z"></path>
                    <path d="M156,111.1 C139.7,118.8 119.7,120.7 101.9,118.2 C102.3,118.7 102.6,119.2 103,119.6 C103,119.6 103,119.6 103,119.6 C103,118.8 102.3,118.1 101.5,118.1 C92.6,118.1 83.8,118 74.9,117.7 C71.3,117.5 67.4,117 64.9,119.9 C60.5,125.1 54.4,127.8 48.9,131.9 C41.2,137.6 34.1,144.3 27.1,150.8 C23.5,154.2 20.1,157.7 16.4,160.9 C14.4,162.7 12.4,164.5 10,165.7 C6.9,167.2 1.4,166 3.2,161.7 C4.3,158.8 8.1,156.3 10.3,154.3 C14.5,150.5 18.6,146.7 22.3,142.5 C28.7,135.4 35.4,128.8 42.4,122.3 C48.8,116.4 56.7,110.6 59.9,102.3 C60.9,99.7 61.4,97 62.3,94.4 C64,89.3 67.3,85 70.9,81.1 C77.2,74.3 84.5,69.3 92.4,64.5 C100.4,59.6 108,54.2 115.1,47.9 C120.5,43.1 125.6,38.1 131.4,33.8 C148.1,21.5 162.8,5.2 184.7,3.6 C194,2.9 204.3,4.4 212.1,10 C220.4,16 222.2,24.1 220.8,33.5 C220.3,36.7 222.8,38.9 224.8,41.4 C225.2,41.9 225.6,42.7 226.1,43.1 C227.4,44.2 228,43.4 226.2,43.2 C224.9,43 223.5,42.8 222.2,42.6 C218.4,42.2 215.7,42.9 213.8,46.4 C211.2,51.1 209.5,56 206.4,60.5 C199.5,70.4 191.7,79.3 185.3,89.6 C181.6,95.5 177.5,100.1 171.3,103.5 C166.5,106.3 161.1,108.3 156,111.1 C154.3,112.1 155.8,114.7 157.5,113.7 C167,108.5 177.5,105.5 184.3,96.6 C187.7,92.2 190.1,87.2 193.2,82.7 C196.8,77.4 201,72.6 205,67.5 C208.1,63.6 211,59.5 213.3,55.1 C214.4,53 215.1,50.5 216.2,48.4 C218.2,44.9 221.3,45.4 224.5,45.8 C226,46 228.4,46.8 229.5,45.3 C232,42.1 225.3,38 224.3,35.4 C223.3,32.9 223.9,36 223.6,34.5 C223.5,34.1 223.9,33.7 224,33.3 C224,32.2 224.5,31 224.6,29.8 C225,25.7 224.3,21.6 222.6,17.8 C218.9,9.6 211,4.4 202.6,2.1 C182.8,-3.4 164,3.9 148.6,16.2 C140,23 131,29.5 122.8,36.7 C116.2,42.4 110.2,48.5 103.1,53.7 C88.1,64.9 68,72.7 60.3,91.2 C59.1,94.1 58.5,97.1 57.5,100.1 C55.7,105.4 52,109.1 48.1,112.8 C40.3,120.2 32.2,127.2 24.9,135.1 C20.9,139.4 17.1,143.9 12.7,148 C9.2,151.2 5.3,154.2 2.3,157.8 C-0.8,161.5 -1.1,167 4.2,169.2 C8.2,170.9 12.6,168 15.6,165.6 C20.3,161.9 24.4,157.5 28.7,153.4 C38,144.5 47.8,135.5 58.8,128.8 C61.6,127.1 64.4,125.5 66.4,122.9 C67.8,121.1 67.9,120.7 70.3,120.5 C75.9,120.1 81.7,121.1 87.3,121.2 C92,121.3 96.8,121 101.5,121 C101,120.5 100.5,120 100,119.5 C100,119.5 100,119.5 100,119.5 C100,120.1 100.5,120.9 101.1,120.9 C119.7,123.6 140.4,121.6 157.5,113.5 C159.3,112.8 157.8,110.2 156,111.1 Z"></path>
                </g>
            </g>
        </g>
    </g>
</svg>