<?xml version="1.0" encoding="UTF-8"?>
<svg width="218px" height="240px" viewBox="0 0 218 240" version="1.1" xmlns="http://www.w3.org/2000/svg" xmlns:xlink="http://www.w3.org/1999/xlink">
    <!-- Generator: Sketch 51.2 (57519) - http://www.bohemiancoding.com/sketch -->
    <title>Untitled</title>
    <desc>Created with Sketch.</desc>
    <defs></defs>
    <g id="Page-1" stroke="none" stroke-width="1" fill="none" fill-rule="evenodd">
        <g id="SLT-Website-Graphics" transform="translate(-4088.865234, -729.882812)" fill-rule="nonzero">
            <g id="Group" transform="translate(4089.000000, 730.000000)">
                <path d="M121.7,105 C143.2,114.6 164.2,124.6 178.3,145 C182.5,151.2 188.6,157.3 195.2,160.3 C211.9,168 216.1,181.8 216.5,197.9 C216.8,207.4 216.2,216.9 215,226.3 C213.7,236 208.5,241.4 198.1,236.6 C168.7,222.9 137.8,218.4 105.6,220.3 C96.9,220.8 87.4,219.6 81.7,212.6 C69.7,198.1 53.4,193.5 36.3,188.6 C14.7,182.4 2.2,159 7.1,137.3 C7.5,135.6 8.6,134 9.3,132.4 C10.9,129.7 13.5,128.6 16.1,129.8 C29.9,136.4 45,133.2 59.3,135.5 C71.3,138.3 82.9,142.4 94,147.8 C104.1,150.6 112.2,156.9 120.6,162.8 C113.1,157.2 105.6,151.6 96.6,148.5 C87,143.2 74.7,142.6 67.7,132.6 C74.7,122 88.4,121.5 96.9,113.1 C99.7,110.3 103.2,108.2 106.7,106.2 C111.4,103.5 116.3,102 121.7,105 Z" id="Shape" fill="#128241"></path>
                <path d="M60,138.4 C42.8,138.9 25.5,140.4 9.3,132.4 C6.3,123.5 1.4,115.4 0.3,105.7 C-2,85.8 10.5,72.8 21.2,59.1 C53.2,17.8 100,7.7 147.8,0.8 C165.3,-1.7 177.9,13.8 174.9,31.5 C170.7,55.4 153.5,70.4 138.2,86.9 C132.7,92.9 123.2,95.4 121.7,105.1 C116,104.5 111.1,106.5 106.8,110.1 C95.3,119.6 82.9,127.4 69,133 C67.2,136.7 63.9,138.1 60,138.4 Z" id="Shape" fill="#6FC979"></path>
                <path d="M60,138.4 C62,134.9 64.9,132.9 69,132.8 C78.8,137.4 88.5,142 98.3,146.6 C98.9,149.2 98.2,150.5 95.3,149.7 C83.5,146 71.8,142.2 60,138.4 Z" id="Shape" fill="#D4CFC7"></path>
                <path d="M95.3,149.8 C96.3,148.8 97.3,147.8 98.3,146.7 C109.7,151.2 119.9,157.4 129.4,168.7 C114.8,165.1 107,153.8 95.3,149.8 Z" id="Shape" fill="#E5E98E"></path>
                <path d="M69.9,70.7 C55,82.5 40.1,94.3 25.2,106.1 C35.4,88.2 52.4,79.1 69.9,70.7 Z" id="Shape" fill="#D4EDBE"></path>
            </g>
        </g>
    </g>
</svg>