<?xml version="1.0" encoding="UTF-8"?>
<svg width="266px" height="321px" viewBox="0 0 266 321" version="1.1" xmlns="http://www.w3.org/2000/svg" xmlns:xlink="http://www.w3.org/1999/xlink">
    <!-- Generator: Sketch 51.2 (57519) - http://www.bohemiancoding.com/sketch -->
    <title>Untitled</title>
    <desc>Created with Sketch.</desc>
    <defs></defs>
    <g id="Page-1" stroke="none" stroke-width="1" fill="none" fill-rule="evenodd">
        <g id="SLT-Website-Graphics" transform="translate(-5271.865234, -1847.898438)" fill="#7F6C52" fill-rule="nonzero">
            <g id="Group" transform="translate(5272.000000, 1848.000000)">
                <path d="M129.3,119.3 C138,100.6 151.4,85 166.2,70.9 C173.3,64.1 180.7,57.6 188,51 C191.5,47.8 194.9,44.6 198.3,41.4 C202.3,37.6 207.2,32.9 213.1,32.6 C219.6,32.3 225.3,38.3 225.1,44.7 C224.9,49.7 221.8,54.5 218.7,58.2 C212.9,65.1 207.2,72 201.9,79.3 C189.9,96 179.3,113.8 165.2,128.8 C158,136.5 148.9,145.9 137.9,147.3 C130.8,148.2 125.1,142.7 122.3,136.6 C119,129.5 123,123.9 128.8,119.9 C130.4,118.8 128.9,116.2 127.3,117.3 C119.4,122.7 115.4,130.4 120.3,139.4 C125.7,149.1 134.6,152.7 144.8,148.3 C155.6,143.7 163.9,134.9 171.5,126.1 C179.2,117.2 186,107.5 192.6,97.7 C200,86.9 207.3,75.9 215.8,65.8 C221.4,59.1 229.5,51.4 227.8,41.7 C226.2,32.1 215.4,27.1 206.9,31.1 C202.4,33.2 198.7,36.8 195.1,40.1 C190.5,44.5 185.8,48.8 181,53 C159.9,72 138.8,91.5 126.6,117.7 C125.9,119.5 128.4,121.1 129.3,119.3 Z" id="Shape"></path>
                <path d="M164.8,160.2 C174.6,143.4 187.6,129.1 201.3,115.5 C207.9,108.9 214.5,102.5 221.1,95.9 C224.5,92.5 227.9,88.6 232.3,86.4 C239.1,83.1 248.1,87.3 248,95.4 C247.9,103.2 242.1,111.9 238.5,118.6 C234.5,126.1 230,133.4 225,140.3 C214.7,154.6 202.2,167.4 188,177.8 C184,180.8 179.8,183.5 175.6,186.1 C169.6,189.8 164.2,191.8 158.9,185.6 C151.4,176.8 159.3,167.6 164.8,160.2 C166,158.7 163.4,157.2 162.2,158.7 C157.6,164.8 151.1,172.3 153,180.5 C154.8,188.5 162.9,195.2 171.1,192.1 C175.8,190.3 180.3,186.8 184.4,184 C188.8,181 193.1,177.8 197.2,174.4 C205.5,167.6 213.1,160 219.9,151.7 C226.5,143.7 232.5,135.1 237.7,126.2 C240.5,121.4 243,116.6 245.4,111.6 C247.4,107.3 249.9,102.9 250.7,98.2 C252.1,90.5 247,82.8 238.8,82 C228.5,81 220.6,92.1 214.2,98.5 C195.4,117.2 175.8,135.5 162.3,158.7 C161.2,160.4 163.8,161.9 164.8,160.2 Z" id="Shape"></path>
                <path d="M199.7,253.6 C212,255.1 219.9,247.9 227.6,239.4 C231.8,234.7 236,230.8 241.6,227.8 C245.2,225.9 249.2,223.4 253.4,223.4 C259.7,223.4 263,230.2 261.6,235.7 C259.4,244.6 249.2,250.4 242.6,255.9 C235,262.1 227.3,268.2 219.8,274.4 C215.7,277.8 210.7,281 208.6,286.1 C206.3,291.7 208.8,297.2 209.2,302.9 C209.4,306.1 209,309.5 206.9,312.1 C205.6,313.7 203.2,315.3 201.1,315.6 C198.8,316 198.2,314.6 196.6,313.2 C190.7,308.2 183,308.3 175.7,309 C176.2,309.4 176.7,309.7 177.1,310.1 C176.6,307.1 177.1,302.5 175.1,299.9 C172.9,297 168.1,295.4 165.1,293.5 C160.1,290.2 151.2,284.9 151.9,277.8 C152.6,270.7 161.4,264.8 166.6,261 C175.7,254.3 187.7,244.3 198.6,253.1 C200.1,254.3 202.2,252.2 200.7,251 C191.4,243.5 182.3,246.9 173.2,252.7 C165.3,257.8 155,264.1 150.4,272.7 C147.6,278.1 149.1,283.3 153,287.6 C156,290.9 159.8,293.6 163.6,296.1 C166.3,297.8 171.9,300 173.1,303 C174.1,305.2 173.7,308.5 174.1,310.9 C174.2,311.5 174.9,312.1 175.5,312 C184,311.1 191.7,311.5 197.4,318.7 C197.7,319.1 198.4,319.2 198.9,319.1 C211,316.9 213.1,307.7 211.1,296.9 C210.3,292.9 209.8,289.2 212.1,285.5 C213.8,282.8 216.6,280.8 219.1,278.8 C226.4,272.9 233.7,267 241,261 C247.6,255.7 255.8,250.5 260.9,243.7 C264.2,239.3 266.3,233.2 264,227.8 C258.3,214.3 241.7,222.8 233.7,229.1 C222.5,237.9 216.2,252.6 199.7,250.5 C197.8,250.4 197.8,253.4 199.7,253.6 Z" id="Shape"></path>
                <path d="M98.2,108.2 C103.4,112.9 113.9,119.3 114.5,127.1 C115.1,134.2 104.9,137.7 99.6,139.2 C89.6,142 78.9,143.5 68.7,145.6 C58.7,147.7 48.6,149.7 38.6,151.7 C31.5,153.1 23.8,155.3 16.5,154.7 C8.1,154 3.5,147.3 3.2,139.2 C2.7,124.4 23.7,121.5 34.5,119 C45.6,116.5 56.9,114.4 68.1,112.5 C73.1,111.7 78.1,110.6 82.9,109 C85,108.3 87.1,107.5 89.1,106.6 C93,105.1 94.9,105.3 98.2,108.2 C99.7,109.5 101.8,107.3 100.3,106.1 C98.1,104.2 94.5,101.8 91.4,102.4 C88.7,102.9 85.7,105.1 83.1,106 C80,107.1 76.8,107.9 73.6,108.6 C61,111.3 48.2,113 35.7,115.8 C24.2,118.3 2.2,121.3 0.4,136.3 C-0.4,143.2 2.3,151.7 8.5,155.5 C14.4,159 21.9,158 28.3,156.9 C40.5,154.8 52.6,152.1 64.8,149.7 C71.3,148.4 77.8,147 84.2,145.7 C90.4,144.4 96.9,143.6 102.9,141.5 C108.9,139.4 117.5,135.6 117.7,128.1 C117.9,118.7 106.4,111.6 100.5,106.2 C98.9,104.8 96.7,106.9 98.2,108.2 Z" id="Shape"></path>
                <path d="M162,159.5 C160.9,170.3 154.2,178.9 162.4,188.7 C162.4,188 162.4,187.3 162.4,186.6 C152.9,197.2 151,177.7 141.2,179.5 C137.3,180.2 133,182.6 129.3,184.1 C123.8,186.2 118.4,188.5 112.9,190.6 C102.5,194.7 91.9,198.6 81,201 C72.9,202.8 61.7,205.6 53.6,202.1 C44.6,198.1 42.8,184.3 49.2,177.4 C55.8,170.3 67.8,169 76.7,166.9 C88.1,164.3 100.3,163 111.4,159.4 C117,157.6 121.7,154.9 127.8,154.9 C133.2,154.9 138.1,157 142.1,160.7 C145.5,163.8 146.6,167 151.8,166.5 C156.4,166.1 159.7,162.5 164,161.1 C165.8,160.5 165,157.6 163.2,158.2 C159.4,159.5 153.4,165.1 149.3,163.4 C147,162.5 145.1,159.2 143.2,157.7 C141.4,156.2 139.4,154.9 137.2,153.9 C129,150.3 120.7,152.5 112.7,155.6 C106.5,158 99.7,159 93.1,160.4 C85.8,161.9 78.5,163.5 71.2,165.2 C62.5,167.3 51.9,169.1 46,176.6 C41.2,182.8 41.4,192.2 45.4,198.8 C49.2,205.2 56.4,206.8 63.4,206.6 C87.9,205.9 110.9,194.3 133.4,185.8 C136.9,184.5 142,181 145.5,183.7 C147.7,185.4 149.1,188 151,190 C155.6,194.8 160.4,193.5 164.6,188.8 C165.2,188.2 165.1,187.3 164.6,186.7 C157.4,178.2 164.1,169.1 165,159.7 C165.2,157.6 162.2,157.6 162,159.5 Z" id="Shape"></path>
                <path d="M99.6,105.7 C98.2,105.3 96.8,105.5 95.6,105.1 C92.2,104.2 88.4,100.8 86.6,97.9 C82.2,90.9 86.3,82.5 89.9,76.2 C99.6,59.2 112.6,44.5 126,30.3 C129,27.1 132,23.9 135.1,20.7 C138.8,16.8 143,12.3 148.9,12.5 C154.3,12.7 159.6,16.6 160.3,22.1 C160.8,26.5 157.6,30.9 155.7,34.7 C149.5,47.4 144.3,60.6 137,72.8 C128,87.9 115.7,99.7 99,105.8 C97.2,106.5 98,109.4 99.8,108.7 C116.6,102.6 129.3,91.1 138.6,76 C143.2,68.6 146.9,60.8 150.5,52.9 C154.3,44.6 159.1,36.4 162.4,28 C165.3,20.6 161.1,13.3 153.9,10.6 C144.9,7.2 138.2,13.1 132.4,19.3 C116.3,36.4 99.7,53.6 87.9,74 C83.9,81 79.6,89.6 83.2,97.7 C84.7,101.1 87.4,103.7 90.5,105.8 C92.2,106.9 94.4,108.4 96.4,108.7 C97.3,108.9 98,108.5 99,108.7 C100.7,109 101.5,106.1 99.6,105.7 Z" id="Shape"></path>
                <path d="M187.3,213.1 C197.8,199.8 208.5,186.6 219.1,173.4 C222.6,169.1 225.6,163.9 230.3,160.7 C236.6,156.4 247.5,160.5 249.1,168.2 C250.4,174.2 244.7,180.5 242,185.4 C238.7,191.3 236.3,197.7 233.2,203.7 C226.3,216.9 217.5,229.2 204.9,237.5 C201,240.1 196.7,243.8 191.7,242.8 C187.2,241.9 183.9,238 181.7,234.2 C176.6,225.7 178.4,218.2 187.1,213.4 C188.8,212.5 187.3,209.9 185.6,210.8 C179.5,214.2 174.7,219.3 175.7,226.8 C176.6,233.5 181.2,241.1 187.2,244.4 C194.7,248.6 201.6,243.6 207.8,239.3 C215.1,234.2 221.3,227.8 226.5,220.7 C232,213.2 236.3,204.9 240.2,196.5 C242,192.6 243.7,188.7 245.9,185 C247.8,181.9 249.8,178.8 251.1,175.4 C256.1,162.1 238.9,150.8 227.9,159 C221.2,164 216.1,172.5 210.8,178.9 C202,189.4 193.8,200.4 185.3,211.2 C183.9,212.5 186.1,214.7 187.3,213.1 Z" id="Shape"></path>
                <path d="M163.9,228 C150.7,235.5 141,249.2 126.1,253.7 C120.5,255.4 112.5,257.6 107.1,254.6 C100.2,250.8 98.7,238.8 102.5,232.5 C106.9,225.1 118.3,221.7 125.7,218.2 C134.4,214.1 143.5,210.5 152.1,206.1 C156.2,204 160.2,201.9 165,203.5 C169.1,204.9 172.9,209.1 174.2,213.3 C176.4,220.4 167.9,224.3 163.6,228.2 C162.2,229.5 164.3,231.6 165.7,230.3 C169.5,226.8 175.1,224.1 177,219 C179.1,213.3 175,207 170.8,203.5 C166.2,199.7 160.5,199.1 155,201.2 C146.1,204.7 137.3,209.5 128.6,213.6 C116,219.4 95.7,225.1 97.6,242.6 C98.2,248.3 100.7,254.7 106.1,257.4 C111,259.9 116.8,258.8 121.9,257.7 C139.9,254 150.2,239.2 165.4,230.4 C167.1,229.6 165.6,227 163.9,228 Z" id="Shape"></path>
                <path d="M57.2,80.5 C43.3,84.8 28.1,91.1 13.3,88.1 C6.3,86.7 0.3,79.8 4.7,72.6 C7.8,67.5 16.9,63.7 22.5,64 C32.3,64.5 41.1,63.3 48.9,56.8 C56.6,50.4 61.5,41.2 65.9,32.3 C65.1,32.4 64.3,32.5 63.5,32.6 C68.1,37.4 71.1,43.2 74,49.2 C75.3,51.8 76.6,54.5 78,57.1 C80,60.6 80.2,63.3 75.6,64.5 C71.7,65.6 69.9,65.3 67.4,68.8 C64.3,73.1 62.9,78.6 57.2,80.5 C55.4,81.1 56.2,84 58,83.4 C63.2,81.6 65.6,77.7 68.3,73.1 C70.3,69.7 71.7,68.4 75.5,67.6 C77.6,67.2 79.6,66.6 81.1,65.1 C85.9,60.3 80.4,55.3 78.1,50.6 C74.6,43.5 71.3,36.4 65.7,30.5 C65.1,29.8 63.8,29.9 63.3,30.8 C58,41.5 51.7,53.6 40.3,58.8 C36.8,60.4 32.9,61.2 29,61.4 C25.7,61.5 22.1,60.3 18.9,60.8 C14.1,61.6 7.7,65.1 4.2,68.5 C-4,76.5 1.7,88.5 11.8,90.8 C27.3,94.4 43.4,87.9 58,83.4 C59.9,82.8 59.1,79.9 57.2,80.5 Z" id="Shape"></path>
                <path d="M81.8,58.9 C76.8,59 70.4,58.8 67.6,53.8 C65.7,50.4 65.9,46 66.1,42.3 C66.2,38.2 66,34.2 66.1,30.1 C66.2,26.1 68.4,22.7 70,19.1 C71.2,16.2 71.9,13.1 73.6,10.4 C77.3,4.5 85.3,1.1 91.8,4.8 C97,7.8 95.7,14.6 94.9,19.5 C92.6,33.6 90.5,48.1 80.8,59.3 C79.5,60.8 81.7,62.9 82.9,61.4 C92.5,50.3 95,36.5 97.4,22.4 C98.8,14.2 100.3,3.8 90.1,1 C85.2,-0.4 79.8,0.6 75.7,3.6 C70.4,7.5 69.2,13.2 66.7,18.8 C64.2,24.2 63.1,28.1 63.3,34.1 C63.4,38.4 62.8,42.8 63.1,47.1 C63.7,58.3 71.4,62.1 81.9,61.8 C83.8,61.8 83.8,58.8 81.8,58.9 Z" id="Shape"></path>
            </g>
        </g>
    </g>
</svg>