<?xml version="1.0" encoding="UTF-8"?>
<svg width="382px" height="98px" viewBox="0 0 382 98" version="1.1" xmlns="http://www.w3.org/2000/svg" xmlns:xlink="http://www.w3.org/1999/xlink">
    <!-- Generator: Sketch 51.2 (57519) - http://www.bohemiancoding.com/sketch -->
    <title>Untitled</title>
    <desc>Created with Sketch.</desc>
    <defs></defs>
    <g id="Page-1" stroke="none" stroke-width="1" fill="none" fill-rule="evenodd">
        <g id="SLT-Website-Graphics" transform="translate(-5024.865234, -2947.882812)" fill="#FFFFFF" fill-rule="nonzero">
            <g id="Group" transform="translate(5025.000000, 2290.000000)">
                <path d="M370.340625,697.735938 C365.040625,697.335938 359.040625,696.535938 353.940625,698.635938 C350.940625,699.835938 348.440625,702.235938 346.040625,704.335938 C340.940625,708.635938 337.740625,712.535937 337.440625,719.435937 C337.140625,725.635937 338.740625,731.135937 343.940625,734.935937 C349.640625,739.035937 355.040625,741.235938 361.540625,738.535937 C367.640625,736.035937 373.840625,732.935937 377.240625,727.035937 C381.740625,719.235938 384.140625,697.235938 370.340625,697.735938 C368.440625,697.835938 368.440625,700.835938 370.340625,700.735938 C378.040625,700.435937 377.940625,710.335938 377.440625,715.735938 C376.840625,721.735938 374.840625,727.035938 369.940625,730.735938 C364.940625,734.535938 358.040625,738.035938 351.940625,735.835938 C346.440625,733.835938 341.640625,730.135938 340.740625,724.035937 C339.940625,718.035937 341.240625,712.935937 345.640625,708.735937 C347.540625,706.935937 349.740625,705.135937 351.840625,703.535937 C357.140625,699.435937 364.140625,700.335938 370.440625,700.835938 C372.240625,700.935937 372.240625,697.935937 370.340625,697.735938 Z" id="Shape"></path>
                <path d="M245.840625,682.435937 C233.740625,686.835938 228.340625,704.335938 230.040625,716.035937 C231.040625,722.535937 236.340625,724.335938 242.140625,726.035937 C248.840625,728.035937 255.940625,729.135937 261.840625,724.635937 C271.140625,717.435937 283.540625,701.035937 281.540625,688.435937 C280.740625,683.435937 274.540625,678.735938 269.940625,677.435937 C262.340625,675.235938 252.940625,680.235938 245.840625,682.435937 C244.040625,683.035937 244.740625,685.935937 246.640625,685.335938 C252.140625,683.635938 257.640625,681.335938 263.240625,680.235938 C269.840625,678.935937 277.940625,683.535938 278.540625,690.635938 C278.940625,695.635938 275.740625,701.935938 273.340625,706.035938 C270.740625,710.535938 267.440625,714.535938 263.940625,718.335938 C262.040625,720.435938 260.040625,722.435938 257.540625,723.735938 C253.940625,725.535938 250.140625,724.835938 246.440625,724.035938 C243.840625,723.435938 241.140625,722.735938 238.640625,721.735938 C234.540625,720.135938 232.940625,717.335938 232.840625,712.935938 C232.640625,703.435938 236.640625,689.035938 246.640625,685.335938 C248.440625,684.735938 247.640625,681.835938 245.840625,682.435937 Z" id="Shape"></path>
                <path d="M137.240625,667.735938 C129.040625,678.535938 117.440625,691.335938 123.440625,706.035938 C125.540625,711.235938 129.740625,718.535938 135.340625,720.635938 C140.640625,722.735938 148.240625,721.935938 153.740625,721.035938 C167.140625,719.035938 172.440625,708.735938 173.640625,696.135938 C174.440625,688.335938 174.140625,681.235938 172.140625,673.635938 C171.040625,669.535938 170.140625,665.035938 166.440625,662.335938 C163.040625,659.835938 157.740625,657.735938 153.440625,658.035937 C147.140625,658.335938 141.740625,663.235937 137.440625,667.335938 C136.040625,668.635938 138.140625,670.835938 139.540625,669.435937 C143.940625,665.235938 149.940625,659.735938 156.640625,661.235938 C160.640625,662.135938 165.340625,664.535938 167.240625,668.235938 C170.040625,673.635938 171.040625,681.235938 171.040625,687.035938 C171.040625,693.935938 170.640625,701.435938 167.740625,707.735938 C164.340625,715.235938 157.440625,717.935937 149.540625,718.435937 C146.540625,718.635937 143.440625,718.735938 140.540625,718.535937 C135.040625,718.235937 132.540625,715.335938 129.540625,711.035937 C124.840625,704.235937 123.640625,696.935937 126.340625,689.035937 C128.840625,681.635937 135.040625,675.335938 139.640625,669.235937 C140.940625,667.735938 138.340625,666.235938 137.240625,667.735938 Z" id="Shape"></path>
                <path d="M35.840625,696.935937 C24.040625,697.135937 9.940625,704.835938 3.640625,714.935937 C-2.959375,725.635937 2.140625,738.235938 11.340625,745.335938 C16.240625,749.135938 22.240625,751.635938 28.340625,752.935937 C34.340625,754.235938 42.240625,755.335938 48.040625,753.235938 C52.840625,751.535938 54.640625,746.735938 55.740625,742.135938 C57.340625,735.535938 58.140625,728.435938 57.340625,721.635938 C56.540625,715.535938 54.240625,709.335938 50.240625,704.635938 C46.640625,700.335938 41.440625,698.435938 36.140625,697.035938 C34.240625,696.535938 33.440625,699.435938 35.340625,699.935938 C40.340625,701.235938 44.940625,702.935938 48.240625,707.035938 C52.340625,712.135938 54.340625,718.735938 54.640625,725.135938 C54.940625,731.635938 54.140625,738.935938 51.740625,745.035938 C48.640625,753.035938 37.740625,751.535938 30.740625,750.335938 C18.240625,748.135938 2.040625,738.835938 3.440625,723.935938 C4.740625,710.435938 23.440625,700.135938 35.740625,699.935938 C37.840625,699.935937 37.840625,696.935937 35.840625,696.935937 Z" id="Shape"></path>
            </g>
        </g>
    </g>
</svg>