<?xml version="1.0" encoding="UTF-8"?>
<svg width="270px" height="172px" viewBox="0 0 270 172" version="1.1" xmlns="http://www.w3.org/2000/svg" xmlns:xlink="http://www.w3.org/1999/xlink">
    <!-- Generator: Sketch 51.2 (57519) - http://www.bohemiancoding.com/sketch -->
    <title>Untitled</title>
    <desc>Created with Sketch.</desc>
    <defs></defs>
    <g id="Page-1" stroke="none" stroke-width="1" fill="none" fill-rule="evenodd">
        <g id="SLT-Website-Graphics" transform="translate(-5722.865234, -2289.882812)" fill="#FFFFFF" fill-rule="nonzero">
            <g id="Group" transform="translate(5723.000000, 2255.000000)">
                <path d="M216.384782,64.1 C213.48767,57.7 209.491653,51.1 204.09703,46.5 C199.601511,42.6 195.105992,43.8 189.71137,45.1 C178.822224,47.7 167.033975,51.9 161.939053,62.7 C162.838157,63 163.837161,63.2 164.736265,63.5 C163.237759,44.5 144.955982,33.5 126.973907,35.2 C117.583267,36.1 107.493325,39.6 99.2015903,44.1 C91.2095568,48.4 90.6101543,56.4 91.1096564,64.6 C91.9088598,64.2 92.6081627,63.7 93.407366,63.3 C84.81593,57.8 72.9277802,53.3 63.2374395,58.9 C55.944709,63.1 51.8487918,71.8 55.245406,79.7 C55.6450077,78.9 56.1445098,78.2 56.5441115,77.4 C40.5600445,78.2 22.8776703,80 12.787728,94.2 C5.09539576,105.1 6.19430037,120.7 17.4830477,128.7 C17.3831473,127.9 17.2832469,127.1 17.1833464,126.3 C13.4870309,130.6 7.89260749,132.5 4.49599325,137.2 C1.69878152,141.2 0.599876914,146.1 0.499976495,151 C0.300175657,156.8 1.39908026,162.5 2.69778571,168.1 C3.89659074,173.6 5.39509702,179.4 8.69181084,184 C15.3851389,193.4 29.1713967,194.7 39.7608411,194.7 C51.5490905,194.7 63.7369416,190.3 69.1315643,179.1 C68.2324605,179.1 67.4332571,179.1 66.5341534,179.1 C70.4302697,186.8 78.0227015,191.1 85.6151334,194.5 C95.1056732,198.7 104.995815,202.1 115.085757,204.2 C123.177691,205.9 130.370521,205.6 136.664247,199.7 C143.257675,193.4 148.052895,185.1 151.349609,176.7 C150.650306,177 149.851103,177.3 149.1518,177.6 C166.334672,188.9 187.41366,193.3 207.693445,189.5 C214.486674,188.2 223.677512,185.8 226.574624,178.5 C229.871338,170 221.080101,163.6 219.881296,155.7 C219.381794,156.3 218.882292,157 218.48269,157.6 C229.871338,157.3 241.759488,158 253.148136,156.5 C261.439871,155.5 267.833497,150.7 268.4329,141.9 C269.032302,133.2 263.337979,123.3 257.443854,117.3 C250.350924,110.2 240.061181,110.9 230.870342,111.9 C231.269944,112.8 231.569645,113.6 231.969247,114.5 C242.458791,105.4 248.253015,90.3 242.858393,76.9 C238.262973,65.4 224.976218,58.6 213.287869,63.3 C211.489661,64 212.288864,66.9 214.087072,66.2 C225.47572,61.6 237.863372,69.1 240.960285,80.6 C244.256999,92.5 238.762475,104.6 229.871338,112.4 C228.972234,113.2 229.671537,115.1 230.970243,115 C238.962276,114.1 248.352916,113 254.846443,118.9 C260.540767,124 266.13519,134.2 265.535788,142 C264.636684,153 253.947339,153.8 245.156102,154 C236.264965,154.2 227.473728,154.4 218.582591,154.6 C217.483686,154.6 216.984184,155.5 217.183985,156.5 C218.28289,163.5 227.473728,171 223.677512,178.2 C219.881296,185.3 208.192947,186.7 201.199918,187.4 C183.517544,189.2 165.83517,184.7 151.049908,174.9 C150.150804,174.3 149.1518,175 148.852099,175.8 C145.755186,183.5 141.359567,191.1 135.465442,197 C128.272612,204.1 119.880977,202.3 110.98984,200 C102.997806,197.9 95.1056732,195.2 87.5132413,191.8 C80.3204112,188.6 73.2274814,184.8 69.5311659,177.5 C69.0316638,176.5 67.4332571,176.5 66.933755,177.5 C61.6390328,188.4 49.6509826,191.9 38.2623348,191.6 C27.2732887,191.3 14.5859356,189.6 9.49101419,178.6 C5.69479828,170.5 3.6967899,159.8 3.99649116,150.9 C4.09639157,145.8 5.39509702,140.6 9.19131294,136.8 C12.3881263,133.5 16.7837448,131.8 19.7807573,128.3 C20.4800603,127.5 20.2802594,126.5 19.4810561,125.9 C7.99250791,117.8 9.49101419,101.7 18.4820519,92.4 C28.4720938,82 43.3572562,80.9 57.0436136,80.2 C58.2424186,80.1 58.7419207,79 58.342319,77.9 C55.1455056,70.3 61.1395307,61.9 68.5321617,59.8 C76.8238965,57.4 85.4153325,61.2 92.3084614,65.6 C93.2075652,66.2 94.6061711,65.4 94.6061711,64.3 C94.4063702,60.8 94.106669,57.1 95.0057727,53.8 C96.3044782,49 99.9008933,46.9 104.096711,45.1 C111.489342,41.8 119.381475,38.8 127.473409,38 C143.657277,36.5 160.840149,45.9 162.238755,63.3 C162.338655,64.6 164.336663,65.5 165.035966,64.1 C169.431585,54.9 179.022025,51 188.312764,48.6 C190.310772,48.1 192.308781,47.5 194.306789,47.2 C198.902208,46.4 201.499619,47.5 204.496632,50.7 C208.592549,55.1 211.689462,60.1 214.186972,65.6 C214.586574,67.3 217.183985,65.8 216.384782,64.1 Z" id="Shape"></path>
            </g>
        </g>
    </g>
</svg>