<?xml version="1.0" encoding="UTF-8"?>
<svg width="66px" height="320px" viewBox="0 0 66 320" version="1.1" xmlns="http://www.w3.org/2000/svg" xmlns:xlink="http://www.w3.org/1999/xlink">
    <!-- Generator: Sketch 51.2 (57519) - http://www.bohemiancoding.com/sketch -->
    <title>Untitled</title>
    <desc>Created with Sketch.</desc>
    <defs></defs>
    <g id="Page-1" stroke="none" stroke-width="1" fill="none" fill-rule="evenodd">
        <g id="SLT-Website-Graphics" transform="translate(-1852.000000, -1164.000000)" fill="#FFCE05" fill-rule="nonzero">
            <g id="Group" transform="translate(1852.000000, 1164.000000)">
                <path d="M19.9,275.6 C19.9,273.8 19.8,272.1 19.3,270.6 C17.6,265.2 11.3,265.7 7.6,268.7 C2.3,273 0.5,280 0.8,286.6 C1,290.4 1.3,303.8 8.4,301.5 C8.8,301.4 9.1,301.2 9.3,301 C9.4,301.3 9.6,301.7 9.7,302 C10.3,303.3 12.1,302.8 12.4,301.6 C12.4,301.5 12.5,301.4 12.5,301.3 C13.6,301.2 14.6,300.8 15.4,300.2 C15.8,300.1 16.2,299.9 16.4,299.6 C17.8,298.9 18.6,297.4 18.9,295.8 C19,295 19.1,294.2 19.2,293.4 C19.2,293.2 19.3,293 19.3,292.8 C19.7,289.8 19.6,286.6 19.6,283.6 C20.3,281 20.3,278.1 19.9,275.6 Z M15.8,273.2 C15.9,273.4 16,273.6 16,273.8 C15.9,273.8 15.9,273.7 15.8,273.7 C15.7,273.4 15.6,273.1 15.4,272.9 C15.6,272.9 15.7,273.1 15.8,273.2 Z M5.2,287.1 C5.2,287 5.2,286.9 5.2,286.9 C5.2,287 5.2,287 5.2,287.1 C5.2,287.1 5.2,287.1 5.2,287.1 Z M6.7,278.5 C6.5,278.5 6.4,278.5 6.2,278.5 C6.5,277.7 6.8,277 7.2,276.7 C7,277.3 6.8,277.9 6.7,278.5 Z M4.7,288.8 C4.6,289 4.6,289.2 4.5,289.4 C4.4,289.8 4.3,290.3 4.2,290.7 C4.1,290.2 4.1,289.6 4,289.1 C4.3,289.1 4.5,289 4.7,288.8 Z M8.4,272.1 C9.1,271.1 10.1,270.4 11.2,270.1 C10.4,271.1 9.7,272.2 9.1,273.4 C9,273.5 8.9,273.6 8.8,273.7 C8.2,273.5 7.7,273.4 7.3,273.5 C7.6,273 8,272.5 8.4,272.1 Z" id="Shape"></path>
                <path d="M17.7,308.6 C14.8,307.7 11.1,307.3 8.4,309.1 C5.7,310.8 4.9,314.6 6.7,317.2 C8.4,319.7 12,320.5 14.7,318.9 C17.3,317.4 18.1,314.2 17.3,311.5 C18.9,311.6 19.5,309.1 17.7,308.6 Z M12.6,316.5 C10.7,317.1 8.6,315.8 8.7,313.7 C8.9,311 11.6,310.6 14.1,310.8 C14,311.2 14,311.7 13.9,312.1 C12.8,312.2 11.7,312.2 10.6,312.3 C8.7,312.4 8.7,315.4 10.6,315.3 C11.8,315.2 13,315.2 14.2,315.1 C13.9,315.8 13.3,316.3 12.6,316.5 Z" id="Shape"></path>
                <path d="M64.7,218.4 C64.9,218.1 65.1,217.7 65,217.2 C64.5,213.6 61.3,206.8 56.8,206.9 C52.1,207 52.7,215.8 52.1,219.1 C51.3,223.5 50.4,227.9 49.8,232.4 C49.5,234.7 49,237.1 50,239.2 C51.4,242.1 55,243.5 58,242.5 C63.5,242.2 64.2,233.4 64.7,228.9 C65,225.5 65.4,221.7 64.7,218.4 Z M56.5,212.8 C56.5,212.9 56.6,212.9 56.6,213 C56.6,213 56.6,213.1 56.5,213.1 C56.1,213.5 55.7,214.2 55.5,214.9 C55.7,214 55.9,213.2 56.2,212.4 C56.3,212.6 56.4,212.7 56.5,212.8 Z M59,225 C58.8,222.7 58.6,220.4 58.7,218.1 C59.2,220.2 59.1,222.6 59,225 Z M58.7,235.8 C58.8,236.4 59,237.1 59.2,237.7 C59.1,237.8 59,237.9 58.9,238 C58.6,237.9 58.3,237.8 58,237.7 C58.3,237.1 58.5,236.5 58.7,235.8 Z M56.6,228.2 C56.7,230.7 56.6,233.1 55.8,235.2 C56,233.3 56.3,230.8 56.6,228.2 Z M56.8,210.4 C56.6,210.6 56.4,210.8 56.3,211.1 C56.3,210.7 56.5,210.4 56.8,210.4 Z M52.8,232.2 C53.3,228.7 54,225.3 54.6,221.8 C54.6,221.8 54.6,221.7 54.6,221.6 C54.6,222 54.5,222.4 54.5,222.7 C53.9,227 52.8,231.5 52.7,235.9 C52.6,235.9 52.4,235.8 52.3,235.8 C52.5,234.6 52.6,233.4 52.8,232.2 Z" id="Shape"></path>
                <path d="M55.4,251.5 C55,251.3 54.5,251.2 54,251.3 C52.2,251.4 51.1,253 50.5,254.5 C49.9,256.1 49.4,258.1 49.9,259.8 C50.4,261.5 52,262.5 53.8,262.4 C57.9,262.1 59.4,256.8 58.4,253.4 C58.1,252 56.8,251 55.4,251.5 Z M53,259 C53.2,259.2 53.4,259.4 53.7,259.4 C53.4,259.4 53.2,259.2 53,259 Z" id="Shape"></path>
                <path d="M23.3,159.7 C21,159.9 19.7,161.5 19.1,163.6 C18.9,164 18.7,164.4 18.5,165 C17.6,168 17.9,172 17.6,175.1 C17.3,178.1 16.5,181.9 18.1,184.8 C18.6,185.6 19.3,186.3 20,186.8 C20.6,187.7 21.4,188.3 22.6,188.3 C23.6,188.4 24.4,188 25.1,187.4 C26.1,186.7 26.8,185.5 27.2,184 C28.5,180.7 29,176.4 29.3,174.5 C29.6,171.9 29.9,167.5 28.1,165.1 C27.8,162 26.6,159.4 23.3,159.7 Z M23.3,174.7 C23.4,175.5 23.8,177.5 24,179.1 C23.8,177.7 23.5,176.2 23.3,174.7 Z" id="Shape"></path>
                <path d="M23.7,195 C22,194.5 20,195 19,196.5 C18,197.9 18.3,199.9 19.6,201 C20.9,202.2 22.9,202 24,200.5 C24.6,199.6 24.7,198.4 24.3,197.5 C25,196.9 25,195.4 23.7,195 Z M21.5,198.8 C21.5,198.7 21.5,198.8 21.5,198.8 C21.5,198.8 21.5,198.8 21.5,198.8 Z M21.6,198.9 C21.6,198.9 21.7,198.9 21.6,198.9 C21.6,198.9 21.6,198.9 21.6,198.9 Z" id="Shape"></path>
                <path d="M60.3,152.9 C57.7,152.3 54.9,154.6 55.6,157.4 C56.2,159.8 59.2,161 61.3,159.8 C61.9,159.4 62.1,158.8 62,158.1 C61.8,157 61.5,155.9 61.3,154.8 C61.5,154 61.2,153.1 60.3,152.9 Z M58.4,156.7 C58.4,156.6 58.4,156.4 58.5,156.3 C58.6,156.6 58.6,156.8 58.7,157.1 C58.5,157 58.5,156.8 58.4,156.7 Z" id="Shape"></path>
                <path d="M55.9,126 C55.1,126.2 54.8,126.9 54.8,127.5 C54.7,127.7 54.5,127.9 54.5,128.2 C53.9,132.5 52.1,138.3 53.8,142.6 C54.5,144.3 56.3,145.9 58,145.8 C58.8,146.4 59.8,146.6 60.6,146.2 C61.2,146.2 61.8,145.9 62,145.1 C62,145 62,144.9 62,144.9 C62,144.9 62,144.9 62,144.9 C63.2,142.9 63.3,140.1 62.9,137.2 C63.4,135.2 63.8,133.2 63.4,131.2 C62.8,127.7 59.6,125.2 55.9,126 Z M57.3,129.8 C57.4,129.9 57.4,129.9 57.5,129.9 C57.4,130 57.3,130.1 57.2,130.2 C57.3,130.1 57.3,130 57.3,129.8 Z" id="Shape"></path>
                <path d="M39.1,98.3 C38,96 34.5,96.1 33.8,98.5 C33.7,98.9 33.7,99.3 33.9,99.6 C33.4,99.6 32.9,99.8 32.6,100.2 C30.6,103 27.8,108.2 28.7,111.8 C28.9,112.6 29.4,113.2 30.1,113.5 C30.6,114.3 32,114.5 32.7,113.5 C32.8,113.3 33,113.1 33.1,112.9 C33.8,112.2 34.3,111.2 34.8,110.3 C36.3,107.8 37.6,105.3 38.6,102.6 C39.2,101.3 39.8,99.7 39.1,98.3 Z" id="Shape"></path>
                <path d="M26.8,124.7 C27.3,124.7 27.7,124.5 28,124.1 C28.4,123.9 28.7,123.6 28.8,123.2 C28.9,122.3 28.7,121.4 27.8,120.9 C27,120.4 26,120.5 25.3,121.1 C24.7,121.6 24.6,122.5 24.8,123.2 C25.1,124.1 25.9,124.6 26.8,124.7 Z M25.9,122.4 C25.9,122.5 25.9,122.7 25.9,122.8 C25.9,122.7 25.9,122.5 25.9,122.4 Z" id="Shape"></path>
                <path d="M60.7,77.1 C59.8,76.8 58.7,77.2 58,78.2 C56.5,80.7 55.8,85.7 56.8,88.4 C57.7,90.8 60.6,91.8 62,89.2 C63.8,86 63.5,81.5 62.5,78.1 C62.2,77.3 61.4,76.9 60.7,77.1 Z M59.5,85.9 C59.7,85.9 59.8,85.8 60,85.8 C59.9,86.2 59.6,87.7 59.7,87.6 C59.6,87.6 59.5,86.8 59.5,85.9 Z" id="Shape"></path>
                <path d="M46.1,53.6 C45.4,52.8 44.3,53.2 43.7,53.9 C42,56.3 41.2,59.1 41.3,62 C41.4,63.3 42.6,63.8 43.6,63.2 C43.6,63.2 43.6,63.2 43.6,63.2 C43.7,63.2 43.8,63.1 43.8,63.1 C45.8,61.5 46.7,59.2 46.6,56.7 C46.6,56.7 46.6,56.7 46.6,56.7 C47.2,55.6 46.9,54.5 46.1,53.6 Z" id="Shape"></path>
                <path d="M58.1,40.1 C57.4,42.7 57.5,45.4 58.2,48 C58.6,49.4 60.2,49.3 60.9,48.4 C62.5,46.3 62.8,43.6 61.9,41.2 C61.9,40.2 61.6,39.3 60.7,38.6 C60.5,38.4 60.2,38.3 59.9,38.2 C59.1,37.8 57.9,38.9 58.1,40.1 Z" id="Shape"></path>
                <path d="M50.2,25.5 C52.1,25 53.3,23.4 53.5,21.5 C53.5,21.1 53.3,20.7 53,20.4 C53.1,19.8 52.8,19.2 52.3,18.9 C51.5,18.5 50.7,18.8 50.2,19.4 C49.3,20.7 48.7,22.1 48.3,23.6 C48.1,24.7 49.1,25.8 50.2,25.5 Z" id="Shape"></path>
                <path d="M56.3,13.3 C56.4,13.9 56.5,14.5 56.6,15.1 C56.7,15.9 57.7,16.3 58.4,16.1 C59.2,15.9 59.6,15.1 59.4,14.3 C59.3,13.7 59.2,13.1 59.1,12.5 C59,11.7 58,11.3 57.3,11.5 C56.5,11.6 56.1,12.5 56.3,13.3 Z" id="Shape"></path>
                <path d="M54.5,5.5 C55.2,5.7 56.2,5.3 56.3,4.5 C56.4,3.9 56.5,3.3 56.6,2.8 C56.7,2 56.4,1.1 55.6,1 C54.9,0.8 53.9,1.2 53.8,2 C53.7,2.6 53.6,3.2 53.5,3.7 C53.4,4.4 53.7,5.3 54.5,5.5 Z" id="Shape"></path>
            </g>
        </g>
    </g>
</svg>