<?xml version="1.0" encoding="UTF-8"?>
<svg width="1400px" height="676px" viewBox="0 0 1400 676" version="1.1" xmlns="http://www.w3.org/2000/svg" xmlns:xlink="http://www.w3.org/1999/xlink">
    <!-- Generator: Sketch 51.2 (57519) - http://www.bohemiancoding.com/sketch -->
    <title>Untitled</title>
    <desc>Created with Sketch.</desc>
    <defs></defs>
    <g id="Page-1" stroke="none" stroke-width="1" fill="none" fill-rule="evenodd">
        <g id="SLT-Website-Graphics" transform="translate(0.949219, -511.996094)" fill="#FFCE05" fill-rule="nonzero">
            <g id="Group" transform="translate(0.538988, 512.000000)">
                <path d="M648.3,120.9 C655.6,118.4 663.2,117.6 670.8,117.1 C686.3,116.1 701.9,115.2 717.4,114.3 C745.7,112.6 775.5,112.9 802.6,103.6 C827.2,95.2 849.3,79 868.4,61.5 C887.6,43.9 904.1,23.4 917.3,0.9 L913.8,0.9 C902.3,20.2 888.4,38 872.3,53.7 C853.4,72.2 831,89.5 806.1,99.1 C779.3,109.4 749.6,109.3 721.3,111 C706.3,111.9 691.3,112.8 676.3,113.7 C663.7,114.5 651.6,115.5 640,121 C633.5,124.1 627.5,127.9 621.1,131.1 C613.9,134.8 606.2,137.6 598.4,139.8 C589.2,142.4 579.8,144 570.4,145.4 L570.4,148.3 C590.9,145.2 610.8,140.4 629.4,130.1 C635.6,126.8 641.7,123.2 648.3,120.9 Z" id="Shape"></path>
                <path d="M386.5,160.7 C343.3,166.5 300.1,172 256.5,173.9 C238.2,174.7 219.4,175.5 201.8,181.3 C184,187.1 169.6,199 156.2,211.7 C150.6,217 145.3,223.2 144.2,231.1 C143.7,234.2 143.9,237.6 144.9,240.6 C146.3,244.7 150,246.8 151.9,250.5 C154.9,256.4 149,262.3 145.6,266.6 C142.9,269.9 140.3,273.2 137.8,276.6 C133.4,282.8 129.4,289.9 129.1,297.6 C128.9,303.8 130.5,310.3 137.3,311.3 C147.4,312.7 157.4,312.2 167.4,314.9 C177.1,317.5 185.1,322.9 193.5,328.1 C201.7,333.3 209.9,336.8 219.5,338.7 C240.8,343 260.7,349.7 279,361.7 C296.6,373.3 310.2,390.5 329.1,400.1 C330.8,401 332.3,398.4 330.6,397.5 C314.8,389.6 303.2,376.1 289.4,365.5 C275.7,355 260.3,346.9 243.9,341.6 C235.3,338.8 226.4,337.3 217.6,335.3 C208.2,333.2 200.3,328.9 192.3,323.7 C185,319 177.6,314.6 169.2,312.2 C160.8,309.8 151.9,309.2 143.2,308.7 C139.9,308.5 137.3,308.9 134.9,306.4 C132.8,304.2 132.3,302.2 132.2,299.1 C132.1,294.1 133.8,289.3 136.2,284.9 C140.2,277.5 145.9,271.3 151,264.7 C155,259.5 157.9,253.3 153.4,247.5 C150.5,243.7 147.3,241 146.9,236 C146.5,230.9 148.3,226 151.2,221.9 C156.2,214.6 163.8,208.8 170.5,203.1 C178.4,196.5 186.7,190.5 196.3,186.6 C213.1,179.7 231.6,178.2 249.6,177.3 C295.5,175 341,169.8 386.5,163.7 C388.3,163.4 388.4,160.4 386.5,160.7 Z" id="Shape"></path>
                <path d="M1395.2,415.2 C1380.3,418 1365.5,420.8 1350.6,423.6 C1336.8,426.2 1322.7,428.3 1309.3,432.4 C1297.7,436 1286.8,441.1 1275.4,445.2 C1266.5,448.4 1257.3,448.8 1248,446.9 C1224.5,442.2 1201.1,437.4 1177.6,432.6 C1174.9,432.1 1172.2,431.4 1169.5,431 C1163.4,430.2 1157.2,431.1 1151.1,431 C1144,430.9 1137,430.3 1129.8,430.6 C1101.9,432 1075.2,440.8 1047.6,444.2 C1018.5,447.8 989.3,443.6 960.1,443.6 C938.2,443.6 916.2,445.6 894.5,448.6 C884.7,450 872.4,454.7 863.1,450.1 C859.2,448.2 856.8,445.1 852.4,444 C847.4,442.8 842.9,442.8 838.5,439.9 C817,425.8 791.1,434.5 768,438.7 C740.3,443.8 711.6,443.6 683.9,438.2 C677.3,436.9 670.8,435.4 664.3,433.5 C657.7,431.6 651.1,428.5 644.5,426.9 C638.7,425.6 633.1,427.1 627.3,425.3 C621.1,423.4 617.2,422.2 610.8,423.1 C605.6,423.8 600.5,422.7 595.3,423.4 C590,424.2 584.9,426 580,428.1 C571.1,431.7 560.5,437.8 550.6,435.3 C545.2,434 540.8,430 536.1,427.1 C530.9,423.9 525.5,421.4 519.4,420.5 C507.8,418.9 496.4,423.1 486.7,429.3 C475.3,436.7 466.9,448.6 452.6,450 C438.6,451.3 424.2,449.8 410.3,448.5 C396.4,447.2 382.1,445.3 368.1,446.4 C364.6,446.7 360.9,447.5 358.9,450.6 C357.1,453.5 357.7,457.1 360.7,458.8 C364.3,460.8 369.7,459.4 373.5,458.8 C379.4,457.8 385.1,456.1 390.7,453.9 C401.2,449.6 410.8,443.3 418.7,435.1 C422.6,431.2 425.8,426.7 429.7,422.7 C431.9,420.5 434.2,418.4 436.9,417 C437.7,416.6 438.6,416.2 439.4,415.8 C440.5,417.4 441.7,419 442.8,420.6 C442.9,423.3 439,426.2 437,427.3 C427.6,432.3 400.9,429.1 406,413.2 C409.8,401.3 425.6,399 434.1,391.6 C439.8,386.6 445,375.7 435.5,371.7 C426.2,367.8 417.6,377.9 412,383.7 C401.8,394.1 390.8,400.6 376.1,402.1 C361.6,403.6 347.1,400.6 333,397.6 C331.1,397.2 330.3,400.1 332.2,400.5 C355.9,405.4 384,410.6 404.8,394.5 C409.6,390.8 413.6,386.1 418,381.9 C420.3,379.6 422.8,377.3 425.6,375.7 C431.5,372.4 441.4,374.9 436.7,383.9 C431.3,394.3 417.4,396.1 409.2,403.5 C402.8,409.3 399.5,419.5 406.5,426.3 C412.7,432.2 424.7,433.1 432.6,431.7 C439.2,430.6 450.8,422.3 444.8,414.3 C439.6,407.4 428.6,419.2 425.3,422.9 C416.9,432.2 409.1,440.8 397.9,447 C392.5,449.9 386.8,452.3 381,453.9 C378.3,454.7 375.5,455.3 372.7,455.8 C370.9,456.1 368.1,457.1 366.3,456.6 C363.1,457.2 362.5,455 364.4,449.9 C364.8,449.8 365.3,449.7 365.7,449.6 C368.7,448.7 372.5,449.2 375.6,449.2 C379.3,449.2 383.1,449.3 386.8,449.5 C394.3,449.9 401.8,450.6 409.2,451.3 C423.5,452.6 438.2,454.2 452.5,452.9 C457.5,452.4 462.4,451.3 466.7,448.6 C471.8,445.3 476.1,440.8 480.9,437 C492.4,427.9 507.1,420.3 522.1,424 C533.1,426.7 540.9,437.2 552.1,438.5 C561.1,439.6 569.9,435.3 578,431.9 C582.9,429.9 587.9,427.8 593.1,426.7 C598.7,425.5 604.1,426.7 609.7,426.1 C613.7,425.7 617,425.1 621,426.3 C623.9,427.2 626.8,428.5 629.8,429.1 C632.2,429.6 634.6,429.5 637.1,429.5 C641.4,429.4 644.7,430.1 648.7,431.6 C673.5,440.6 699.8,445.1 726.2,445.3 C739.4,445.4 752.7,444.2 765.7,442 C779.9,439.6 793.9,435.2 808.4,435 C814.5,434.9 820.7,435.6 826.5,437.5 C831.9,439.3 836,443.2 841.3,444.9 C845.5,446.2 850.4,445.7 854.3,447.8 C856.3,448.8 857.9,450.7 859.9,451.9 C862.3,453.3 865,454.3 867.7,454.8 C876,456.2 885.4,452.8 893.6,451.7 C905,450.1 916.6,448.9 928.1,448 C954.4,446 980.3,447.4 1006.6,448.4 C1021.2,448.9 1035.8,448.8 1050.3,446.9 C1063.5,445.1 1076.5,442.2 1089.5,439.5 C1103.3,436.7 1117.3,434.1 1131.5,433.6 C1138.3,433.4 1145,434.1 1151.7,434.1 C1158,434.1 1164.3,433.2 1170.6,434.3 C1193,438.2 1215.3,443.4 1237.7,447.9 C1251.3,450.7 1264.1,452.7 1277.7,447.3 C1288.6,443 1299.4,438.3 1310.7,434.9 C1324.2,430.8 1338.3,428.7 1352.1,426.1 C1366.6,423.4 1381.1,420.7 1395.6,417.9 C1397.9,417.8 1397.1,414.9 1395.2,415.2 Z" id="Shape"></path>
                <path d="M3.8,337.9 C8.4,330.4 20.1,332.1 27.2,334 C37.7,336.8 47.7,342.7 55.2,350.7 C58.9,354.7 61.3,359.5 64.7,363.8 C67.5,367.4 70.7,370.7 74,373.7 C81.9,381 90.5,387.4 98.7,394.4 C107,401.5 115.2,409.2 120.5,418.8 C125.8,428.5 126,439.1 125.4,449.9 C124.2,470.5 120.2,491.7 130.3,511 C141,531.5 163.1,539.5 178.1,555.7 C180.3,558.1 181.6,561 183.4,563.6 C184.9,566 186.7,568.2 188.5,570.3 C190.8,573 193.9,575.5 195.6,578.5 C198.9,584.4 201.5,594.6 200.1,601.3 C198.9,607 193.1,607.6 188.4,609.6 C182.2,612.2 175.4,616.3 168.5,616.5 C164.3,616.6 160.9,613.6 157.5,611.5 C153.3,608.9 149.1,606.3 144.8,604.1 C137.7,600.4 128.3,595.7 120.1,597.9 C115.5,599.2 111.1,602.6 107.4,605.5 C102.7,609.1 98.3,613 94.1,617.2 C90.3,621.1 86.6,625.2 83.5,629.7 C80.5,634.1 78,638.4 74.3,642.4 C66.7,650.6 57.5,658.4 47.5,663.6 C38.7,668.1 27.9,669.6 18.3,671.4 C15.9,671.9 13.5,672.3 11.1,672.7 C9.2,673 10,675.9 11.9,675.6 C20.2,674.2 28.5,672.6 36.7,670.5 C46.5,668 54.3,663.6 62.3,657.3 C71.4,650.2 79,642.4 85.2,632.7 C92.1,621.9 102.7,612.2 113.3,605.1 C118.1,601.9 122.2,599.9 128,600.9 C133.6,601.9 138.8,604.4 143.8,607.1 C148.3,609.5 152.6,612.1 156.8,614.8 C159.7,616.6 162.7,619.1 166.1,619.6 C171.6,620.4 177.4,617.7 182.3,615.6 C185.7,614.2 189.1,612.6 192.5,611.3 C194.8,610.4 197.5,609.8 199.5,608.3 C205.5,603.7 203.3,593.6 201.7,587.5 C200.8,584.2 199.8,580.8 198.4,577.8 C197,574.8 194.3,572.7 192.1,570.2 C188.7,566.4 186,562.3 183.4,558 C180.9,553.9 177.2,550.7 173.4,547.7 C162.7,539 150.3,531.8 141,521.5 C132.1,511.6 127.3,499.3 126.5,486 C125.8,475 127.3,464 128.1,453 C128.8,442.7 129.2,432 125.3,422.2 C121.3,412.5 114.1,404.4 106.4,397.4 C97.8,389.5 88.4,382.6 79.6,374.9 C75.6,371.4 71.7,367.8 68.3,363.7 C65.1,359.9 62.9,355.4 59.7,351.5 C52.9,343.1 43.5,336.8 33.3,332.9 C25.6,330 16,327.8 8,330.8 C5.1,331.9 2.7,333.7 1.1,336.4 C0.2,338 2.8,339.5 3.8,337.9 Z" id="Shape"></path>
            </g>
        </g>
    </g>
</svg>