<?xml version="1.0" encoding="UTF-8"?>
<svg width="123px" height="118px" viewBox="0 0 123 118" version="1.1" xmlns="http://www.w3.org/2000/svg" xmlns:xlink="http://www.w3.org/1999/xlink">
    <!-- Generator: Sketch 51.2 (57519) - http://www.bohemiancoding.com/sketch -->
    <title>Untitled</title>
    <desc>Created with Sketch.</desc>
    <defs></defs>
    <g id="Page-1" stroke="none" stroke-width="1" fill="none" fill-rule="evenodd">
        <g id="SLT-Website-Graphics" transform="translate(-2714.000000, -1295.000000)" fill="#C1CA3F" fill-rule="nonzero">
            <g id="Group" transform="translate(2026.000000, 1294.000000)">
                <path d="M708.9,36.2 C708.9,39.3 709.8,42.7 706.7,45 C706.4,45.2 706.3,45.8 706.3,46.1 C706.9,48.5 707,50.8 704.9,52.7 C704.3,53.3 704.8,54.6 705.5,55.2 C707.5,57.1 706.6,60.5 709.1,62.1 C709.3,62.3 709.4,63.2 709.1,63.5 C707.6,65.7 708.6,67.6 709.5,69.6 C710.5,71.6 709.9,73.6 708.3,74.6 C703.7,77.4 704.3,83.1 700.9,86.7 C698.7,89 698,92.7 694.2,93.6 C692.6,94 691.4,96.9 692.4,98.1 C693.8,99.7 694.1,100.8 691.9,101.8 C691.3,102.1 691.4,102.9 691.2,103.4 C689.6,106.5 690.2,110.1 689.1,113.4 C688.7,114.6 688.9,116.2 690.4,116.9 C691.4,117.4 692.4,118.5 693.8,117.5 C695.2,116.4 694.9,115.2 694.2,113.9 C693.8,113.2 694.1,112.5 694.7,112 C695.3,111.5 696,111.6 696.3,112.2 C697.5,114 699,113.6 700.7,113 C701.9,112.6 703.2,112.4 703.2,114.5 C703.2,115.8 704.2,115.9 705.2,115.6 C706.2,115.3 706.7,114.5 706.5,113.5 C706.4,112.8 705.9,112.2 705.8,111.5 C705.7,110.9 705.9,110.2 706.5,109.9 C707.2,109.6 707.3,110.3 707.6,110.7 C708.7,112.1 709.9,112.2 711.3,111.3 C712,110.8 712.8,110.4 713.6,110.8 C716.7,112.5 719.8,114.3 722.9,116.2 C723.7,116.7 723.7,118.3 725.1,117.9 C726.6,117.5 727,116.1 727.1,114.7 C727.3,112.6 728.4,111.5 730.4,111.2 C731.9,110.9 733,110.2 734,109.1 C734.6,108.4 735.6,107.8 736.3,108.9 C737.5,110.6 737.9,113.4 741.1,112.6 C741.2,112.6 741.5,113.2 741.6,113.6 C741.7,114.2 741.5,115 742.3,115.1 C743.1,115.2 743.8,114.7 743.9,113.9 C744.1,112.5 744.7,111.7 746.2,111.5 C747.1,111.4 747.2,110.6 747.1,109.8 C746.6,107.8 746.8,106.1 749.1,105.4 C749.8,105.2 750.2,104.5 750.1,103.7 C750,103.1 754.8,100.4 755.3,100.8 C755.6,101 755.8,101.5 755.8,101.9 C755.4,104.5 756.7,106.2 758.9,106.9 C760.9,107.5 763.1,107.6 764.6,109.3 C767.8,108.6 769.6,106.4 769.8,103.2 C769.8,102.4 769.6,101.5 769.9,100.7 C770.8,98.3 771.3,94.9 774.3,94.8 C777.8,94.7 779.1,93.1 779.7,90.2 C780.2,88 781.1,86.6 783.4,85.8 C786.6,84.7 787.8,81.8 787.1,78.3 C786.9,77.2 786.7,76.1 786.6,74.9 C786.5,74.1 786.6,73.2 787.4,73.1 C789.6,72.9 792,71.3 794.1,73.3 C795.8,74.9 797.4,74.8 799,73.3 C801.1,71.4 803.6,69.9 806.4,69.9 C809,69.9 809.7,68.3 810.4,66.4 C811.3,64.1 809.3,64.5 808.4,63.8 C808.2,63.7 807.9,63.2 808,63.1 C809.9,60.9 808.5,59.2 807.3,57.3 C807.1,57 807.5,56.3 807.8,56 C809.4,54.6 809.3,52.8 809.3,50.9 C809.3,35.5 809.3,20 809.3,4.6 C809.2,3.4 809.1,1.7 809,0.6 L709.1,0.6 C708.7,12 709,24.4 708.9,36.2 Z" id="Shape"></path>
            </g>
        </g>
    </g>
</svg>