<?xml version="1.0" encoding="UTF-8"?>
<svg width="555px" height="409px" viewBox="0 0 555 409" version="1.1" xmlns="http://www.w3.org/2000/svg" xmlns:xlink="http://www.w3.org/1999/xlink">
    <!-- Generator: Sketch 51.2 (57519) - http://www.bohemiancoding.com/sketch -->
    <title>Untitled</title>
    <desc>Created with Sketch.</desc>
    <defs></defs>
    <g id="Page-1" stroke="none" stroke-width="1" fill="none" fill-rule="evenodd">
        <g id="SLT-Website-Graphics" transform="translate(-4529.865234, -782.882812)" fill-rule="nonzero">
            <g id="Group" transform="translate(4519.000000, 0.000000)">
                <g transform="translate(11.179688, 783.875000)" id="Shape">
                    <path d="M252.3,333.1 C249.6,315.4 246.7,297.9 239.9,281 C234.2,266.8 237,251.4 238.8,236.4 C239.4,231.1 243.3,225.9 239.7,220.4 C243.4,203.9 249.9,188.4 258.5,173.8 C270,160.9 278.1,144.8 293.7,135.7 C295.2,134.7 296.7,133.8 298.3,133 C299.8,132.1 301.4,131.5 303.2,131.1 C304.9,130.9 306.6,131.7 308.3,131.6 C317.7,131.5 327.2,131.4 336.6,131.4 C357.2,131.4 379.3,114.5 388,92 C389.9,87.2 392.2,82.6 394.1,77.8 C400.1,62.4 412.4,56.7 427.8,56.7 C437.2,56.7 447,56.8 456,59.2 C467.5,62.3 474.8,58 481.8,49.8 C498.7,30.2 533.2,32.4 548.2,53.8 C555,63.5 552.5,92.4 543.1,105.6 C537.4,113.6 532.1,122.1 523.9,128.1 C517.4,132.8 514.5,140 515.1,147.4 C518.1,186 495.1,207.3 464.4,222 C450.8,228.5 444,238.4 439.5,251.2 C437.9,255.8 436.4,260.1 431.9,262.6 C429.9,260.4 430.1,257.6 429.6,255 C429.3,254 429,252.9 428.8,251.8 C428.3,249.6 428,247.4 428.8,245.3 C430,242.6 432.4,241 434.7,239.4 C438.5,236.7 438.2,232.2 439.6,228.4 C438.7,218.2 429.2,220.2 423.4,217.3 C417.9,214.6 410.4,215.3 408.5,207.3 C412.4,200.8 418.2,203.6 423.4,204.5 C431,205.9 437.9,209.7 445.2,212.2 C449.5,213.6 453.8,215.6 460,212.5 C444.4,206.2 430.3,200.5 415.4,197 C407.3,195.1 401.1,196.4 398.5,205.3 C394.3,208.2 389,209.3 385.1,212.7 C381.9,214.7 382.6,218.8 380.3,221.3 C377.5,223.9 374.1,224.5 370.5,224.8 C365.3,227.5 359.4,226.3 354.1,228.3 C351,231.6 353.1,233.5 356,235 C359.2,236.7 363.2,237.1 365.5,240.6 C365.7,241.8 365.5,243 364.8,244 C360.4,246.7 355.8,244.9 351.2,244.8 C346.5,244.6 341.8,244.2 339,249.2 C336.8,252.3 333.3,253.1 330.1,254.4 C325.9,256.1 322.1,258.4 318.3,260.7 C314.5,264.2 310.2,266.7 305.5,268.7 C300.8,271.5 295.5,274 304,278.9 C307.5,280.9 310.1,283.8 307.7,288.3 C305.1,291 301.6,291.2 298.3,291.8 C278.6,295.3 264.7,305.8 258.1,325.2 C257.1,328.5 256.3,332.1 252.3,333.1 Z" fill="#D4EDBE"></path>
                    <path d="M252.3,333.1 C258,302 278.9,289.1 308.4,286.7 C313.6,282.4 319.9,282.9 326,282.6 C333.2,282.9 339.6,285.6 345.8,289.2 C370.6,297.6 393.7,308.3 409.2,331 C411.2,333.9 415.3,335.7 418.7,337.4 C438.1,347.4 448.4,383 437.2,401.8 C434.4,406.5 430.5,407.1 426.1,405.1 C398.4,392.6 369.1,392.8 339.6,393.8 C330.8,394.1 323.1,390.7 317.4,384.7 C309.8,376.6 300.8,372.9 290.2,371.3 C268.3,367.9 255.7,355 252.3,333.1 Z" fill="#1E2A24"></path>
                    <path d="M300.5,134 C299.3,134.9 298.1,135.7 296.9,136.6 C285.5,134.3 278.2,123.1 264.6,122.5 C267.8,140 265.2,157.1 262.5,174.2 C255,183.7 252,195.2 248.1,206.2 C246.2,211.6 242.5,215.6 239.8,220.3 C236.8,224.2 232.9,226.6 228.2,228 C225.4,225.9 226.1,223.4 227.2,220.8 C228.6,218.5 231,217.3 232.9,215.7 C251.1,189.3 257,159.8 254.2,128.3 C254,126.6 254.3,128.9 253.4,127.4 C253,126.7 251.9,127.1 251.2,127.9 C249.1,130.5 246.7,132.8 245.1,135.7 C237.3,154.7 219.4,161.5 203.2,170.4 C198.4,171 193.6,169.1 188.8,170.1 C184.4,170.2 179.7,171.3 176.2,167.4 C175.7,166.1 175.8,164.9 176.4,163.7 C178.4,161.2 181.3,160.5 184.4,160 C221.9,154.1 238.4,137.8 244.6,100.3 C247,94.3 252,90.8 256.8,87 C269,77.3 273.7,63.9 273.3,42.5 C272.2,55.7 274,72.6 259,84.2 C256.9,83.9 255.7,82.5 254.9,80.7 C256.6,67.5 260.8,54.8 261.8,42 C262.1,43.2 261.8,44.8 261.3,46.4 C258.9,51.8 256.2,57 249.7,58.6 C236.5,52.2 238.8,38.7 235.8,27.7 C236.1,25.6 237,23.9 239,22.9 C243.1,22.5 241.6,18.6 242.9,16.5 C244.7,15.4 246.5,15.2 248.5,15.7 C253,17.6 253.7,21.4 254.4,24.5 C255.1,21.3 251.7,17.5 252.3,13.1 C253,8.3 254.7,6.9 260.3,7.3 C262.4,15.6 264.6,23.8 267.4,34.7 C268.6,30.4 269.1,28.3 269.8,26.2 C270.6,24 270.5,20.4 274.1,21 C277,21.5 277.2,24.5 277.6,27.2 C280.2,46.3 279.8,65 270.9,82.7 C269.8,84.9 267.5,86.8 268.9,90.2 C275.7,87.9 282.5,85.6 289.3,83.3 C290.1,84.4 290.4,85.6 290.1,86.9 C285.5,95.1 276.4,95.5 269.1,98.9 C265.1,101.1 259.8,101.2 256.7,107.1 C267.5,111.9 279.5,113.6 289.4,120.3 C294.4,123.6 301.5,125.5 300.5,134 Z" fill="#64B74E"></path>
                    <path d="M175.2,152 C194.6,155.3 225.8,136.3 232.1,117.6 C234.3,111 231.9,108.9 225.6,109.1 C217.9,109.3 210.1,109.7 202.4,109.2 C188.9,108.4 177.9,102.7 169.4,90.7 C179.9,92.9 189.2,94.9 198.5,96.8 C208.2,98.9 218,99.8 230.3,97.9 C200.3,80.9 190.4,52.7 178.6,25.7 C179.8,24.9 181,24.1 182.2,23.2 C192.7,37.3 203.1,51.4 213.6,65.5 C207.8,46 194.4,28.7 202.4,6 C216.5,21.3 221.3,41.9 235.9,57.1 C237.7,48.2 231.4,41.3 233.4,33.6 C232.8,30.9 234.5,30.3 236.6,30.2 C240.1,39 241.6,48.4 243.3,57.7 C241.1,64.7 234.4,62.7 229.7,64.5 C221.8,53.8 215.4,42.2 209.1,30.4 C212.6,40.1 217.7,49.1 222.6,58.2 C224.8,62.3 228.3,66 226.8,71.2 C224.4,74.6 220.9,75.8 217,75.7 C213.7,75.2 211.9,73 210.2,70.6 C217.2,81.3 227.7,87.5 239.2,92.4 C241.6,93.8 243.2,95.8 243.7,98.7 C242.6,134.2 213.3,160.9 176.2,160.3 C173.3,157.8 170.9,155.2 175.2,152 Z" fill="#17963E"></path>
                    <path d="M212.9,287.9 C191.1,303.6 166.2,305.5 140.6,303.8 C136.2,303.5 132.3,300.7 131.9,295.6 C131.5,289.8 135.3,286.9 140.2,285.7 C151.9,283 163.6,280.3 175.4,278.1 C183,276.7 190.3,274.4 197.4,271.5 C203.1,268.3 208.7,267.3 213.7,272.6 C218.8,277.9 215.1,282.9 212.9,287.9 Z" fill="#212C26"></path>
                    <path d="M175.2,152 C175.6,154.4 176,156.9 176.4,159.3 C177.1,160.9 177.4,162.6 177,164.3 C177,165.4 177.1,166.4 177.1,167.5 C182.5,186 181.3,202.9 165.5,216.4 C153.3,218.1 149.1,213.8 146.2,196.9 C144.8,184.4 148.9,172.8 151.7,160.9 C154.2,158.5 153.1,155.3 153.7,152.4 C154.8,146.8 156.1,141 163.1,140.6 C170.7,140 174.8,144.2 175.2,152 Z" fill="#232E28"></path>
                    <path d="M113.5,277 C109.1,275.8 104.5,274.9 104.5,269.2 C104.5,264.4 106.7,260.4 111.3,259.3 C131.7,254.5 152.2,249.9 172.7,245.8 C176,245.1 181.1,246.2 181.9,251.1 C182.8,256.9 181.7,262.6 175.7,265.3 C155.8,274.1 135.3,279.7 113.5,277 Z" fill="#212D27"></path>
                    <path d="M92.5,254.1 C89.6,253 85.2,252.5 85.2,247.4 C85.2,242.5 86.2,237.1 91.2,235.4 C109.5,229.3 127.8,223.2 147.2,222 C151.5,221.7 154.6,224.1 155.7,228.5 C156.8,232.9 156.7,237 152.8,240.3 C145.9,246.1 102.5,256.4 92.5,254.1 Z" fill="#212D27"></path>
                    <path d="M88,196.1 C86.5,199.7 86.9,201.5 91.4,200.3 C99.7,198 108,195.8 116.8,197.1 C121.3,197.8 125.4,199.3 126.4,204.3 C127.4,209 125.4,212.8 121.5,215.4 C106.2,225.8 89.2,229.1 71.1,226.5 C66.6,225.8 61.6,223.5 60.6,218.1 C59.1,210 65.7,208.2 71.2,205.8 C71.5,205.7 71.9,205.1 71.9,204.9 C71.7,204.2 71.3,203.5 70.9,202.9 C74.6,195.4 79.8,192 88,196.1 Z" fill="#26312B"></path>
                    <path d="M230.1,220.7 C229.5,223.2 228.8,225.6 228.2,228.1 C223,239.4 217.8,250.7 212.6,262.1 C210.6,271.2 205.9,272.7 198.6,267.3 C194.8,264.4 195.2,260.1 194.8,256.1 C191.7,245.8 199.3,237.4 199.7,227.8 C201,218.7 205.2,210.6 208.8,202.4 C214.1,190.3 223,188.5 232.9,196.4 C236.7,205 235.4,213.1 230.1,220.7 Z" fill="#212D26"></path>
                    <path d="M202.9,228.9 C202.4,238.6 198.1,247.2 194.8,256 C171.1,234.1 149.4,210 121.6,193 C114.4,188.6 107.7,182.9 98.7,182 C90.8,182 85.6,175.3 78.2,174.1 C70,168.5 60.8,165.8 51.1,164.5 C47.8,163.9 44.5,163.3 43.3,159.4 C40.7,156.1 35.1,157 33.6,152.3 C39.6,149.1 46.3,151.8 52.4,150.1 C57.6,150.4 62.2,152.6 67.2,153.7 C72.7,156 78.3,158.1 84.2,159.2 C88.6,161.7 92.7,164.9 98.1,164.9 C103.8,168.6 110.1,171.4 115.5,175.6 C116,180.4 119.1,182.2 123.5,182.6 C129.2,186.1 133,193.1 141,192.5 C144.6,193.5 146,197.2 149.2,198.7 C152.1,205.9 151,216.6 163.8,214.8 C167.7,215.5 171.7,215.7 175.6,216.4 C176.7,217.2 177.5,218.1 177.9,219.3 C183.4,236.1 184.9,236.6 200.3,227.2 C201.7,227 202.5,227.5 202.9,228.9 Z" fill="#6FD357"></path>
                    <path d="M115.5,175.6 C107,177.7 102.7,171.5 97.6,166.7 C87.6,164.1 88.1,154.3 84.3,147.5 C83.8,146.4 83.3,145.3 82.9,144.2 C80.1,138.2 79.4,131.7 79.3,125.2 C79.2,119.7 80.3,114.7 86.4,113.1 C91.9,111.7 94.6,116 98.2,119.1 C110.8,130.2 115,145.5 119.5,160.6 C121.2,166.3 120.5,171.6 115.5,175.6 Z" fill="#202C26"></path>
                    <path d="M140.9,194.2 C130.3,197.5 125.2,192.6 123.4,182.6 C123.7,168.5 124.2,154.4 124.2,140.3 C124.2,134.9 124.2,129.7 130.3,127.7 C136.9,125.5 139.3,130.9 142.1,135.1 C149,145.5 147.4,157.2 147.4,168.7 C147.5,177.8 149.7,187.4 140.9,194.2 Z" fill="#202B25"></path>
                    <path d="M345.7,289.1 C338.1,289.7 331,287 323.7,285.5 C324.1,280.7 327.3,280.6 330.7,281.2 C324.3,272.4 311.4,273.6 304.3,265.2 C309.4,264.2 313.2,261 316.8,257.5 C322.3,260 327.5,262.9 332,267 C334.8,269.6 337.9,272.1 341.5,273.6 C346.8,275.8 353.8,278.1 356.5,272.5 C358.9,267.7 351,266.3 347.8,263.2 C342.2,257.9 332.9,258.7 328.4,251.5 C331.4,250.4 334.4,249.2 337.4,248.1 C342,245.8 345.7,248.3 349.5,250.5 C377.1,266.2 377.1,266.2 406.5,267.3 C408.2,267.5 406.9,264.3 406.9,266.1 C406.9,266.8 406.7,267.1 406.3,267 C391.4,263.8 378.1,256.9 365.7,248.2 C364.2,247.1 363.9,245.4 364.7,243.6 C364.8,242.8 365,242.1 365.1,241.3 C371.5,237.9 376.8,242 381.9,244.5 C390,248.4 398.2,252 406.6,255.3 C415.6,258.8 424,258.9 431.7,252.4 C434.8,255.7 432.6,259.3 432.1,262.7 C426.3,269.9 418,271.9 409.5,273.5 C389.3,277.1 369.2,280.9 349.1,284.5 C346.2,285 342.7,284.6 345.7,289.1 Z" fill="#6FC979"></path>
                    <path d="M80.1,172.8 C89.1,170.2 92.6,178.7 98.6,182.1 C100,190.5 93.7,193.1 87.9,196.1 C81.1,195.5 76.6,200.7 70.8,202.8 C65.8,202.8 60.7,203.5 55.8,202.8 C49.9,201.8 42.5,202.6 39.9,194.9 C37.7,188.1 42.6,184 46.5,179.5 C56.8,172.2 67.9,169.6 80.1,172.8 Z" fill="#202C26"></path>
                    <path d="M84.3,161.1 C77.6,164.7 73.1,159.7 68,157 C58.2,149.9 47.5,143.8 43.3,131.3 C38.6,126.2 34.9,119.8 40.1,114.2 C45.4,108.4 52.1,112.6 57.5,116.2 C63.2,120 69.2,123.4 73.3,129.1 C78.4,133.7 82.8,138.9 85.7,145.2 L85.5,144.9 C87,150.5 91.6,156.2 84.3,161.1 Z" fill="#212D27"></path>
                    <path d="M53.2,152.1 C46.8,161.1 40.1,151.9 33.6,152.3 C24.1,146.4 14.7,140.4 5.2,134.5 C1.6,132.3 -1.1,129.4 0.6,125.1 C2.6,120.1 6.8,120.1 11.4,121.1 C21.7,123.3 30.5,128.8 39.7,133.5 C46.8,137.9 56.4,140.4 53.2,152.1 Z" fill="#243029"></path>
                    <path d="M288.8,86.9 C288.9,85.7 289.1,84.5 289.2,83.3 C301.8,76.8 315.4,73.2 329.7,68.3 C323.7,80.7 323.7,80.7 270.7,104 C284.4,112.4 299.8,117.6 308.4,131.7 C306.5,132 304.7,132.4 302.8,132.7 C293.5,121.9 280.8,116.8 267.9,112 C264.1,110.6 258.3,111.3 257.7,105.9 C257,99.3 263.6,99.9 267.5,98 C274.6,94.4 283.8,94.7 288.8,86.9 Z" fill="#64B74E"></path>
                    <path d="M43.3,159.4 C46.4,160.2 49.5,161 52.6,161.8 C59.7,170 56.1,174.1 47,176 C38.1,177 29.2,178.5 20.3,179 C14.2,179.3 8.3,175.9 7.7,170.1 C7.1,165 13.4,163.4 17.8,161.9 C26.1,159.1 34.7,159.4 43.3,159.4 Z" fill="#2A352F"></path>
                    <path d="M198.6,267.2 C204.2,268.1 209.4,267.5 212.6,262 C219.2,269.9 225.9,277.9 232.5,285.8 C234.9,288.7 236.2,292.2 233,295 C229.2,298.5 226.7,294.4 224.5,292.2 C221.2,288.9 219.5,282 212.9,287.9 C215.3,273.1 215.1,272.8 197.5,271.5 C197.9,270.1 198.3,268.7 198.6,267.2 Z" fill="#6FD357"></path>
                    <path d="M47.1,176.1 C53.2,173 56.4,168.8 52.7,161.9 C62.9,163.1 73.3,163.6 80.2,172.9 C69,175.1 57.8,177.3 46.7,179.5 C46.7,178.3 46.9,177.2 47.1,176.1 Z" fill="#F2ECE4"></path>
                    <path d="M236.2,31 C235.2,31.9 234.3,32.8 233.3,33.7 C227.4,23.8 229.7,13.1 229.5,0.9 C237.7,7.4 239.1,14.8 238.9,22.9 C238.4,24.9 237.9,26.9 237.4,28.9 C238,29.9 238,30.5 237.5,30.8 C237.1,31 236.6,31.1 236.2,31 Z" fill="#64B74E"></path>
                    <path d="M249.6,9.8 C249,12.4 248.5,14.9 247.9,17.5 C246.2,17.2 244.5,16.8 242.8,16.5 C243.4,11.2 240.6,5.7 243.4,0.2 C247.9,2.2 247.6,6.7 249.6,9.8 Z" fill="#64B74E"></path>
                    <path d="M271.1,174 C277.4,189.5 287.2,201.4 297.3,213 C303.3,219.9 301.8,237.3 295.1,242.4 C292.6,244.3 290.9,242.8 289.9,241.1 C285.3,232.8 276.8,228.9 270,223.2 C254.1,209.6 254.2,195 271.1,174 Z" fill="#366026"></path>
                    <path d="M297.1,159.3 C298.9,153 298.8,148.9 301.9,146 C305.2,142.8 308.2,141.4 310.5,147.1 C315.2,159.1 322.2,169.9 329.1,180.8 C334.6,189.7 334.3,198.7 329.9,208.7 C326.2,217.2 320.6,215.9 317.6,211.3 C306.9,194.8 292.7,179.1 297.1,159.3 Z" fill="#366026"></path>
                    <path d="M253.8,210.5 C261.2,224.5 276.1,230.2 285.1,242.4 C292.5,252.3 285.8,258 281,264.9 C274.8,273.9 270.9,265.7 266.7,262.8 C241.9,245.5 238.3,231.6 253.8,210.5 Z" fill="#5C9360"></path>
                    <path d="M437.5,63.8 C423.4,85.8 441.4,108 434.7,129.9 C434.8,117.1 421.6,116.9 416.2,108.9 C411.2,101.4 407.9,93.5 406.7,85.3 C404.1,67.5 417.5,58.4 437.5,63.8 Z" fill="#366026"></path>
                    <path d="M425,191.4 C441.7,166.6 459.2,184.6 476.2,187.9 C476.6,188 477.1,188.1 477.4,188.4 C480.5,192.7 491.9,190.3 489.1,196.7 C486.4,203 479.3,210.6 469.3,207.2 C454.7,202.2 440.2,196.9 425,191.4 Z" fill="#366026"></path>
                    <path d="M431.6,252.4 C426.6,263.1 419.1,265.3 405.4,259.4 C391.8,253.6 378.4,247.4 364.9,241.3 C360.8,240.3 356.8,239.1 352.7,238.3 C348.6,237.5 347.5,234.6 347,231.1 C346.3,226.7 348.3,224.9 352.5,224.9 C369.8,224.2 385.5,228.9 399.6,239.1 C409.3,246.1 421.2,247.6 431.6,252.4 Z" fill="#366026"></path>
                    <path d="M458.7,115.1 C457.9,122.4 451.8,124.8 446.8,125.7 C441.8,126.6 442.2,120 441.5,117 C439,105.3 437.1,93.3 436.1,81.4 C435.7,76.1 436.9,70.1 442.5,66.7 C446.2,64.4 449.9,64.6 453.6,66.2 C457.4,67.8 456.3,71.1 455.7,74 C454.1,82.7 456.8,91.1 457.6,99.6 C458.2,104.8 458.4,109.9 458.7,115.1 Z" fill="#366026"></path>
                    <path d="M364.6,243.7 C378.4,254.2 395.2,258.8 411.6,268.2 C392.4,272.1 375,277.2 359.1,261.9 C353,256.1 345.6,251.1 337.4,248.2 C338.4,245.6 335.5,241.4 341.9,241.2 C349.6,241 357.1,241.8 364.6,243.7 Z" fill="#366026"></path>
                    <path d="M279.9,276.9 C311.6,231.8 354.5,200 402.2,174 C384.3,193.7 361.1,206.9 340.1,222.8 C318.4,239.2 300.3,259.4 279.9,276.9 Z" fill="#33B546"></path>
                    <path d="M441.8,171.3 C449.1,163.9 456.5,162 465.2,163.9 C475.8,166.2 486.4,168.1 496.9,170.8 C500.3,171.7 508.5,168 505.6,177 C503.7,182.8 502.3,190.1 493,188.7 C481.3,187 470.6,182.4 459.8,178.1 C454.3,175.9 448.6,173.9 441.8,171.3 Z" fill="#366026"></path>
                    <path d="M396.3,205 C395.5,193.9 399.3,190.8 412.1,192.5 C430.7,194.9 446.9,205 464.9,209.4 C469.6,210.5 468.7,213.9 465.2,215.5 C459.5,218.1 454.3,220.7 446.9,217.7 C434.9,212.9 423.6,204.2 409.3,207.9 C404.1,210.8 399.8,209.9 396.3,205 Z" fill="#366026"></path>
                    <path d="M294.3,148 C287.6,171.9 298.6,190.3 310,208.6 C311.4,210.8 315.3,213.3 311.9,216.2 C309.2,218.6 306.7,216.3 304.2,214.1 C293.9,204.6 285.9,193.4 279.3,181.2 C272.9,169.6 279.1,156 294.3,148 Z" fill="#366026"></path>
                    <path d="M394,118.1 C390.7,98.7 392.1,90.1 401.5,76.2 C398,92.5 407.7,103.7 415.9,115.4 C421.6,123.5 422,131.2 416.3,139.2 C412.9,143.9 409.8,145.1 407.8,138 C405.7,130.4 403.3,123 395.1,119.7 C394,119.6 393.6,119.1 394,118.1 Z" fill="#366026"></path>
                    <path d="M481.7,146.6 C488.1,147.4 494.5,148.8 500.9,148.9 C505.8,149 509.9,149.2 510.1,155.1 C510.2,160.6 508.9,165.4 502.1,166.4 C493.7,167.7 484.4,168 478.7,162 C472.5,155.4 466.6,152.9 458.1,154.2 C456,154.5 453.4,153 454.4,150.3 C455.8,146.6 458.3,142.9 462.6,143.1 C469,143.4 475.4,144.8 481.8,145.8 C481.7,146.1 481.7,146.3 481.7,146.6 Z" fill="#366026"></path>
                    <path d="M338,190.2 C330.6,176.7 323.6,164.4 317,151.9 C313.5,145.3 313.7,139.1 322,136.2 C330.8,133.2 333.1,139.1 334.9,146 C337.1,154.3 338.8,163.1 342.9,170.4 C347.9,179.3 343.5,183.8 338,190.2 Z" fill="#366026"></path>
                    <path d="M372.1,185.1 C344.7,182.6 344.9,161 338.7,144.5 C337.3,140.9 338,136.8 343.1,135.3 C346.9,134.2 350.1,134.4 351.8,138.3 C358.6,153.4 366.8,168 372.1,185.1 Z" fill="#366026"></path>
                    <path d="M394,118.1 C394.1,118.8 394.5,119.4 395.1,119.7 C400.3,129 407.5,137.9 398.2,149 C394.3,153.7 391.8,154.3 387,149.6 C371.4,134.4 370.7,125.5 385.9,109.4 C388.6,112.3 391.3,115.2 394,118.1 Z" fill="#366026"></path>
                    <path d="M376.1,182 C373.6,167 361.9,158 359.8,144.3 C358.8,138.1 356.7,131.8 364.5,129.1 C372,126.5 370.3,134.7 373.1,137.7 C376.5,141.5 379,146.2 381.9,150.5 C389.8,162.4 388.8,169.6 376.1,182 Z" fill="#366026"></path>
                    <path d="M396.3,205 C400.6,206 405,206.9 409.3,207.9 C418.6,214.6 430.2,215 440.5,219.1 C451.6,223.4 447.1,226 441.5,230.2 C437.2,233.5 432.5,232.2 427.8,231.6 C414,229.8 401.6,222.9 388.1,220.1 C383.8,219.2 378.4,216.9 382.1,210.2 C387.1,209.2 389.8,201.8 396.3,205 Z" fill="#366026"></path>
                    <path d="M514.9,127.1 C508.5,145.6 499.6,150.3 482.7,142.2 C479,140.4 467,145.7 470,131.4 C471.4,124.5 473.4,124.4 477.8,123.8 C490.5,121.8 502.1,128.6 514.9,127.1 Z" fill="#366026"></path>
                    <path d="M328.4,251.5 C340.9,253.1 350.6,260.5 360.4,267.5 C366.2,271.6 366.6,275.3 358.5,277.7 C350.6,280 342.9,280.9 336.6,275 C330.2,269 321.4,265.7 316.9,257.5 C320.6,255.5 324.5,253.5 328.4,251.5 Z" fill="#5C9360"></path>
                    <path d="M369.5,220.8 C373.1,221.9 376.6,221.6 380.1,220.4 C383.3,218.4 386.8,219 390.1,219.9 C404.1,223.9 417.8,228.9 432.3,231.6 C438.8,232.8 441,236.8 436.2,242.7 C434.2,244 432.2,245.3 430.2,246.6 C424.6,250.1 419.3,249.2 413.3,246.8 C399.4,241.4 387.5,231.7 372.9,227.8 C369.8,227 367.8,224.4 369.5,220.8 Z" fill="#366026"></path>
                    <path d="M532.9,98.6 C530.9,101.9 527.2,101.9 523.7,103.3 C527,107.1 531.7,104.6 535.1,106.4 C526.4,122.4 509.6,127.6 490.9,120.2 C493.9,113.4 508.3,117 505,104.5 C508.6,104.5 512.2,104.5 517.4,104.5 C501.9,99.1 500.9,96.8 508.5,88.3 C513.9,98.5 525.6,93.3 532.9,98.6 Z" fill="#366026"></path>
                    <path d="M532.9,98.6 C527.4,99.1 521.7,100.4 516.3,99.8 C510.2,99.1 508.3,94.1 508.6,88.3 C518.3,80.6 531.9,82.6 541.7,74.6 C546.1,71 547.8,75.2 547.4,79.1 C546.7,88.6 542.1,95.4 532.9,98.6 Z" fill="#366026"></path>
                    <path d="M248.6,254 C255.7,259.9 263.4,265.4 270.2,272 C275.2,276.8 271,281.6 268,285.8 C263.9,291.5 260.4,287 257.3,284.6 C249.5,278.7 243.7,271.3 242.6,261.3 C242.1,257.4 242.1,252.9 248.6,254 Z" fill="#5C9360"></path>
                    <path d="M304.3,265.2 C315.6,266.8 325.8,270.7 334.2,279.4 C332.1,284.1 326.4,282.4 323.8,285.5 C318.7,286.7 313.6,287.6 308.4,286.6 C307,285.1 305.6,283.4 304.1,282 C300.8,279.1 293,282.1 293,276 C292.9,270 299.8,268.2 304.3,265.2 Z" fill="#5C9360"></path>
                    <path d="M478.2,81.9 C479,68.9 477.6,55 492.3,46.3 C494,53.8 495.7,61 497.4,68.2 C498.6,73.4 499.1,79.2 494.5,82.4 C489.5,86 483.4,86.5 478.1,81.7 L478.2,81.9 Z" fill="#366026"></path>
                    <path d="M478.1,81.8 C476.6,90.2 466.5,90.8 463.9,100.7 C459.3,90.1 459.1,82 461.2,73.7 C462.4,69 465.5,65.7 470,65.6 C475.4,65.5 474.9,70.3 474.6,74.2 C474.4,77.5 475.7,80 478.2,82 C478.2,81.9 478.1,81.8 478.1,81.8 Z" fill="#366026"></path>
                    <path d="M436.2,242.7 C438.2,237.5 436.5,234.4 430.9,233.6 C413.4,231.3 397.1,224.4 380.1,220.4 C379.5,216.7 377.1,212.7 382,210.2 C381.7,213.7 383.2,216 386.8,216.6 C405.3,219.9 422.4,228.8 441.4,230.2 C441.3,235 442.7,240.5 436.2,242.7 Z" fill="#6FC979"></path>
                    <path d="M369.5,220.8 C371.9,230.1 381.3,228.2 387.3,231.3 C400.8,238.2 413.6,247.7 430.1,246.6 C430.6,248.5 431.1,250.5 431.6,252.4 C419.3,254.3 408.7,248.9 399,242.8 C384.6,233.7 369.3,227.6 352.5,224.9 C357.9,222.1 364.9,226.1 369.5,220.8 Z" fill="#6FC979"></path>
                    <path d="M270,98.5 C266.4,100.5 261.5,100.1 258.9,105.3 C273.5,114.4 293.6,115.1 302.7,132.6 C301.9,133.1 301.2,133.5 300.4,134 C291.3,122 277.8,117.6 264.3,113.4 C259.7,112 251.8,113.6 251.5,107.3 C251.2,100.4 258.8,98.8 264.4,96.8 C265.6,96.4 266.9,96.3 268.2,96 C268.9,95.7 269.6,95.4 270,95.8 C271.1,96.6 270.6,97.6 270,98.5 Z" fill="#D4EDBE"></path>
                    <path d="M521.1,76.4 C523.8,68.5 531.3,65.4 533.7,58.1 C535.1,54 537.8,51.2 542.5,54.4 C546.3,57 547,60.5 545,64.5 C540,74.5 529.5,73.4 521.1,76.4 Z" fill="#366026"></path>
                    <path d="M516.1,53.7 C516.8,46.8 518.3,42.1 525.6,44 C529.5,45 534.3,46.2 531.5,51.2 C528.3,56.9 524.4,65.3 517.3,64.3 C510.5,63.3 518.1,56.4 516.1,53.7 Z" fill="#366026"></path>
                    <path d="M503.9,65 C496.7,48.8 497.7,42.9 507.7,39.8 C510.9,38.8 516.3,37.9 513.7,43.5 C510.6,50.4 512,59.4 503.9,65 Z" fill="#366026"></path>
                    <path d="M247.2,282.3 C255.6,287.4 261.8,290.8 259.7,299.4 C259.1,302 256.5,305.2 254.6,303.8 C248.3,299.2 249.2,291.5 247.2,282.3 Z" fill="#5C9360"></path>
                    <path d="M340.3,333.8 C316.6,325.8 292.3,320.9 267.5,317.8 C293.9,312.9 317.9,320 340.3,333.8 Z" fill="#6FC979"></path>
                    <path d="M202.2,168.2 C211.6,177.4 206.3,188.8 206.1,199 C205.9,208.8 203,218.6 201.3,228.4 C197.7,235.8 190.9,239.5 183.7,237.6 C173.4,234.9 176.4,224.6 174.8,217.1 C171.6,206.6 181.2,173.9 189.3,167.7 C193.7,165.6 198,165 202.2,168.2 Z" fill="#202C26"></path>
                    <path d="M217.2,74.5 C220.2,73.4 223.2,72.2 226.3,71.1 C228.3,69.2 226.8,65.2 230.5,64.4 C234.1,62.5 237.6,60.6 241.2,58.7 C248.3,65.4 248.8,73.9 247.9,82 C251.5,74.7 243,65.9 249.5,58 C252.8,54.2 256.2,50.4 259.5,46.6 C263.3,58.3 257,68.7 255.4,79.7 C256.3,81.1 257.2,82.5 258.1,83.9 C258.9,87 258.5,89.6 255,90.7 C255.1,96.5 250.1,97 246.5,98.9 C244.7,100.3 243,100.2 241.4,98.6 C240.9,96.3 239.4,95.3 237.3,94.9 C230.1,88.5 218.8,86.3 217.2,74.5 Z" fill="#17963E"></path>
                    <path d="M241.3,98.7 C243,98.8 244.7,98.9 246.4,99 C251.2,128.7 222.8,157.5 194.8,162.5 C188.9,163.6 182.9,163.7 176.9,164.3 C174.6,162.9 175.5,161.1 176.3,159.3 C196,154.9 214.4,149.1 228.7,132.8 C238,122.4 237.8,110.2 241.3,98.7 Z" fill="#D4EDBE"></path>
                    <path d="M249.4,126 C250.9,123.3 248.6,118.2 253.6,118 C256.3,117.9 257.4,121.4 257.6,123.9 C260.8,158.2 255.8,190.6 234.4,218.9 C227.8,216 233.3,211.8 233.2,208.2 C235.2,203 237.1,197.8 239.6,192.8 C247.6,177.1 250.7,160.3 249.3,142.8 C248.9,137.2 248.3,131.6 249.4,126 Z" fill="#D4EDBE"></path>
                    <path d="M249.4,126 C257.1,155.9 250.8,183.3 234.4,208.9 C232.4,205.2 233.7,201.2 233.5,197.3 C244.3,179.5 249.1,160.4 245.9,139.5 C245.5,137 246.4,134.2 242.5,134.1 C243.2,130.1 247.3,128.9 249.4,126 Z" fill="#5C9360"></path>
                    <path d="M249.5,58 C249.6,67.7 253.4,77.4 247.9,89.2 C245.4,77.8 243.2,68.3 241.1,58.7 C239.4,49.5 237.8,40.2 236.1,31 C236.5,30.3 236.9,29.6 237.3,28.8 C243.1,37.9 241.6,49.9 249.5,58 Z" fill="#D4EDBE"></path>
                    <path d="M255,90.7 C256,88.4 257.1,86.2 258.1,83.9 C271.1,70.7 271.9,53.5 273.2,36.3 C275.9,52.7 274,68.3 265.5,82.5 C263.1,86.5 260.8,91.1 255,90.7 Z" fill="#D4EDBE"></path>
                    <path d="M255.4,79.7 C253.1,68.2 259.8,57.8 259.5,46.6 C261,42.2 257.5,37.1 262.2,32 C263.7,49.2 266.1,65.3 255.4,79.7 Z" fill="#6FC979"></path>
                    <path d="M247.2,22.1 C249.5,32.6 253.3,39.6 251.4,47.8 C245,41.3 244.8,40.5 247.2,22.1 Z" fill="#D4EDBE"></path>
                    <path d="M270,98.5 C269.4,97.7 268.8,96.9 268.2,96 C275,93 281.9,89.9 288.7,86.8 C287.4,98.5 276,94.1 270,98.5 Z" fill="#D4EDBE"></path>
                    <path d="M233.5,197.3 C237.1,200.9 234.2,205 234.4,208.9 C233.5,212.2 230.9,215.6 234.4,218.9 C233,219.5 231.5,220.1 230.1,220.6 C230.6,213.1 231.1,205.5 231.6,198 C232.2,197.8 232.9,197.5 233.5,197.3 Z" fill="#17963E"></path>
                    <path d="M230.5,64.4 C227,65.3 233.9,72.8 226.3,71.1 C209.9,46.5 205,35 205.2,18.5 C215.6,34.4 224.4,48.6 230.5,64.4 Z" fill="#6FC979"></path>
                    <path d="M217.2,74.5 C223.9,81.3 230.5,88.1 237.2,95 C220.7,89.8 209.6,78.7 202,61.9 C209.3,64.4 211.9,71.2 217.2,74.5 Z" fill="#6FC979"></path>
                    <path d="M188.2,101.9 C197.8,100.6 205.4,101.8 214.4,103.7 C205.2,106 197.5,105.7 188.2,101.9 Z" fill="#6FC979"></path>
                </g>
            </g>
        </g>
    </g>
</svg>