<?xml version="1.0" encoding="UTF-8"?>
<svg width="631px" height="967px" viewBox="0 0 631 967" version="1.1" xmlns="http://www.w3.org/2000/svg" xmlns:xlink="http://www.w3.org/1999/xlink">
    <!-- Generator: Sketch 51.2 (57519) - http://www.bohemiancoding.com/sketch -->
    <title>Untitled</title>
    <desc>Created with Sketch.</desc>
    <defs></defs>
    <g id="Page-1" stroke="none" stroke-width="1" fill="none" fill-rule="evenodd">
        <g id="SLT-Website-Graphics" transform="translate(-6084.865234, -0.882812)" fill-rule="nonzero">
            <g id="Group" transform="translate(4519.000000, 0.000000)">
                <g id="Shape">
                    <g transform="translate(1572.000000, 1.000000)">
                        <path d="M245.8,259 C242.7,254.7 242.3,248.2 235.9,246.5 C234.1,243.7 240.2,243.7 237.9,240.8 C234.5,234.3 232.1,227.1 225.4,222.9 C223.1,219.9 227.3,217.4 226,214.5 C223.3,201.2 212.1,198 201.6,194 C201.7,190.6 203.7,191.2 205.8,192.1 C208.7,191.8 210.8,195.6 214.5,193.3 C211.5,187.1 210.4,179.8 203.4,175.9 C200.5,174.7 196.5,173.9 201.5,170 C202.9,168.9 202.6,167.1 200.7,166.2 C197.2,151.6 184.1,151.2 173.2,147.5 C173.3,144 175.3,144.6 177.5,145.5 C181.4,146 185.1,148.4 189.9,146.9 C186.5,136.6 181.4,129 169.3,129.2 C169.2,125 172.4,126.8 174.3,126.6 C177.7,126.2 179.2,124.9 177.3,121.5 C171.8,114.8 170.2,104.3 159.1,103.1 C158.7,101.2 159.2,100.1 161.4,100.9 C166.7,100.2 162.7,97.6 162.2,96.2 C159.5,87.8 151.6,81.6 151,71.1 C157.1,73.2 157,78.8 159.4,82.4 C161.8,86 163.2,90.3 165.5,94 C167.7,97.5 169.6,104.2 174,102.3 C179.3,99.9 177.2,93.5 175.3,88.7 C174.2,86 172.7,83.5 171,80 C179.6,86.2 182.7,93.4 178.5,102.7 C174.2,112.2 181.3,117.1 184.6,123.5 C186.3,126.8 189.2,124.5 190.9,122.1 C195.8,114.9 196.3,107.1 194.3,98.9 C193.5,95.4 191,92.3 192,88.2 C201.1,98 201.8,113.9 193.9,126.2 C190.8,131 193.8,147 198.8,149 C204.9,151.5 207.4,145.8 208.8,141.8 C213.6,128.3 219,114.7 210.9,98.4 C219,103.6 220.9,110.4 220.2,116.2 C218.7,128.1 216.4,140.2 208.8,150.2 C204.4,156.1 205.8,167.3 211.4,171.7 C213.5,173.3 215,172.5 216.7,171.2 C221.2,167.9 224.3,163.7 225.9,158.3 C230.1,144.9 236.9,132.1 235.1,117.2 C238.2,125.7 240,134.6 236.8,142.9 C232.2,155 228.6,167.6 219,177.5 C212.7,184 220.9,190.1 223.8,194.8 C226.9,199.8 230.3,193.5 232.6,190.9 C243.7,178 251,163.1 254.2,146.2 C258.3,167.8 245.8,182.7 233.5,197.3 C228.8,202.9 228.5,214.3 234.8,217.7 C240.4,220.7 241.7,214 245.4,212.3 C247.7,211.9 248.7,212.8 248.1,215.2 C242.3,221.6 237.3,227.6 243.2,237.2 C247.6,244.3 249.3,245.4 254,238.3 C261,227.7 268.8,217.9 278.5,207.2 C278.1,215.6 273.5,220.1 269.8,224.6 C265.4,230.1 261.6,236.1 257.1,241.3 C250.5,248.9 251.1,255.5 255.6,263.1 C256.9,264.7 261.1,263.3 260,267.4 C258.5,273.9 261.5,277.5 267.6,279 C269.6,278.4 270.2,279.3 269.8,281.1 C270,282.4 270.1,283.7 270.5,284.9 C271.4,287.4 273.2,290.3 270,291.8 C267.4,293 264.8,290.8 263.3,288.6 C257.2,279.6 249.5,272.1 241.5,264.9 C239.6,260.6 248.4,263.5 245.8,259 Z" fill="#6FC979"></path>
                        <path d="M317.6,83.2 C324.5,71.1 332.2,59.8 342.7,50.2 C348.4,45 343.6,36.8 340.2,31.1 C336.6,25.1 334.9,18.9 334.2,12.2 C333.9,9.4 334.3,6.8 337.2,5.3 C340.5,3.6 343,4.9 345.2,7.4 C349.3,11.9 352.6,16.8 353.5,23.1 C354.8,31.9 357.2,40.5 365.4,45.4 C370.3,48.3 365.6,54.9 371,56.9 C372.6,56.1 373.5,57.1 374.2,58.2 C376.1,63 377.8,55.9 379.7,58.1 C381.7,59.1 382.8,60.4 380.9,62.4 C375.7,66.5 375.9,71.3 379.2,76.5 C384.7,85.3 389.4,94.5 393.2,104.2 C394,106.1 394.6,108.8 396.8,108.3 C408.2,105.8 420.2,109.9 431.3,104.9 C433.9,106.4 434.7,108.6 434.1,111.4 C425.2,113.7 416,113.6 406.9,114.3 C403.8,114.5 399.7,113.6 400.3,119.1 C400.2,120 399.9,120.8 399.2,121.4 C395.7,121.5 391.7,119.6 389,123.6 C387.2,123.9 386.1,123.4 386.9,121.3 C387.7,118.8 389.3,115.4 384.3,117.3 C373.2,121.5 354.6,152.5 356.2,164.3 C356.6,167 356.1,169 354.3,170.6 C346,178.8 342.6,189 342.5,200.4 C338.6,200.5 339.8,198 340.2,195.9 C340.7,192.3 340.3,188.4 341.7,185.3 C346.2,175.8 344.6,167.7 337.7,160.3 C338.3,159.6 339.1,159.1 340,158.9 C342.5,158.9 344.3,160.1 346,162.3 C343.1,157.3 337.8,154 337.4,147.8 C337.8,146.3 338.8,145.4 340.4,145.3 C350.2,150.4 350.4,150.5 355.1,140.8 C359.6,131.6 366.6,124.3 373.3,116.8 C377.1,112.6 378.2,109.5 374.6,104.7 C368.8,96.9 364.9,87.9 360.9,79 C355.7,67.4 351,66.2 341.3,74.2 C339.8,75.5 338.5,77.1 336.6,77.9 C335,78.1 334,77.3 333.2,76 C332.1,73.1 330.8,73.5 329.3,75.7 C326.4,79.7 325.5,84.9 321,87.8 C317.7,88.2 317.4,85.9 317.6,83.2 Z" fill="#33493C"></path>
                        <path d="M421.7,244.7 C423.2,242.2 424.2,238.7 426.4,237.2 C436.3,230.5 434.8,222.5 431,213 C425.2,198.4 432.8,181.5 447.2,176.8 C434.1,188.5 433.5,202.2 437.9,217 C439.4,222.2 441.9,222.7 445.7,219.3 C452.1,213.5 458.6,208.9 454.6,197.6 C451,187.4 457.9,178.8 469.7,175.3 C465.6,181.5 460.2,186.5 460.1,193.9 C460,196.9 459.6,200.3 462.8,202 C465.7,203.5 467.8,201.1 469.9,199.5 C472.6,197.5 475.1,195.3 478,193.6 C481.7,191.4 483.7,189.2 481.1,184.8 C479,181.2 480.1,178.4 484.7,177.1 C486.5,180 483.5,183.8 486.4,186.3 C489.5,187.6 493,188.8 488.6,192.7 C497.1,199.3 506.7,192.9 516.5,194.8 C511.7,199.3 506.2,198.8 501.4,198.3 C486,196.6 472.8,199.9 463.3,214.6 C483.6,216.7 502.4,208 522,205.4 C522.4,208.8 520.3,209.8 518.5,210.1 C502.6,212.5 487.4,220.2 471.1,218.8 C454.3,217.4 446.3,229.1 436.5,239.5 C464.7,236.2 492.4,231.2 520,225.1 C492,238 461.7,241.2 431.7,245.4 C428.3,245.8 424.9,247.9 421.7,244.7 Z" fill="#6FC979"></path>
                        <path d="M387.4,275.3 C380.5,276 373.9,269 366.3,274.5 C370.1,277.6 374.5,278.6 378.9,279.5 C379,283.1 377,282.2 375,281.4 C366,280.5 357.8,273.3 348.1,278 C348,278.1 347.9,278.5 348,278.7 C348.1,279 348.4,279.2 348.6,279.5 C348.8,283.4 346.4,281.9 344.5,281.5 C340.9,282.6 332.6,275.5 335,287.1 C335.5,289.5 333.1,288.4 332.2,288.2 C317.8,284.5 308.4,294.9 296.9,299.8 C304.8,302.6 312.3,296.7 320,299.5 C318.3,303.9 318.5,312.3 320.2,322.7 C320.8,326.2 322.4,331.3 318.9,332.7 C314.7,334.3 313.8,329 311.9,326 C309.8,322.8 309.4,319.2 308.4,315.7 C305.9,307.2 294.7,304.8 287.9,311 C284,311.4 285.8,308.7 285.8,307 C285.8,306.4 285.9,305.9 286.1,305.3 C286.2,302.3 287.5,300.3 290.5,299.5 C295.7,294.5 301,290 308.4,287.9 C315.8,285.8 316.6,277.9 318.4,271.6 C320.1,265.9 320.7,259.9 327.5,253.6 C324.7,261.4 322.4,266.8 321,272.5 C320.4,275 317.5,279 321.1,280.5 C325,282.1 326.6,278.1 327.7,274.9 C328.1,273.6 328.6,272.4 329,271.1 C333.8,270.5 330.1,276 333,276.7 C341.3,276.9 340.4,269.5 342.9,264.9 C346.5,264.9 345.8,267 345.1,269.2 C346,274.5 348.7,272.3 351.4,270.9 C355.5,268.7 357.2,264.8 359.3,261.1 C362.7,261.2 362.2,263.1 361,265.1 C367.2,269.1 371.4,266.1 375,261 C379.2,255 383.4,249 390.9,246.5 C393.1,245.6 393.4,246.7 393.1,248.5 C388.5,252.8 383.3,256.3 379.5,262.6 C386.2,263.2 391.9,263.7 396.5,258 C400.3,253.3 405.4,250 411.4,248.5 C415.5,247.6 419.6,246.7 424.3,249.5 C420.3,254.6 413.9,253.5 408.7,257.6 C417.2,258 423.9,249.3 431.6,255.4 C431.7,259.1 427.3,259.3 426.3,262.1 C426.1,265.6 424.1,266.4 421.1,265.4 C415.8,265.4 410.5,265.4 404.7,265.4 C405.9,270.6 412,268.4 414.3,272.1 C408.4,274.2 403.7,271.1 399.2,269 C394.9,267 390.6,266.6 386.5,268.1 C382.6,269.5 383.3,271.9 387.1,273.2 C387.6,273.6 387.8,274.1 387.7,274.6 C387.7,275.1 387.5,275.3 387.4,275.3 Z" fill="#6FC979"></path>
                        <path d="M486.3,376.3 C505.2,384.4 521.1,396.9 535.9,411.1 C513,405 490.7,397.2 469.3,386.8 C476.1,398.3 485.4,406.9 496.7,413.5 C476.7,413.2 464.8,399.4 450.9,385.2 C450,401.7 444.9,416.1 450.2,432 C443.2,431.1 441.4,426.3 439.5,422.1 C433.4,408.8 434.7,395.3 439,381.8 C440,378.6 440.9,375.4 441.9,372.3 C443.6,367.2 446,369.3 448.4,371.6 C448.1,379 443.4,385.1 442.6,392.3 C442,397.2 440.4,401.9 441.2,406.7 C444.2,397.4 443.1,387.1 447.9,378 C451.8,376.6 452.8,381.2 455.8,381.7 C459.8,386.1 464.4,390.1 467.5,394.5 C465.4,389.3 457.8,387.2 457.4,380 C458.8,377.1 461.3,375.7 464.4,375.2 C471.9,376 476.3,382.4 482.5,385.4 C491.7,389.9 501.3,393.3 509.5,396.5 C502.3,390.9 490.4,389.8 485.3,378.9 C485.3,377.9 485.6,377 486.3,376.3 Z" fill="#D59C6C"></path>
                        <path d="M341.1,159.8 C340.1,159.9 339.1,160 338.1,160.1 C325.6,149.1 316.4,135.6 308.8,120.9 C303.6,110.9 292.3,108.8 284.5,102.1 C281,99.1 276.3,97.5 272.5,94.7 C269.3,92.4 265.8,89.8 268.8,84.8 C271.4,80.4 274.6,80.5 279.1,81.9 C290.1,85.5 299.8,91.3 309.1,99.5 C312.1,93.8 314.9,88.5 317.6,83.2 C318.5,84.5 319.4,85.8 320.2,87.1 C322.7,91 319.4,93.9 318.5,97.4 C321.3,92 323.2,86.3 326.5,81.3 C328.5,78.3 329.9,74.5 334.4,74.4 C335.1,75.3 335.9,76.1 336.6,77 C339.1,84.3 333.3,88.8 330.3,94 C319.2,113.2 319.3,115.5 334.2,132.4 C337.5,136.2 342.4,139.5 340.4,145.9 C339.9,146.6 339.3,147.3 338.8,148 C330,145.4 326.8,137.3 321.9,130.9 C319.3,127.5 317.1,123.7 316.2,122 C321.4,130.4 327.2,141.2 336.4,149.7 C339.4,152.3 342.6,155 341.1,159.8 Z" fill="#46604E"></path>
                        <path d="M449.8,339.4 C458.5,318 471.8,306.4 491.1,305.3 C477.3,317.5 467.4,330.6 461.7,347.6 C478.9,331.3 498.5,324.2 522.7,330 C517.8,335.8 511,335.5 505.5,337.5 C492,342.4 478,346.3 468.2,358 C468.6,358.9 468.4,359.8 467.7,360.5 C466.3,361.2 465,361.1 463.8,360.1 C463.6,359.1 463.8,358.3 464.4,357.5 C469.6,342.6 483.8,340.4 493.9,335.4 C483.5,340.1 469.3,342.8 464.2,358 C457.1,363.3 456.8,363.1 452.7,351.8 C453.9,339.4 462.7,331 467.4,322.3 C461.2,326.5 459.9,336.7 452.7,342.3 C451,342 450.1,341 449.8,339.4 Z" fill="#D7A275"></path>
                        <path d="M433.7,111.7 C433,109.4 432.2,107.1 431.5,104.9 C432.3,99 433.2,93.2 434,87.3 C435.9,87 436.8,88.1 437.5,89.5 C437.8,93.6 438.9,97.7 436.1,101.6 C439.5,99.7 436,93.9 440.9,92.9 C443.6,94.2 442.7,96.2 442.2,98.3 C442.5,103.2 445.4,102.5 449,102.2 C461.4,101.2 473.5,96.1 486.2,99.6 C486.7,100.1 486.9,100.6 486.9,101.2 C486.9,101.8 486.8,102.1 486.7,102.1 C485.3,104.5 484.3,107.2 481.5,108.5 C479.1,108.5 476.8,108.7 474.7,107.1 C463.9,101.1 454.5,108.2 442.2,109.5 C448,112.4 452.4,109.8 455.7,112.7 C456.2,113.2 456.4,113.8 456.2,114.4 C456.1,115 455.9,115.3 455.8,115.3 C449.5,117.2 453.7,119.1 455.8,120.9 C464.5,128.2 473.7,135 478.6,145.9 C481,151.2 482.8,156.5 482.9,162.3 C482.9,165.7 481.9,169 477.9,170.1 C473.8,171.2 471.9,168.6 470.1,165.5 C466.3,159 466.6,151.2 463.4,144.5 C461,142.1 461.2,139.3 462.1,136.4 C456.6,130.5 451.9,123.8 443.5,121.6 C442.2,122 440.9,122.1 439.7,121.5 C434.7,117.8 429.3,119.8 424.2,120.7 C415.9,122.2 407.6,123.5 399.2,121.4 C399.2,120.7 399.3,119.9 399.3,119.2 C407,114.7 416,116.7 424.2,114.4 C427.6,113.6 431.2,114.4 433.7,111.7 Z" fill="#33493C"></path>
                        <path d="M353,327.6 C345.5,332 342.1,340.2 335.9,345.8 C334.1,347.5 332,350.7 329.4,347.7 C327.3,345.2 327.9,342 331.1,340 C340.9,333.6 342.2,325.4 337.4,315 C335.2,310.2 332.4,304.8 335.4,296.4 C338,304.6 340.3,310.6 341.9,316.8 C343.8,324.7 346.9,323 350.9,318.5 C354.9,314.1 357.8,309.6 354.7,303.3 C353.9,301.7 352.8,299.6 355.5,297.2 C360.1,307.1 364.7,304.5 369.5,297.2 C372,293.4 376.1,295.4 379.4,294.8 C380.7,299.9 370.4,299.4 375.3,305.4 C376.4,309.4 372.5,307.7 371.2,309 C365.5,312 361.1,316.4 357.4,321.6 C356.1,323.8 355.7,326.6 353,327.6 Z" fill="#6FC979"></path>
                        <path d="M449.8,339.4 C450.6,340.3 451.4,341.1 452.2,342 C456,344.7 451.1,349 454.1,351.9 C457.8,353.3 455.9,364.2 464.2,357.9 C464.2,358.6 464.2,359.3 464.3,360 C464.7,362.1 463.6,362.9 461.6,362.8 C462.5,363.1 463.5,363 464.4,363 C469.4,363.1 473.6,366.1 478.4,367 C484.5,366.9 486.8,370.3 486.6,375.9 C486.6,375.9 486.3,376.2 486.3,376.2 C486.3,377 486.3,377.9 486.3,378.7 C479.6,380.6 474.6,375.9 468.9,374.3 C466.4,373.6 463.7,371.7 464.1,376.6 C462.2,377.7 460.4,378.8 458.5,380 C456.8,379.9 455.5,380.9 454.3,381.9 C450.5,383.1 451.3,379.2 449.9,377.8 C447.6,376.4 449.5,373.6 448,371.9 C446,371.3 443.9,368.9 442,372 C441.5,372.1 440.9,372.2 440.3,372.2 C436.7,372.9 435.5,371.3 435.9,367.9 C436.5,364.9 447.2,366.5 439.6,359.7 C437.4,357.5 433.9,357 432.1,354.3 C431.2,352.7 430.5,350.9 430.1,349.1 C429.8,347.7 429.7,346.3 430.1,344.8 C430.8,343.1 431,340.9 433.6,341 C438.9,344.1 438.9,351.7 445.3,354.6 C447.1,351.3 444.9,348 445.7,345 C446.1,342.6 447.5,340.7 449.8,339.4 Z" fill="#CB884F"></path>
                        <path d="M290.1,253.4 C292.7,257.7 291.3,265.9 297.7,265.9 C303.5,265.9 306.1,258.9 308.6,253.8 C315.7,239.2 318.9,223.8 318.7,207.5 C325.6,218.1 323.4,229.8 321.5,240.8 C318.7,256.2 306.4,266.6 298.3,279.1 C297.4,280.4 294.7,281.9 294.4,280.3 C293.7,275 284.5,275.7 286.8,268.9 C287.2,267.7 287.7,266.4 288.2,265.2 C288.4,261.1 283.8,256.3 290.1,253.4 Z" fill="#6FC979"></path>
                        <path d="M478.5,369.9 C472.3,367.8 466.1,365.8 459.6,363.6 C461.4,362.2 462.8,361.1 464.3,360 C465.7,359.9 467.1,359.8 468.5,359.7 C469,359.7 469.4,359.8 469.9,359.8 C478,359.3 486,361 494,361.4 C498,361.6 501.8,363.1 505.5,364.3 C503.4,362.4 499.3,364.2 497.7,360.6 C497.6,359.6 497.8,358.7 498.5,358 C509.8,358.8 519.8,363.2 528.8,369.8 C530.3,370.9 532.8,371.9 531.3,374.3 C530.3,375.9 528.4,375.3 526.7,374.9 C522.5,373.9 518.3,373.1 513,371.9 C515.2,375.3 516.7,377.7 519.3,381.8 C510.4,379.5 503.5,377.7 496.5,375.9 C495.7,371.7 499.4,372.9 501.4,371.4 C493.5,373.3 486.5,365.9 478.5,369.9 Z" fill="#DCAF88"></path>
                        <path d="M387.2,121.2 C387.9,122 388.6,122.7 389.3,123.5 C383.7,135 374.9,144.3 369,155.6 C356.8,178.7 355.6,203.7 353.1,228.7 C352.7,233.2 353.3,238.1 349.7,242 C339.9,222 362.6,149 387.2,121.2 Z" fill="#535A54"></path>
                        <path d="M344.6,419.2 C348.8,421.8 347,426.3 350.9,429.3 C361,420 365.8,407.1 372.2,395.1 C373.6,402.2 370.8,411.8 365.3,419.5 C363,422.8 360.8,426.2 358.1,429.2 C352.2,436 349.3,443.3 352.6,452.3 C354.2,456.6 353,461.4 348.7,462 C344.3,462.7 345.2,457.4 344.6,454.4 C342.4,443 340.5,431.6 344.6,419.2 Z" fill="#6FC979"></path>
                        <path d="M442.2,98.2 C441.5,96.6 440.9,94.9 440.2,93.3 C436.1,86.6 441.8,79.8 439.9,74 C438.8,78.7 441.7,85.3 436.1,89.8 C435.4,89 434.7,88.1 434,87.3 C432.5,73 437.3,60 442.1,47 C444.9,46.7 445.2,48.7 445.6,50.6 C445.9,52.1 445.1,53.7 446,55.5 C448.1,50.5 448,45.1 450.4,40.4 C451.2,39.2 452.2,38.2 453.9,38.8 C455.4,42.8 455.3,47.1 453.9,50.7 C447.8,66 445.8,82.3 442.2,98.2 Z" fill="#46604E"></path>
                        <path d="M422.6,180.8 C406.3,196.9 407,215.3 414.2,234.7 C415.1,237.2 417.4,240.9 413.1,242.2 C410.1,243.1 408.6,239.9 407.9,237.2 C404.8,226.2 402.2,214.9 403.7,203.5 C405.3,192.5 412.8,185.7 422.6,180.8 Z" fill="#6FD357"></path>
                        <path d="M433.4,341.9 C432.8,343.2 432.3,344.5 431.7,345.8 C429.6,347.3 428.2,347.1 427.9,344.3 C428.3,335 424.7,325.9 425.8,316.5 C426.3,312.4 426.1,307.2 430.6,306.4 C435.8,305.4 435,311.4 435.7,314.3 C438.1,324.1 444.6,331.4 449.9,339.5 C449.2,341.7 448.5,343.9 447.9,346.1 C439.4,343.3 439.3,334.3 434.8,328.5 C433.4,326.7 434.2,323.8 432.5,322.8 C434.1,328.8 437.5,335 433.4,341.9 Z" fill="#D6A073"></path>
                        <path d="M371.1,309.1 C372.5,307.9 373.8,306.7 375.2,305.5 C399.5,302.4 423.5,297 448.1,296.5 C423.1,305 397.2,307.7 371.1,309.1 Z" fill="#33B546"></path>
                        <path d="M289.1,177.4 C303.5,189.2 304.6,211.7 291.6,233 C293.9,214.3 295.8,195.7 289.1,177.4 Z" fill="#6FD357"></path>
                        <path d="M435.8,368.1 C437.3,369.5 438.7,371 440.2,372.4 C426.7,380.8 411.8,387.2 400.3,398.6 C399.1,399.8 397.5,400.8 396.1,398.9 C394.7,396.9 395.8,395 397.1,393.5 C404.2,384.9 412.3,377.6 422.8,373.3 C427.2,371.5 431.5,369.8 435.8,368.1 Z" fill="#D59C6C"></path>
                        <path d="M226,214.5 C229.6,217.6 226.7,220.2 225.4,222.9 C202.6,208.7 179.8,194.4 157,180.2 C175.8,185 190.6,196.4 206.4,206.3 C212.4,210.1 217.4,216.8 226,214.5 Z" fill="#64B74E"></path>
                        <path d="M200.8,166.3 C203.8,167.3 204.3,169.2 202.2,171.4 C199.6,174 203.2,174.4 203.5,176 C188.6,172 174.2,166.4 162,157.2 C153.9,151.2 143,148.5 137.4,137.4 C143.3,137.1 145,142 148.3,143.9 C163.7,152.6 178.1,163.2 195.3,168.5 C197.6,169.2 201,172.2 200.8,166.3 Z" fill="#64B74E"></path>
                        <path d="M205.8,192.1 C204.4,192.7 203,193.4 201.6,194 C181.3,183.5 161.6,172.1 144.3,157.3 C144.8,156.6 145.2,155.9 145.7,155.3 C165.7,167.5 185.8,179.8 205.8,192.1 Z" fill="#64B74E"></path>
                        <path d="M427.9,344.2 C429.2,344.7 430.4,345.2 431.7,345.7 C431.7,346.9 431.7,348.1 431.7,349.3 C430,350.9 427.9,350.9 426.1,350.2 C415.4,345.8 403.3,346.3 393.2,340.1 C385.5,339.9 377.8,339.6 370,339.3 C367.9,339.2 364.6,340.8 364.4,337.2 C364.2,334 367.4,334.3 369.7,334.1 C387.8,332.8 405,337 422.1,342.2 C424.1,343 426,343.6 427.9,344.2 Z" fill="#6B716A"></path>
                        <path d="M238,240.8 C242,244.4 236.6,244.6 236,246.5 C222,242.1 210.7,232.9 199,224.6 C192.8,220.2 187.2,214.8 180.5,209.2 C185.8,207.8 188.3,210.9 191,212.8 C203.8,221.5 216.3,230.5 229.1,239.1 C231.6,240.7 234.3,244.1 238,240.8 Z" fill="#64B74E"></path>
                        <path d="M345.3,269.4 C344.6,268 343.8,266.5 343.1,265.1 C343.7,263.2 344.1,261.1 345.1,259.5 C352.3,248.2 363.4,238.7 360.6,223 C360.3,221.2 360.4,216.5 364.4,217.4 C368,218.2 365.2,221.2 365.1,223.3 C364.9,229.6 364.3,235.9 368.4,241.4 C363.3,245.1 357.4,247.7 354.4,253.9 C351.8,259.3 348.4,264.2 345.3,269.4 Z" fill="#6FD357"></path>
                        <path d="M448.6,260.7 C469.1,256 490,253 510.3,247 C491.7,260.3 470.2,261 448.6,260.7 Z" fill="#80DD4A"></path>
                        <path d="M423.6,261.5 C421.3,258 425,259.1 426.2,258.4 C427.5,257.6 429,257 432.4,255.4 C420.2,253.8 412.8,266.2 401.7,260.3 C406,252.6 414.2,252.4 422.7,249.5 C417.9,249.2 414.8,248.9 411.6,248.7 C414.2,245.3 419.3,248.6 421.7,244.8 C425,245 428.3,245.3 431.6,245.5 C429.2,248.3 421.6,251.6 432.3,253 C434.3,253.3 436.4,254 436.8,256.1 C437.4,259.8 432.7,258.5 431.7,260.9 C429.2,263.7 426.4,262.3 423.6,261.5 Z" fill="#D4EDBE"></path>
                        <path d="M373.9,359.6 C373.3,368.3 370,374.5 366.5,380.4 C362.2,387.6 357.7,394.7 353.2,401.7 C352,403.6 350.6,406.6 348,405.2 C345.6,403.9 346.3,400.7 347.9,398.9 C354.9,391 357.4,380.4 363.9,372.3 C366.9,368.6 367.1,362.8 373.9,359.6 Z" fill="#6FC979"></path>
                        <path d="M381.2,62.4 C380.4,61.2 379.7,60 378.9,58.8 C379.7,50.6 387.4,45.9 389.4,38.3 C389.8,37.6 390.4,36.9 391,36.4 C393.7,35 391.6,32.9 391.7,31.2 C393.2,22.7 391.9,14.5 388.6,6.6 C388.6,3.3 391,2.7 393.5,2.1 C398.5,4.1 398.3,8.6 399.1,12.9 C402.7,32.8 394.4,48.5 381.2,62.4 Z" fill="#525954"></path>
                        <path d="M433.8,353.7 C435.5,356 438.8,356.8 439.6,359.9 C430.4,356.9 421,354.4 412,350.9 C399.6,346 386.9,344.6 371.5,346.7 C379.4,339.9 386.6,342 393.3,341.6 C407.5,343.4 421.4,345.9 433.8,353.7 Z" fill="#5E645E"></path>
                        <path d="M177.5,145.6 C176.1,146.3 174.7,146.9 173.2,147.6 C156.2,142.4 142.8,132.5 133.7,116.9 C146.5,129.5 162.1,137.5 177.5,145.6 Z" fill="#64B74E"></path>
                        <path d="M393.9,192.6 C387.1,203.4 385.3,212.5 387,222.3 C387.6,225.9 387.5,229.7 387.5,233.3 C387.5,234.8 387.7,236.9 385.5,237.3 C383.4,237.7 382.7,235.8 382,234.4 C376.1,222.9 380.9,202.5 393.9,192.6 Z" fill="#6FD357"></path>
                        <path d="M177.3,121.5 C178.6,126.3 178.6,126.3 169.3,129.2 C151.8,124.7 140.6,113.9 135.7,96.1 C140.3,95.6 140.5,98.9 141.4,101.1 C146.6,114.3 158.5,119.2 170.1,124.5 C173,126 176.8,127.1 177.3,121.5 Z" fill="#64B74E"></path>
                        <path d="M189.5,262.9 C188,263.5 186.5,264.2 184.9,264.8 C173.2,258.3 161.3,252.3 147.2,253.6 C143.1,254 139.2,253 136.5,249.5 C134.2,248.4 131,250 128,245.6 C142.5,245 155.6,248.4 168.7,249.2 C178,250.2 185.9,253.3 189.5,262.9 Z" fill="#33B546"></path>
                        <path d="M248.3,215.2 C247.4,214.2 246.5,213.3 245.6,212.3 C254,200.5 263.7,189.6 269.1,175.8 C269.7,192.9 259.3,204.2 248.3,215.2 Z" fill="#6FD357"></path>
                        <path d="M456,115.3 C456,114.6 456,113.9 456,113.2 C460.5,105.4 468.2,105.2 475.8,104.9 C477.4,107.9 480.3,107.3 483,107.3 C486.1,106.4 488.6,108.9 491.8,108.8 C490.8,105.8 485.6,105.9 486.4,101.7 C486.4,101 486.4,100.3 486.4,99.5 C491.2,100.1 495.4,102.2 499.3,104.7 C502.1,106.5 503.7,109.1 502.3,112.4 C501.1,115.3 498.4,115.8 495.5,115.6 C494.5,115.5 493.2,115.9 492.5,115.4 C480.3,106.6 468.1,113.2 456,115.3 Z" fill="#626862"></path>
                        <path d="M439.4,282.4 C455.3,274.6 473.7,277.2 489.7,270.1 C474.9,282.1 456.7,280.5 439.4,282.4 Z" fill="#80DD4A"></path>
                        <path d="M290.3,345.9 C290.9,345.3 291.6,344.7 292.2,344.1 C308.7,348.9 318.3,362.8 330.2,373.7 C316.7,364.7 304,354.5 290.3,345.9 Z" fill="#33B546"></path>
                        <path d="M360.1,341.9 C357.8,352.4 352.3,361.3 345.5,369.6 C344.4,370.9 343.2,372.5 341.4,371.4 C339.7,370.5 339.5,368.5 340.4,367 C346,357.9 351.8,349 357.6,340 C358.4,340.6 359.2,341.2 360.1,341.9 Z" fill="#6FC979"></path>
                        <path d="M136.6,249.5 C143,251.9 149.7,250.2 156.3,251.1 C167.3,252.7 177.6,255.7 185,264.8 C179.4,264.8 174.4,262.7 169.4,260.7 C158.5,258.5 147.5,256.5 136.9,253 C136.8,251.8 136.7,250.6 136.6,249.5 Z" fill="#A3D8A6"></path>
                        <path d="M260.3,267.4 C258.8,266 257.4,264.6 255.9,263.1 C261.2,263.7 262.4,259.2 264.5,256 C270.1,247.5 275.7,239 283,231.6 C276.1,243.9 272.3,258.2 260.3,267.4 Z" fill="#6FD357"></path>
                        <path d="M158.9,263.4 C149,261.2 139,260.7 129,257.8 C123.3,256.1 115.4,259.2 108.4,258.6 C117.7,256.4 127,254.2 136.6,257.3 C145.8,251.9 154.4,256.1 162.9,259.4 C164.1,259.8 165.5,261 164.9,262.3 C163.6,265.1 161.1,263.8 158.9,263.4 Z" fill="#A3D8A6"></path>
                        <path d="M221.9,256.5 C219.3,253.2 215.7,251.6 211.7,250.8 C207.2,248.1 202.7,245.4 198.1,242.7 C198.5,241.9 198.9,241 199.3,240.2 C208.3,244.8 217.3,249.5 226.3,254.1 C232.4,257.2 237.8,263.4 245.8,259 C250.1,264.7 241.7,262 241.9,265 C235.2,262.1 228.5,259.3 221.9,256.5 Z" fill="#64B74E"></path>
                        <path d="M340.5,195.7 C341.3,197.2 342,198.7 342.8,200.2 C341.8,214.4 340.9,228.7 339.9,242.9 C338.9,242.8 337.8,242.8 336.8,242.7 C336.3,227.1 337.8,211.4 340.5,195.7 Z" fill="#5E655F"></path>
                        <path d="M344.6,281.5 C346,280.8 347.3,280.1 348.7,279.5 C360.7,282.6 373.1,284.4 384.3,290.3 C370.2,291.3 357.5,286 344.6,281.5 Z" fill="#33B546"></path>
                        <path d="M478.5,369.9 C485.4,364.7 498,366.9 507.2,374.9 C503.7,376.3 499.4,371.4 496.4,376.2 C493.1,376.6 489.9,372.5 486.5,376 C482.1,376.3 484.1,368.1 478.5,369.9 Z" fill="#EACFB8"></path>
                        <path d="M353,327.6 C354.4,325.6 355.9,323.7 357.3,321.7 C366.7,325.8 375.4,320.2 384.5,319.6 C387.8,319.4 391.1,316.4 396,320.3 C381.2,325.6 367.2,327 353,327.6 Z" fill="#33B546"></path>
                        <path d="M361.2,265.3 C360.6,264 360,262.6 359.5,261.3 C364.4,249.5 372.9,242.5 385.9,241.4 C373.5,245.1 368.5,256.4 361.2,265.3 Z" fill="#6FD357"></path>
                        <path d="M393.3,32.5 C395.6,33.9 396.3,36.6 394.9,38.1 C393.6,39.6 393.3,36.4 391.9,36 C389.1,36.2 386.4,36.4 387.1,32.2 C386.8,24.2 386.2,16.2 386.3,8.2 C386.4,4.1 386.5,-1.5 393.6,1.9 C392.2,3.4 390.8,4.9 389.5,6.4 C393.9,14.7 390.7,24.1 393.3,32.5 Z" fill="#28332E"></path>
                        <path d="M466.2,137.8 C464.7,139.8 462.4,141.5 463.7,144.6 C455.4,137.4 446.1,131.1 440,121.5 C440.7,120.7 441.5,120 442.2,119.2 C452.5,122.4 457.1,132.9 466.2,137.8 Z" fill="#5B615C"></path>
                        <path d="M387.4,275.3 C387.4,274.6 387.3,273.9 387.3,273.2 C399.7,274.9 412,276.5 424.4,278.2 C424.3,279 424.2,279.8 424.1,280.6 C411.7,279.8 399.2,281 387.4,275.3 Z" fill="#D4EDBE"></path>
                        <path d="M433.8,353.7 C420.3,349.7 406.8,345.6 393.3,341.6 C393.3,341.2 393.2,340.7 393.2,340.3 C406.6,341 419.2,345.1 431.7,349.5 C432.4,350.9 433.1,352.3 433.8,353.7 Z" fill="#CBC8C1"></path>
                        <path d="M488.6,192.6 C490.5,189.6 487.9,188.1 486.4,186.2 C495.3,185.5 502.9,178.5 512.8,181.1 C504.2,184.1 496.5,188.6 488.6,192.6 Z" fill="#D4EDBE"></path>
                        <path d="M387.1,32.3 C388.7,33.6 390.3,34.8 391.9,36.1 C391.9,36.1 391.4,36.6 391.4,36.6 C385.1,44 382.3,54 373.6,59.6 C372.8,58.7 372,57.8 371.1,56.9 C375.1,47.8 380.8,39.9 387.1,32.3 Z" fill="#525954"></path>
                        <path d="M375,281.4 C376.3,280.8 377.6,280.1 378.9,279.5 C387.4,281 395.8,282.5 404.3,284 C393.9,289.3 384.6,283.8 375,281.4 Z" fill="#33B546"></path>
                        <path d="M333.1,276.9 C329.9,276.4 331.3,272.5 329.1,271.3 C329.7,263.3 334,257.3 340.2,250.2 C339.8,260.9 332,267.8 333.1,276.9 Z" fill="#D4EDBE"></path>
                        <path d="M45.9,329.8 C53.4,329.9 60.8,330 68.3,330.1 C69.2,330.6 70.4,330.7 70.6,332 C72.5,334.6 75.5,334.9 78.3,335.6 C74.6,340 70.8,336.2 67.6,335.1 C60.4,332.8 52.6,333.6 45.9,329.8 Z" fill="#D4EDBE"></path>
                        <path d="M270.1,281.2 C269.4,280.5 268.7,279.8 267.9,279.1 C273.4,272.5 275.9,264.3 280.2,257.1 C283.7,257 283.5,258.8 282.3,261.2 C278.1,267.6 276.8,276 270.1,281.2 Z" fill="#6FD357"></path>
                        <path d="M285.8,307.1 C286.5,308.4 287.2,309.8 287.9,311.1 C288.2,315.3 289.4,319.8 285.4,323 C284.8,323.5 282.7,322.8 282,322.1 C277.9,317.8 283.3,315.1 284,311.6 C284.2,310 285.2,308.6 285.8,307.1 Z" fill="#A3D8A6"></path>
                        <path d="M211.5,263.8 C204.2,258.7 196.9,253.6 189.6,248.5 C197.7,246.6 201.8,253.5 207.6,256.8 C208.9,259.2 212.3,260.3 211.5,263.8 Z" fill="#33B546"></path>
                        <path d="M161.4,101 C160.6,101.7 159.9,102.5 159.1,103.2 C152.1,100.5 144.6,98.3 145,85.6 C149.5,94.3 155.2,97.9 161.4,101 Z" fill="#33B546"></path>
                        <path d="M290.5,299.6 C289.4,301.8 288.6,304.2 286.1,305.4 C282.6,303.2 277,300.1 279.7,296.4 C282.7,292.4 286.9,297.8 290.5,299.6 Z" fill="#D4EDBE"></path>
                        <path d="M444.2,51.3 C443.5,49.8 442.8,48.4 442.1,46.9 C443.9,41.1 443.9,32.9 453.8,38.8 C453,39.6 452.3,40.5 451.5,41.3 C448.6,44.2 449.9,50.3 444.2,51.3 Z" fill="#616862"></path>
                        <path d="M282.4,261.1 C282.2,259.5 282.1,257.8 280.3,257 C282.4,252.5 285.2,250.2 290.1,253.4 C285.9,256.7 289,261.3 288.1,265.1 C284.4,266.4 289.2,255.4 282.4,261.1 Z" fill="#D4EDBE"></path>
                        <path d="M498.4,358.1 C498.4,358.9 498.5,359.6 498.5,360.4 C488.4,364.1 478.4,360.3 468.3,360.3 C468.3,360.3 468.4,359.8 468.4,359.8 C468.3,359.2 468.2,358.6 468.2,358 C478.2,358 488.3,358.1 498.4,358.1 Z" fill="#CB884F"></path>
                        <path d="M361.5,292.2 C354.8,294.2 348.6,292.9 340.8,290.2 C349.4,287.3 355.2,291.6 361.5,292.2 Z" fill="#33B546"></path>
                        <path d="M423.6,261.5 C426.3,261.3 429.1,261.1 431.8,260.9 C432.8,262.1 436.3,264 434.2,264.4 C430.1,265.1 425.8,269.4 421.3,265.5 C423.6,265.1 425.4,264.3 423.6,261.5 Z" fill="#D4EDBE"></path>
                        <path d="M393.3,248.7 C392.6,248 391.8,247.3 391.1,246.7 C395,242.9 399.6,242.1 405.2,243.3 C401.6,246.7 397.2,247.2 393.3,248.7 Z" fill="#D4EDBE"></path>
                        <g transform="translate(157.000000, 343.000000)">
                            <path d="M36.7,22.8 C37.5,22.1 38.3,21.4 39.1,20.6 C47.5,15.7 56.8,15.8 66.1,15.6 C73,15.5 80,17 86.7,14.6 C89.3,11.6 92.7,9.1 93.3,4.8 C96.9,4.2 101,2.4 101.5,8.5 C102.5,10.6 103.1,12.6 101,14.4 C98.4,17.7 98.1,20.2 103.1,21.1 C103.5,22.8 103.3,23.9 101.2,22.9 C93.1,27.8 93.5,30.6 103.3,37 C103.7,38.9 103.1,39.8 101,39.2 C97.5,38.2 93.7,34.7 91,40.5 C88.5,46 91.4,48.1 95.9,50.2 C99.4,51.8 103,53.9 105.2,57.4 C106.7,60 106.5,61.6 103,61.4 C102.2,60.8 101.5,60.1 100.7,59.5 C96.5,56.8 93.2,49 87,54.9 C82.1,59.5 84.8,68.4 91.3,73.1 C91.4,76.9 89.2,76.6 86.7,75.5 C84.1,74.6 79.9,71.7 79.7,76.4 C79.5,81.1 75.3,87.2 81.9,91.1 C97.7,100.2 105,115.9 112.2,131.4 C114.7,136.8 116.5,142.8 114.4,151.7 C110.1,141.5 106.6,133.5 103.4,125.4 C99.2,114.4 91.6,105.9 82.9,98.3 C77.7,93.8 73.6,94.6 73.1,102.4 C72.6,110 70.9,116.3 79.2,123.3 C89,131.4 94.2,144.6 95,158.3 C95.2,162.1 95.3,165.9 90,167.5 C90.5,152.4 86.9,138.6 75.8,127.7 C74.2,126.2 72.9,123.3 70.2,124.4 C67.8,125.4 67.7,128.3 67.4,130.5 C66.4,139.1 61.3,147.9 72.1,155.2 C76.3,158.1 78.1,165.5 70.8,171.4 C70.5,165.4 72.6,160.2 69,156 C67.5,154.2 66.1,152 63.3,152.5 C60.5,152.9 59.6,155.3 59.3,157.7 C58.6,165.2 55.7,172 53.7,179.1 C49,178 51.5,175 51.9,172.8 C52.5,169.5 54.1,166.1 53.8,163 C53.4,158.7 60.1,152.4 52.5,150.5 C46,148.9 39.7,152 40,161.3 C35.2,153.5 37.3,149.7 47.3,147.1 C56.1,144.9 60.9,137.9 60.6,129.3 C60.5,125 58.7,124.1 55.1,124.2 C52.5,125.1 50.2,125.3 50.3,121.5 C62.1,119.6 65.5,111.3 67.4,100.9 C68.3,95.7 66.6,94.7 62.5,95.2 C53,96.4 43.7,99.3 37,106.1 C29.1,114.1 18.7,118.5 11.4,127.2 C9,123.8 10.2,121.3 12.3,119.6 C28,106.7 42.5,91.8 64.1,88.8 C71.8,87.7 71.9,80.1 71.7,75.4 C71.3,69.2 65.5,72.3 62.1,73.4 C48.4,78 34.7,82.6 21.4,88.1 C12.8,91.6 7.3,99.2 0.4,108.3 C2,98.1 5.6,91.3 12.8,88.1 C31.1,79.9 48.4,68.9 69.2,67.5 C77.5,66.9 77.1,59.1 78.3,53.8 C79,50.8 74.1,51.2 71.8,51.6 C61.4,53.8 50.7,54.6 40.9,59.4 C39.4,60.2 37.6,60.5 36.6,59 C35.5,57.3 36.8,56.1 38.4,55.4 C49.8,50.7 61.7,47.9 74,47.2 C77.7,47 80.3,46.3 82.3,43 C85.1,38.3 84,35.9 78.6,36.3 C68.6,37 58.7,38.2 48.7,39.1 C45.5,39.9 42.2,41.5 39.9,37.5 C42.3,32.4 47.3,32.3 51.8,31.3 C61.3,29.1 71.1,29.7 80.7,27.3 C71.1,24.7 61.3,26.4 51.6,25.8 C46.7,25.6 41.1,27.2 36.7,22.8 Z" fill="#33B546"></path>
                            <path d="M86.8,75.6 C88.6,75.3 90.4,75 91.4,73.2 C109.6,85.5 122,102.9 132.8,121.5 C133.4,122.6 133.3,124.1 133.4,125.4 C133.4,125.9 132.9,126.5 132.1,128.1 C119.5,107.9 105.6,89.6 86.8,75.6 Z" fill="#6FC979"></path>
                            <path d="M103,61.5 C104.7,60.7 105.2,59.2 105.2,57.5 C119.8,70.9 133.3,85.2 141.7,103.5 C129.3,89 115.9,75.5 103,61.5 Z" fill="#6FC979"></path>
                            <path d="M101.1,39.2 C101.9,38.5 102.6,37.7 103.4,37 C120.2,47.3 133.2,61.8 147.7,74.8 C147,75.7 146.2,76.5 145.5,77.4 C130.7,64.6 115.9,51.9 101.1,39.2 Z" fill="#6FC979"></path>
                            <path d="M50.5,121.4 C51.5,123.4 53.5,123.7 55.3,124.1 C44,130.8 30.6,134.6 22.7,146.4 C25,130.5 38.8,127.1 50.5,121.4 Z" fill="#6FC979"></path>
                            <path d="M38.7,55.4 C37,58.3 38.6,59.2 41.2,59.5 C29.2,65.1 15.9,67.8 4.5,75 C13,63.3 25.7,59 38.7,55.4 Z" fill="#6FC979"></path>
                            <path d="M93.3,4.8 C96.1,9.1 90.8,11.5 90.8,15.1 C80.4,17 70.3,15.4 60.1,13.5 C57.5,13 54.8,12.3 54.2,9 C57.5,7.8 61.5,10 64.4,6.9 C73.3,4.7 82.2,11.7 91,6.8 C90.5,6.3 90.3,5.8 90.5,5.3 C90.7,4.8 90.9,4.6 91,4.6 C92,4.6 92.7,4.7 93.3,4.8 Z" fill="#A3D8A6"></path>
                            <path d="M40.8,37.3 C43,40 46.3,38.3 49,39.2 C36.8,42.4 24.7,45.6 12.5,48.7 C15.1,45.5 17.7,42.3 20.3,39.1 C27,36.7 33.5,32.7 40.8,37.3 Z" fill="#80DD4A"></path>
                            <path d="M101.1,14.4 C101.3,12.4 101.4,10.5 101.6,8.5 C107.4,11.5 114.4,12.5 118.8,19.6 C111.8,19.7 107.2,14.1 101.1,14.4 Z" fill="#80DD4A"></path>
                            <path d="M131.7,27.9 C126.8,27.9 123.8,26.7 122,23.2 C121.8,22.8 122.9,21.2 123.4,21.2 C127.7,21 129.8,23.4 131.7,27.9 Z" fill="#80DD4A"></path>
                            <path d="M91.3,4.5 C91.3,5.3 91.3,6 91.2,6.8 C86,4.9 80.1,5.1 73.3,0.8 C81,0.3 86.3,1.4 91.3,4.5 Z" fill="#80DD4A"></path>
                            <path d="M40.8,37.3 C33.9,36.9 27.3,40.8 20.3,39.1 C25.6,33.5 30.2,27.2 36.7,22.8 C51.4,22.7 66.2,22.4 80.9,22.6 C83.4,22.6 88.7,20.4 88,26.5 C87.4,31.3 84.6,32.5 79.5,32.2 C66.4,31.5 53.5,33.7 40.8,37.3 Z" fill="#D4EDBE"></path>
                            <path d="M54.3,8.9 C61.7,12.2 69.7,11.7 77.5,12.3 C82.2,12.7 86.6,13.2 90.9,15.1 C89.8,17.2 88.7,19.3 85.8,19 C70.2,17.3 54.6,19.4 39.1,20.7 C43.4,15.7 46.2,8.9 54.3,8.9 Z" fill="#D4EDBE"></path>
                        </g>
                        <path d="M341.1,159.8 C330.9,147.9 320.8,135.9 313.5,121.9 C311.9,118.9 308.7,116.2 311,109.7 C320.1,123.8 327.9,137.2 338.8,148 C342.6,152.6 346.4,157.1 350.2,161.8 C351.5,163.4 354.4,165.2 351.6,167.5 C349.8,169 347.9,167.2 346.5,165.8 C344.6,163.8 342.9,161.8 341.1,159.8 Z" fill="#E6E1DC"></path>
                        <path d="M334.3,74.5 C325.7,83.2 324.1,96.6 314,106.8 C313.3,97.9 319,93.2 320.2,87.2 C325.3,80.6 326.4,70.8 335.3,66.4 C337.5,70.1 334.1,71.9 334.3,74.5 Z" fill="#C4C2BC"></path>
                        <path d="M363.1,51.3 C361.1,55.4 356.5,56.6 353.1,59.2 C349.7,61.8 346,64.5 341.4,64.1 C339.7,63.9 338.9,61.6 339.2,60 C340.4,54.3 345.6,53.8 349.9,52.2 C353,51 356.1,49.7 359.3,48.9 C361,48.5 362.9,48.8 363.1,51.3 Z" fill="#E8E3DD"></path>
                        <path d="M373.7,59.6 C377.8,53 381.9,46.3 386.1,39.7 C387.3,37.7 388.6,35.7 391.5,36.6 C391.7,46.5 383.3,51.4 379,58.7 C377.4,60.5 375.8,62.4 374.2,64.2 C374,62.7 373.8,61.1 373.7,59.6 Z" fill="#D8D4CE"></path>
                        <path d="M338.1,14.1 C338.4,12.1 338.1,8.4 340.1,9.4 C345.6,12.1 347.5,18.2 349.8,23.5 C350.7,25.5 347.7,28.1 345.3,27.5 C338.1,25.8 339.7,19 338.1,14.1 Z" fill="#E4DFD9"></path>
                        <path d="M356.7,41.8 C356.7,45.5 354.5,46.8 352.2,46.6 C346.2,46 347.7,40.2 346.3,36.6 C345.5,34.6 347.6,32.6 349.7,32.9 C355.1,33.6 354.9,38.9 356.7,41.8 Z" fill="#E5E0DA"></path>
                        <g transform="translate(0.000000, 240.000000)">
                            <path d="M251.9,81 C246.4,84.3 239.4,84.2 233.4,89.1 C237.8,89.4 241.3,89.6 244.9,89.8 C244.4,95.4 239.9,94 236.6,94.8 C228.2,94.4 224.1,101 219,105.8 C218,106.9 217,107.9 215.9,108.9 C210.4,114.3 204.7,119.7 199.6,125.5 C196.8,129.5 193.3,132.7 188.9,134.9 C185.5,138.2 182.2,141.5 178.8,144.8 C175.6,147.9 171.8,150.8 167.2,149.3 C156.6,146 147.8,149 138.5,154.3 C122.9,163.2 106.5,165.2 90,155.1 C85.9,152.6 81.1,153.1 76.2,154 C67.3,155.6 58.3,157 49.3,153.8 C39.5,150.3 33.4,141.3 34,131.2 C34.7,119.2 41.2,111 52.8,109.6 C62.8,108.4 66,102.7 66.8,93.8 C62.5,92.6 59.5,95.4 56.1,96 C51.7,98 48.9,96.1 46.8,92.3 C47.5,91 48.6,89.8 50.1,89.7 C62.2,88.5 71.9,82.8 80,73.9 C81.2,72.6 82.9,71.8 84.7,71.2 C87.8,70.6 90.8,70.6 93.9,71 C99.1,72.7 104.3,74 109.8,73.3 C112.3,73.4 114.7,72.3 117.1,71.9 C127.4,71.2 132.1,63 137.2,55.9 C141.7,49.6 146.8,44.5 154.1,41.8 C159.1,40 164.3,38.9 169.3,37.4 C171.9,36.8 174.6,36.5 177.2,36.4 C180.3,36.6 183.4,35.7 186.6,36.1 C191.2,38.3 196.2,38.6 201.1,39.7 C203,40.2 204.7,41.1 206.5,41.9 C209.5,43.3 212.6,44.3 215.7,45.3 C217.1,45.7 218.4,46.1 219.7,46.7 C222.7,48.1 225.6,49.6 228.6,51 C230.3,51.8 232,52.8 233.5,53.9 C237.2,57.1 239.9,61 241,65.8 C246.5,69.4 254.5,71.3 251.9,81 Z" fill="#33B546"></path>
                            <path d="M231.4,54.8 C230.2,54.2 229.1,53.6 227.9,53 C228.1,45.4 223.4,47.2 218.9,48.3 C217.3,48.2 215.8,48 214.2,47.9 C214.2,39.8 208.8,44 205.2,44 C203.8,43.1 202.5,42.3 201.1,41.4 C199.3,37.4 197,35 192.3,37.8 C190.4,38.9 188.3,38.9 186.4,37.8 C183.5,39.1 180.5,40 177.2,39.5 C176.5,37.1 179,35.7 179,33.1 C172.7,33.9 168.2,38.9 162,39.7 C155.8,42.2 149.4,43.1 142.9,42.4 C140.2,42.1 136.3,42.2 136.4,38.4 C136.5,35.2 140.1,35.8 142.5,35.3 C149.2,34.1 155.9,32.6 161.6,28.4 C150.3,34.6 136.2,33.4 125.9,42.3 C124,44.7 122.4,47.7 118.4,46.1 C117.1,44 115.8,41.8 114.5,39.7 C114.2,37.6 114.3,35.6 115.7,33.9 C122.1,31 129.2,30.3 136.1,27.7 C128.5,27.1 122.1,35.8 114.2,30 C115.1,32.8 114.4,34.9 111.4,36 C108,36.5 104.8,34.8 101.4,35.6 C86.5,36 71.5,33.5 56.7,36.6 C53.9,37.2 51.1,38.2 48,37 C57.9,31.6 68.3,29.6 79.1,30.6 C88.5,31.4 94.2,27.9 96.8,18.5 C89.4,15.7 81.9,18.3 73.2,18.1 C78.6,14 83.6,14 88.4,13.3 C105.8,10.9 123.1,13 140.4,15.2 C145,17.2 149.3,16.3 153.6,14.1 C159.3,13.1 164.2,16.8 169.8,16.9 C171.8,16.8 173.7,16.2 175.6,16.3 C179.1,16.5 182,18.5 185,20 C187.7,21.8 190.7,20.5 193.5,20.9 C196.4,21.5 199.5,24.1 201.7,19.7 C206,19 208.1,22.2 210.4,24.8 C213.3,28.3 216.6,30.6 221.4,30.2 C224.8,34.1 227.1,29.6 230,29 C232.2,32.5 234.5,36 236.7,39.6 C239.8,42.1 243.7,42.8 247.1,44.5 C255.1,52.1 245.1,54.4 242.9,59 C240.9,61.4 238.6,60.5 238.5,58.2 C238.1,51.6 234.5,54.2 231.4,54.8 Z" fill="#6FC979"></path>
                            <path d="M118.5,46 C121.2,45.1 122.2,41.5 125.6,41.7 C130.3,37.3 135.1,39 139.4,42.1 C142.8,44.6 140.6,47.1 138.3,49.2 C133.2,51.7 130.3,55.9 129,61.4 C127.5,68.1 123.7,72.8 116.8,74.5 C114.5,75.2 112.2,75.8 110,76.5 C109.2,69 116.7,65 117.9,56.8 C105.8,57.1 98.6,63.9 92.3,72.5 C90.3,73.6 88.4,75.3 86.3,72.7 C79.5,69.8 66.3,72.9 62.2,79.9 C57.9,87.2 51.5,90.1 44.1,92 C36.3,92.4 28.8,90.9 21.2,89.8 C15.2,88.8 9.1,87.7 0.6,86.3 C8.9,80.4 10.5,68.5 25.2,75.4 C32,78.6 42.6,73.7 51.6,68.9 C40.5,65.2 30.8,66.6 21,68.9 C29.4,60.5 40.7,61 50.1,64.1 C63.9,68.7 73.3,61.4 86.6,56.5 C67.4,46 50.2,54.2 33.2,54 C47.2,47.4 62.2,43 77,48.2 C91.6,53.3 104.8,51.6 118.5,46 Z" fill="#6FC979"></path>
                            <path d="M221.3,31 C217.2,35.1 214.1,32.5 210.8,29.6 C207.3,26.6 206.2,21.4 201.2,19.9 C199.6,20.3 198.6,19.4 197.7,18.3 C196.7,16 193.4,14.4 195.3,11.1 C196.8,8.9 198.2,6.8 199.7,4.6 C205.4,3.1 209.2,4.8 210.7,10.7 C210.2,17.7 216.9,20.5 219.4,25.8 C220.9,27.2 222.5,28.6 221.3,31 Z" fill="#A3D8A6"></path>
                            <path d="M142.8,18.3 C144.5,18.1 146.2,17.8 149.7,17.3 C138.9,10.7 128.9,11.2 118.8,11.6 C116.7,10 118.1,8.5 119,7 C131.4,6.7 143.6,7.3 154,15.3 C150.9,18.7 147.9,22.2 142.8,18.3 Z" fill="#33B546"></path>
                            <path d="M199.5,18.7 C199.9,19.4 200.4,19.8 201.2,19.9 C200.9,22.6 204.5,24.6 202.7,27.7 C198.4,27.6 196.4,23.8 193.3,21.8 C185.9,17.8 177.4,14.8 175.6,4.9 C175.7,4 175.8,3.1 176,2.2 C185.7,5 192.9,11.5 199.5,18.7 Z" fill="#A3D8A6"></path>
                            <path d="M175.8,17.7 C169.2,11.5 161.5,6.9 153.5,3 C155.1,2.2 156.7,1.3 158.2,0.5 C168.7,3.5 177.6,9.4 185.8,16.4 C190.1,20 189.7,21 184.3,22.4 C181.4,20.8 178.6,19.2 175.8,17.7 Z" fill="#A3D8A6"></path>
                            <path d="M184.3,22.3 C189.8,21.1 185.9,19.1 184.6,17.7 C177.1,10 166.7,6.7 158.2,0.4 C164.8,-1 169.6,4.3 175.6,4.9 C180.3,11.8 189.1,14.4 193.3,21.8 C190.3,23 187.5,26.3 184.3,22.3 Z" fill="#33B546"></path>
                            <path d="M221.3,31 C220.7,29.3 220,27.6 219.4,25.8 C225.8,16.8 227.6,23.6 230,28.8 C225.8,32.7 233.8,35 231,39.2 C226.4,38.1 223.6,34.9 221.3,31 Z" fill="#A3D8A6"></path>
                            <path d="M231.4,54.8 C233.3,51.5 234.2,46.5 239.7,48.8 C245.1,51.1 241.2,54.6 240.3,57.7 C240.3,57.8 241.9,58.4 242.8,58.7 C242.1,61 241.4,63.4 240.7,65.7 C237.7,62.2 234.5,58.5 231.4,54.8 Z" fill="#D4EDBE"></path>
                            <path d="M251.9,81 C251.1,73.8 243.3,71.8 240.8,65.9 C242.4,65.9 244.1,66 245.7,66 C251.2,68.6 255.8,73.9 262.8,72.2 C266.2,76.4 265,79.3 259.9,77.9 C255.7,76.8 254.2,79 251.9,81 Z" fill="#80DD4A"></path>
                            <path d="M262.8,72.2 C254.3,77.7 250.3,71.1 245.7,66 C252.8,64.3 256.8,70.8 262.8,72.2 Z" fill="#33B546"></path>
                            <path d="M247.1,44.4 C241.4,47.4 237.7,46.4 236.7,39.5 C242.5,36.2 246.2,37.3 247.1,44.4 Z" fill="#A3D8A6"></path>
                            <path d="M116.7,35 C116.7,36.9 116.2,38.5 114.5,39.6 C110.1,38.2 105.8,36.8 101.4,35.4 C104.3,31.4 107.4,34.3 110.4,35.1 C112.6,33.8 114.6,33.6 116.7,35 Z" fill="#33B546"></path>
                            <path d="M92.1,72.5 C94.3,62.3 108.8,51.6 118.9,52.5 C124.1,53 122.2,55.8 121.3,58.5 C118.9,65.4 113.7,70.6 109.8,76.5 C103.6,76.9 97.2,77.6 92.1,72.5 Z" fill="#D4EDBE"></path>
                            <path d="M135.8,48 C139.1,46.1 143.2,43.9 136.2,41.9 C132.9,41 129.2,41.7 125.6,41.7 C124.5,39.5 120.9,39.7 120.5,35.8 C132.5,35.1 144.9,34.9 154.1,25.3 C155,24.4 156.8,24.1 158.2,24.1 C162,24.1 167.7,22.6 169,26.5 C170.7,31.5 164.5,32 161.3,33.5 C154.1,36.9 146.2,37.3 138.4,38.6 C146.7,40.7 154.7,39.7 162.7,37.7 C165,38.4 167.9,36.9 169.6,39.8 C164.9,42.8 159.4,43.1 154.2,44.4 C150.5,43.7 147.3,44.6 144.7,47.3 C141.8,50 139,51.5 135.8,48 Z" fill="#D4EDBE"></path>
                            <path d="M47.6,92.2 C46.8,91.5 45.9,90.8 45.1,90.2 C52,88.1 57.3,84.4 59.6,77 C60.7,73.6 81.8,65.1 85.1,66.4 C89,67.8 86.5,70.5 86.2,72.7 C74.9,82.4 64.9,94.6 47.6,92.2 Z" fill="#D4EDBE"></path>
                            <path d="M134.2,109.1 C162.4,91.9 192.2,80 225.6,79.5 C193.3,83.9 164.9,100.2 134.2,109.1 Z" fill="#D4EDBE"></path>
                            <path d="M135.8,48 C139.3,48.7 141.7,47.5 144.1,44.6 C147,41 150.7,40.5 154.1,44.4 C146.8,48 142.1,53.9 137.6,60.5 C132.7,67.8 127.6,75.7 116.7,74.5 C123,69.7 126.7,63.3 127.4,55.6 C128,50.1 130.8,48.2 135.8,48 Z" fill="#D4EDBE"></path>
                            <path d="M169.5,39.8 C167.1,39.5 164.5,40 162.6,37.7 C166.6,35.4 170.8,33.3 174.5,30.6 C178.5,27.6 183.4,26.7 185.7,30.4 C188.2,34.5 182.2,35.3 179.8,37.4 C179,38.1 178.2,38.7 177.4,39.4 C174.7,39.6 172.1,39.7 169.5,39.8 Z" fill="#D4EDBE"></path>
                            <path d="M186.5,37.7 C188.6,36.5 191,35.7 192.8,34.1 C196.1,31.1 199.6,31.8 202.4,33.9 C205.8,36.4 201.2,38.7 201.2,41.3 C195.7,42.5 190.4,42.9 186.5,37.7 Z" fill="#D4EDBE"></path>
                            <path d="M219,48.3 C221.5,45.2 223.2,40 228.6,43.6 C233.4,46.8 230.6,50.1 227.9,53 C224.5,52.3 221.1,51.6 219,48.3 Z" fill="#D4EDBE"></path>
                            <path d="M205.3,43.9 C208.4,41.5 210,35.2 215.2,38 C220.3,40.8 216.4,44.6 214.3,47.8 C211.3,46.5 208.3,45.2 205.3,43.9 Z" fill="#D4EDBE"></path>
                            <path d="M116.7,35 C114.6,35 112.5,35.1 110.4,35.1 C117.2,29 107,32.2 107.7,28 C120.3,33.4 131.3,21.3 145.6,25 C137.3,35 125.4,30.4 116.7,35 Z" fill="#D4EDBE"></path>
                            <path d="M106.9,21.8 C113.6,16.1 119.8,17.5 126.1,19.5 C120.2,20.2 114.2,20.9 106.9,21.8 Z" fill="#D4EDBE"></path>
                            <path d="M53.4,75.8 C47.2,88.3 38.9,90.4 18.2,85.8 C29.8,83.6 40.8,79.4 53.4,75.8 Z" fill="#D4EDBE"></path>
                        </g>
                        <path d="M464,376.7 C462.2,374.6 458.7,373.7 458.5,369.1 C469,369.4 477.1,375.9 486.3,378.8 C495.2,388.2 509.2,390.6 519.2,402.6 C498.3,395.6 479.9,388.8 464,376.7 Z" fill="#F6EEE6"></path>
                        <path d="M447.9,372 C451.5,373 449.4,375.8 449.8,377.9 C447.4,390.3 445,402.6 442.7,414.9 C435.4,405.5 436.9,393.3 447.9,372 Z" fill="#F1E1D3"></path>
                        <path d="M454.2,382 C454.5,380.4 452.9,378.1 455.1,377.3 C455.8,377.1 457.2,379.1 458.3,380 C463.5,386.7 468.7,393.3 473.9,400 C466,395.4 459.4,389.4 454.2,382 Z" fill="#EBD3BD"></path>
                        <path d="M302.8,108.3 C293.4,102.8 282.4,98.2 273.7,90.1 C273,89.4 272.6,87.4 273.1,86.5 C274,84.9 275.8,84.7 277.5,85.3 C287.8,88.8 296.8,94.5 305,101.6 C306.3,102.7 306.9,104.3 306.5,106.1 C306.1,107.8 305.1,108.4 302.8,108.3 Z" fill="#EFEAE4"></path>
                        <path d="M454.1,351.9 C449.1,349.4 452.9,345.3 452.2,342 C456.5,331 463.3,321.8 474.4,313.8 C468.4,328.3 457.5,338.2 454.1,351.9 Z" fill="#F3E7DC"></path>
                        <path d="M464.2,357.9 C463.5,356.4 462.6,355 463.8,353.3 C473.2,339.8 486.6,334 502.5,332.4 C490,341.4 472.8,343.2 464.2,357.9 C464.2,357.9 464.2,357.9 464.2,357.9 Z" fill="#F0DFCF"></path>
                        <path d="M468.6,139.5 C475.1,147.1 477.4,153.9 479,161 C479.5,163.1 479.1,165.1 476.6,165.6 C474.6,166 473.5,164.5 473,162.9 C470.6,156.1 467.9,149.3 468.6,139.5 Z" fill="#DFDBD5"></path>
                        <path d="M436.1,89.7 C439.7,82.5 436.2,73.9 440.5,65 C444.3,75.8 439.2,84.4 440.2,93.2 C439.3,96.8 440.2,101 436.1,105.7 C436.1,99.4 436.1,94.6 436.1,89.7 Z" fill="#F8F2EC"></path>
                        <path d="M486.3,101.7 C487.7,102.5 489.3,103.2 490.5,104.2 C492.9,106.3 499.6,105.6 496.9,110.8 C494.8,114.8 490.3,111.5 487,110.2 C485.5,109.6 484.3,108.3 483,107.3 C481.7,104 481.9,101.6 486.3,101.7 Z" fill="#DDD9D3"></path>
                        <path d="M433.4,341.9 C432.3,335.3 431,328.8 432.1,321 C439.4,328.6 441.9,338.4 447.8,346 C447.8,346.3 447.9,346.7 447.9,347 C447.6,351.3 453.3,357.2 448.2,359.2 C443.1,361.1 439.4,354.8 436.8,350.1 C435.4,347.5 434.5,344.7 433.4,341.9 Z" fill="#F6EEE6"></path>
                        <path d="M468.3,360.3 C478.4,360.3 488.4,360.4 498.5,360.4 C503.4,362 508.4,363.6 513.3,365.3 C498.4,362.9 482.9,364.9 468.3,360.3 Z" fill="#F3E7DB"></path>
                        <path d="M444.2,51.3 C447.8,48.8 445.4,41.9 451.6,41.3 C450.8,46.5 450.2,51.8 449,56.9 C448.5,58.8 448.7,62.4 445.5,62.1 C442.1,61.8 442,58.6 442.5,55.9 C442.7,54.2 443.6,52.8 444.2,51.3 Z" fill="#C8C6C0"></path>
                        <path d="M393.3,32.5 C385.9,24.7 390.7,15.2 389.5,6.5 C397,6.6 393.3,12.8 394.4,16.1 C396.1,21.5 394.9,27.1 393.3,32.5 Z" fill="#D0CDC8"></path>
                    </g>
                </g>
                <g transform="translate(1566.000000, 527.000000)" id="Shape">
                    <path d="M516,279.3 C541.7,290.8 566.9,302.7 583.7,327.2 C588.8,334.6 596,341.9 604,345.6 C624,354.8 629,371.4 629.5,390.6 C629.8,401.9 629.1,413.4 627.7,424.6 C626.2,436.3 619.9,442.7 607.5,436.9 C572.3,420.6 535.3,415.1 496.8,417.4 C486.4,418 475.1,416.5 468.2,408.2 C453.8,390.8 434.3,385.3 413.9,379.4 C388.1,372 373.1,343.9 379,318 C379.5,315.9 380.8,314.1 381.7,312.1 C383.6,308.9 386.8,307.5 389.8,309 C406.3,316.9 424.3,313.1 441.5,315.9 C455.9,319.2 469.7,324.2 483,330.6 C495.1,333.9 504.8,341.5 514.8,348.5 C505.8,341.8 496.9,335 486,331.4 C474.5,325 459.8,324.4 451.4,312.4 C459.7,299.7 476.1,299.1 486.3,289.1 C489.7,285.8 493.8,283.2 498,280.9 C503.7,277.5 509.6,275.7 516,279.3 Z" fill="#1E2A24"></path>
                    <path d="M442.2,319.3 C421.6,320 400.9,321.7 381.6,312.1 C378.1,301.4 372.2,291.8 370.8,280.1 C368,256.2 383,240.8 395.8,224.3 C434.1,174.9 490,162.7 547.3,154.5 C568.2,151.5 583.4,170.1 579.7,191.2 C574.7,219.8 554.1,237.8 535.8,257.5 C529.2,264.6 517.8,267.6 516.1,279.2 C509.2,278.4 503.4,280.9 498.3,285.1 C484.6,296.5 469.7,305.8 453.1,312.5 C450.8,317.3 446.9,318.9 442.2,319.3 Z" fill="#6FC979"></path>
                    <path d="M315.5,222.2 C319.1,242.7 327.2,261.1 339.5,278 C349.9,292.2 357,308.9 365.4,324.2 C373.4,338.8 369.9,359.8 371.1,378 C371.3,381.4 369.2,384.4 365.1,384 C361,383.6 360.2,380.2 360.2,376.8 C360.2,371.9 360.5,367.1 360.6,362.2 C358.1,347.5 356.1,332.6 348.4,319.4 C340.8,289.2 314.2,270.1 303.3,241.8 C301.3,236.6 295.4,234.3 290,233.5 C272.8,231 258.8,222.1 245.7,211.5 C235.8,203.4 222.6,202.6 211.9,196.5 C205.7,198.5 200.3,197.3 195.4,193 C194.4,191.5 194.3,189.9 195.1,188.2 C201.5,182.2 206.2,171.7 217.9,179.6 C242.9,203.3 270.4,222.2 306.4,224.4 C309.5,219.5 306,214.7 305.9,209.9 C306.4,205.1 305.9,200.2 306,195.4 C307,194.3 308.1,193.3 309.1,192.2 C310.3,191.2 311.6,190.9 313,191.3 C315,192.2 316.6,193.7 317.9,195.5 C319.4,198 320.6,200.7 320.7,203.7 C320,210.2 317,216 315.5,222.2 Z" fill="#CA8245"></path>
                    <path d="M282.9,78.9 C276.4,76.4 269.7,74.4 263.5,71.4 C258.5,69 255.5,64.6 255.7,58.4 C255.9,51.5 259.3,48.1 266.5,49 C261.1,40.4 243.9,42.3 248.5,29.1 C252.1,18.6 262.4,26.6 269.8,27.3 C282.7,28.9 295.2,31.4 306.5,38.4 C307.6,39.7 308.4,41.1 308.9,42.7 C309.7,46 309.4,49.2 307.8,52.3 C298.2,62.7 289.6,57 282.1,52.8 C291.7,61.8 313.1,59.8 317.1,79.5 C316.6,83.1 314.7,85.8 311.5,87.5 C300,91.1 290.6,88 282.9,78.9 Z" fill="#242F29"></path>
                    <path d="M159.8,251.1 C154.5,263.7 148.4,260.5 143.5,251.2 C141.1,246.6 140,240.8 140.3,235.7 C140.7,226.8 134.9,228.5 129.9,228.3 L130.2,228.5 C123.6,217.5 116.7,206.6 110.5,195.3 C107.3,189.5 101.4,181.9 108,176.4 C115.7,169.9 122.8,177.1 129.1,182 C130.7,183.2 132,184.9 133.4,186.3 C140.5,188 143.7,193.4 146.3,199.5 C147.6,202.5 147.4,206.8 149.9,208.3 C167.9,219.3 161.3,235.8 159.8,251.1 Z" fill="#232F28"></path>
                    <path d="M137.7,182.2 C135,175.6 131.4,168.2 140,163.8 C148.2,159.6 152.8,166.5 157,172.1 C163.2,180.4 167.3,189.8 170,199.8 C175.4,201.6 183,199.6 184.6,208.1 C185.4,214.4 186.8,220.7 187,227 C187.2,234.7 189.5,244.9 179.5,247.3 C168.4,249.9 167.9,239.2 165.6,231.9 C164.3,218.5 154.4,210.2 147.1,200.4 C143,194.8 138.4,189.5 137.7,182.2 Z" fill="#242F29"></path>
                    <path d="M358.9,82.6 C364.1,77.3 370.6,78.5 376.9,79.1 C382.7,79.7 387.3,83 388.4,88.8 C389.6,95.1 383.8,96.4 379.6,98.4 C361.7,106.7 348.5,123.1 328.8,128.1 C325.2,129.1 321.6,130.2 317.7,129.7 C316.2,129.1 315,128.2 314,127 C313.2,125.6 312.7,124.1 312.5,122.6 C311.8,115.7 315.6,110.6 319.4,105.5 C331.5,96 344.5,88.2 358.9,82.6 Z" fill="#222E28"></path>
                    <path d="M312.8,364.3 C311.9,377.9 309.7,391.2 303.8,403.5 C301.2,408.8 299.2,417.7 291.2,416.2 C283.5,414.7 284.3,406.2 284.2,399.9 C283.8,382.6 286.5,365.5 290,348.6 C288.6,336.3 297.5,336 305.6,336 C315.3,336.1 314.1,343.7 314,350.1 C313.8,354.8 314.9,359.6 312.8,364.3 Z" fill="#25302A"></path>
                    <path d="M312.8,364.3 C312.8,361.1 313,357.9 312.6,354.8 C311.9,349.4 315.1,342.2 307.5,339.6 C299.2,336.8 293.6,341 289.9,348.5 C283.9,348.3 277.7,346.7 272.8,351.9 C264.9,351.5 258.7,356.9 251.2,358.1 C245.2,353.6 239.5,354.7 233.9,359 C227,362.9 220.1,366.6 212.3,368.4 C203.2,361.7 196.3,369.9 188.5,371.8 C183.8,375.5 179.2,379.5 173,374.4 C180.8,363.6 193.4,362.4 204.8,358.8 C210.3,357.1 216.1,356.3 220.7,352.4 C227.4,345.8 236.1,346 244.6,345.3 C250.3,344.6 257.4,348 260.4,339.8 C266.4,335.2 275.1,336 280.2,329.8 C288.9,341 297.6,333.1 306.3,329.9 C311.5,326.7 316.9,326.8 322.5,328.8 C331.6,327 343.1,331.8 348.5,319.5 C365.7,330 358.2,347.6 360.7,362.3 C360.1,361.4 359.3,360.6 359,359.6 C351.4,334.2 347,332.1 321.6,339.5 C316,341.1 315.5,344.3 315.6,349 C315.6,354.1 316.6,359.6 312.8,364.3 Z" fill="#CEA379"></path>
                    <path d="M251.2,358 C257,351.1 262.4,342.6 272.8,351.8 C274.5,372.1 274.3,392.3 270.9,412.4 C270.2,416.6 269,421.5 263.9,422.1 C258.5,422.8 257.1,417.7 255.4,414 C247.5,395.9 244.1,377.4 251.2,358 Z" fill="#29342E"></path>
                    <path d="M155.9,65.7 C164.2,47.4 180.1,35.7 194,22.5 C197.6,19.1 202.8,14.1 208.2,18.5 C213.7,23 210,29.4 206.8,33 C193.4,47.7 185.4,66.8 169.4,79.3 C164.2,82.2 158.9,85.3 153.8,79.1 C149.7,73.9 150.2,69.3 155.9,65.7 Z" fill="#24302A"></path>
                    <path d="M312.2,85.4 C313.3,83.3 314.5,81.2 315.6,79 C317.9,63.8 331.4,58.2 340.9,49.1 C344,46.3 346.9,43.1 350.4,40.8 C353.7,38.6 357.5,39.4 360.9,41.5 C365.2,44.1 363.8,47.6 363.1,51.3 C361,62.1 353.8,70.1 348.4,79.2 C344.4,93.9 332.5,98.2 319.7,101.6 C318,101.6 316.3,101.2 314.7,100.6 C312.3,99.4 310.6,97.5 309.8,95 C308.8,91.3 309.8,88.2 312.2,85.4 Z" fill="#232F29"></path>
                    <path d="M129.9,228.3 C140.1,243.6 136.8,260.3 134.7,276.8 C134,282.3 131.2,287.2 124.6,287.6 C117.6,288 115.8,282.6 114.1,277.4 C113.8,276.4 113.7,275.3 113.5,274.2 C108.5,253.1 104.7,246.8 90.4,235.3 C97,230.1 103.9,231.3 110.9,234.4 C116.8,230.5 123,227.8 130.3,228.6 C130.2,228.4 129.9,228.3 129.9,228.3 Z" fill="#3E4136"></path>
                    <path d="M42.3,258.3 C48.4,261.4 50.1,268.2 59.7,269.9 C70.8,271.8 64.6,287.5 64.1,297.1 C63.6,306.9 64.9,319.7 53.3,323.6 C45.4,326.3 38.9,319.6 39.6,310.4 C40.5,298.6 42.6,287 44.2,274.8 C39.8,271 34.3,276.1 29.3,274.2 C29.1,265.1 38.1,263.7 42.3,258.3 Z" fill="#374039"></path>
                    <path d="M322.5,143.5 C337.5,140.8 349.2,129.9 363.9,126.4 C368,125.4 372.2,124.1 376.3,124.1 C380.6,124.1 385.2,125.8 386.4,130.5 C387.7,135.6 383.7,138.1 379.7,140 C367.1,145.9 354.5,151.7 341.9,157.6 C337.3,159 333.3,162.1 328.1,161.6 C322.8,161.1 316.5,162.5 314.8,155.5 C313.4,149.5 316.1,145.1 322.5,143.5 Z" fill="#26312B"></path>
                    <path d="M175.8,88.5 C184.3,73.8 197.1,62.9 208.7,51 C212.3,47.4 216.7,43.9 221.3,47.5 C226.1,51.2 223,56.6 221,60.9 C212.3,79.4 199.5,94.3 181.8,104.8 C179.6,106.4 177.3,106.9 174.8,105.7 C166.9,99.6 171.7,94.1 175.8,88.5 Z" fill="#25302A"></path>
                    <path d="M212.3,368.3 C217.2,359.9 223.7,355.2 233.9,358.9 C237.9,376.2 233.2,393.1 231.7,410.1 C231.1,416.8 226.7,419.2 220.7,419.4 C214.2,419.6 212.5,414.8 212.2,409.8 C211.4,396 207.5,382.1 212.3,368.3 Z" fill="#242F29"></path>
                    <path d="M280.2,329.7 C279.1,343.9 269.4,341.1 260.4,339.7 C247.6,330 238.4,318 237.1,301.4 C236.7,296.8 235.6,291 241,288.4 C246.4,285.8 250.4,290 253.3,293.7 C262.5,305.5 271.3,317.6 280.2,329.7 Z" fill="#24302A"></path>
                    <path d="M315.2,195.9 C314.2,194.8 313.1,193.8 312.1,192.7 C309.7,188.5 310.3,184.4 312.4,180.3 C313.4,179.2 314.5,178.3 315.9,177.7 C318,177.1 320.3,177.9 322.3,176.9 C330.1,173.3 337.7,169.5 345.6,166.3 C352.6,163.4 359.9,161.6 367.4,165.2 C370.9,166.9 374.1,168.7 374.6,173 C375.2,177.6 371.9,179.6 368.6,181.5 C361.8,185.4 354.9,189.1 348,192.8 C338,203 326.9,202.5 315.2,195.9 Z" fill="#222D27"></path>
                    <path d="M312.3,95.3 C312.9,96.2 313.6,97.2 314.2,98.1 C322.7,105.2 315.6,110.2 311.9,115.6 C307.5,120.2 301.9,122.2 295.8,123 C290.3,122 283.4,123.1 283.1,114.5 C281.4,104.6 272,105.8 265.7,102.8 C256.9,98.7 252.3,94.1 260.4,85.3 C279,81.7 296.8,82.7 312.3,95.3 Z" fill="#242F29"></path>
                    <path d="M68.6,234.2 C75.8,241.6 78.4,255.5 94,251.4 C96.1,250.9 100.6,254.4 100.9,259 C101.8,272.1 100.5,284.8 94.7,296.7 C93.4,299.5 91.6,302.7 87.8,302.6 C83.5,302.5 81.2,299.3 80.1,295.6 C79.2,292.5 78.4,289.3 78.2,286.2 C77.6,270.4 75.5,255.8 55.1,254.5 C64.1,250.7 65.2,241.7 68.6,234.2 Z" fill="#2F3830"></path>
                    <path d="M244.6,345.2 C239.3,356.5 228.8,350.2 220.7,352.3 C212.8,347.6 204.8,343.2 197.2,338.1 C193.5,335.6 188,333.1 190,326.9 C191.8,321.1 196.1,318.8 202.3,318.5 C218,317.9 239.3,331 244.6,345.2 Z" fill="#243029"></path>
                    <path d="M68.6,234.2 C72.4,246.5 73.8,257.2 55.1,254.4 C42.1,249.5 38,237.6 33.3,226.3 C31.2,221.3 30.5,215.2 34.9,211.2 C39.9,206.6 44.9,210.6 49.5,213.2 C58,218.3 64.1,225.5 68.6,234.2 Z" fill="#242F29"></path>
                    <path d="M196,140.3 C207.1,142 210.2,130.6 217.9,126.6 C222.4,124.3 227.1,121.2 230.6,125.9 C233.1,129.3 231.2,134.2 227.6,137.3 C221.1,142.8 214.5,148 207.9,153.4 C204.5,156.4 200.1,158.4 201.6,164.8 C202.7,169.7 203.3,175.8 195.5,177 C192.2,172.5 187.5,172.5 182.7,173 C182.3,171 182.5,167.9 181.3,167.2 C164.4,157.5 164.3,153.3 181,141.9 C182.3,141 183.7,140.2 185.1,139.4 C188.8,137.4 192.5,137.3 196,140.3 Z" fill="#3A4139"></path>
                    <path d="M283.1,114.5 C287.6,116.6 292,118.8 296.5,120.9 C304.8,117.9 310.6,122 315.8,127.7 L315.6,127.5 C318.8,134.9 323.8,142.6 312,147.4 C299.4,148.3 287.5,145.5 276.6,139.2 C270.4,135.6 264.3,131.2 266.4,122.9 C268.6,114.3 275.5,113 283.1,114.5 Z" fill="#232F29"></path>
                    <path d="M139.9,59.3 C141,60.3 142.1,61.3 143.2,62.3 C152.6,69.8 150.8,75 139.9,78.2 C127.2,80.8 114.6,83.4 101.8,85.9 C95.3,87.2 87.9,88.4 85.7,79.9 C83.3,70.2 91.7,68.4 98.3,66.5 C105.5,64.4 112.9,63.4 120.3,61.9 C125.6,61.1 130.9,60 135.7,57.5 C137.3,57.5 138.7,58.1 139.9,59.3 Z" fill="#303B35"></path>
                    <path d="M175.8,88.5 C175.5,93.7 170.9,99 175.8,104.2 C169.2,111.9 168,97.5 162.5,101 C149.5,105.6 137.1,112.1 123,113.7 C116.6,114.4 110.8,114 109.2,106.5 C107.7,99.2 112.6,95.5 118.6,93.9 C127.7,91.4 137,89.7 146.3,87.7 C154,83.9 161.1,83.5 166.8,91.2 C170.5,92.7 172.8,89.4 175.8,88.5 Z" fill="#2F3933"></path>
                    <path d="M139.9,59.3 L139.1,59.1 L138.3,59.3 C130.1,55.8 129.3,50.1 133.3,42.9 C140.3,30.1 150.5,19.8 160.4,9.3 C163.8,5.7 167.5,4.3 171.7,6.8 C174.6,8.6 175.8,12.1 174.1,15.3 C165.2,31.9 160.7,51.9 139.9,59.3 Z" fill="#232E28"></path>
                    <path d="M110.9,234.3 C104.2,237.8 97.3,236.4 90.4,235.2 C80,228.4 77.3,216.1 70,207.1 C66.9,203.3 67.8,198.8 71,195.4 C74.3,192 78.6,190.9 82.5,194 C95.8,204.7 109.8,214.9 110.9,234.3 Z" fill="#28332D"></path>
                    <path d="M173,374.2 C178.3,374.2 182.6,368.4 188.5,371.6 C188.6,388.4 164.1,415.9 147.7,417.2 C144.6,417.4 140.9,418.4 139.5,414.4 C137.9,410 139.3,405.8 142.4,402.5 C151.9,392.4 161.2,381.9 173,374.2 Z" fill="#24302A"></path>
                    <path d="M322.5,328.6 C317.3,332.4 312,333.8 306.3,329.7 C297.3,322.3 293.3,311.4 287.6,301.7 C284.4,296.2 284,289.5 289.2,285.4 C295.7,280.4 300.3,286.8 304,290.9 C313.5,301.8 325,311.9 322.5,328.6 Z" fill="#24302A"></path>
                    <path d="M188.5,118 C194.1,110.9 199.5,103.6 205.5,96.8 C209.5,92.3 213.1,84.2 220.7,88.8 C228.9,93.8 221.9,99.9 219.5,105.3 C214.5,116.5 208.9,127.3 197.9,133.9 C192.9,137.9 188.7,136.1 185.7,131.5 C182.2,126.3 182.1,121.3 188.5,118 Z" fill="#25302A"></path>
                    <path d="M289.6,180 C288,179.7 286.4,179.4 284.9,178.9 C275.5,175.8 266.7,170.9 271.7,159.4 C276.5,148.5 285.3,155.2 292.6,157.6 C296.7,158.7 300,161.8 304.6,161.7 C318.5,161.3 318.8,169.4 315.5,179.6 L315.7,179.4 C307.1,182.9 298.3,181.2 289.6,180 Z" fill="#27322C"></path>
                    <path d="M305.7,53.1 C305.8,49.6 305.9,46.2 306,42.7 C318.5,38.8 321.5,22.6 335.1,20.1 C344.2,15.9 349.9,14.8 345.8,28.6 C343.9,34.8 341,40.2 338.2,45.8 C335.7,53.4 329.4,57.7 323.2,61.4 C314.1,66.9 307,65.4 305.7,53.1 Z" fill="#2F3831"></path>
                    <path d="M176.4,127.6 C168.4,132 162.9,140.5 153.5,142.5 C149,143.5 143.3,144.9 140.8,138.8 C138.5,133.1 139.7,127.9 145.5,124.9 C153.2,121 161.1,117.5 169,113.9 C173.9,110.8 178.3,111.5 181.5,116.2 C185.5,122.3 179.7,124.5 176.4,127.6 Z" fill="#2D3730"></path>
                    <path d="M305.7,53.1 C311.2,62.4 317,65.7 325.4,55.5 C328.7,51.5 333.9,49 338.2,45.8 C339.1,46.9 340.1,48 341,49.1 C336.2,62.1 323.7,68.7 315.7,79 C310.9,67.2 298.3,66.6 289.3,60.8 C284.5,57.7 280,54.3 274.3,50.3 C285.6,50.2 295,59.9 305.7,53.1 Z" fill="#D7CEC3"></path>
                    <path d="M42.3,258.3 C44.5,268.9 34.1,269.2 29.3,274.2 C23.5,274.4 17.7,275 11.9,274.8 C6.1,274.6 1.2,272 0.9,265.6 C0.7,259 6.1,256.1 11.3,255.4 C21.8,254 32.6,251.6 42.3,258.3 Z" fill="#26312B"></path>
                    <path d="M315.5,222.2 C307,214 317.1,209.4 319.2,203.2 C327.3,195.7 337.9,198.5 347.3,196.3 C353.9,201 352.5,205.7 347.4,210.7 C338.5,219.4 327.8,222.9 315.5,222.2 Z" fill="#26312B"></path>
                    <path d="M195.2,192.6 C201,192.9 207.2,191.5 211.9,196.5 C213.4,202.6 214.9,208.8 216.5,214.9 C218.1,221 218.9,227.3 211.3,229.4 C204.4,231.3 200.6,226.4 198.5,220.3 C196.5,214.3 194.7,208.1 192.8,202.1 C188.5,199 191.9,196.4 193.4,193.7 C194.1,193.3 194.7,192.9 195.2,192.6 Z" fill="#2E3831"></path>
                    <path d="M116.6,45.2 C109.4,47.4 102.4,50.2 94.6,49.8 C90.5,49.6 86.6,48.6 85.6,44.5 C84.4,39.3 88.4,36.9 92.6,35.2 C93.6,34.8 94.7,34 95.6,34.2 C109.5,36.5 115.4,27.4 120.4,17.1 C125,21.7 126.5,28 130,33.2 C129.3,36.6 126.3,36.2 124,36.9 C121.3,39.3 120.9,44 116.6,45.2 Z" fill="#2A352F"></path>
                    <path d="M137.7,182.2 C146.5,191.3 150.8,203.8 163.2,210.5 C169,213.6 165.8,224.4 165.5,231.8 C160.3,237.3 165.6,245.8 159.8,251.1 C159.8,243.6 159.9,236.2 159.7,228.7 C159.5,223.4 159.8,217.7 151.7,217.8 C146.1,217.9 144.5,213.4 144.2,209.1 C143.4,200 138.1,193.3 133.4,186.3 C134.8,184.9 136.3,183.5 137.7,182.2 Z" fill="#B4A38F"></path>
                    <path d="M305.9,195.4 C311.7,198.7 312.8,203.2 309.2,208.8 C301.3,215.8 292.2,213.9 283.1,212.6 C279.4,210 274.3,207.2 276,202.4 C277.7,197.5 282.6,194.9 288.7,195.5 C294.3,196.1 300.1,195.5 305.9,195.4 Z" fill="#212C25"></path>
                    <path d="M299.6,19.7 C307.9,22 308.7,13.9 312.2,10 C316.5,5.2 319.7,-0.7 327.7,1.1 C333.9,15.6 325.4,25.2 316.5,34.7 C308.4,36.9 302.9,32.8 298.2,27 C297.3,24.2 297.5,21.8 299.6,19.7 Z" fill="#37413B"></path>
                    <path d="M195.8,177.1 C199,173 201,167.8 198,163.8 C181.9,141.8 204.3,156.6 207.7,153.4 C208,163.3 214.6,170.8 217.8,179.6 C206.3,174.1 205.4,191.8 195.5,189.7 C191.6,185.4 191.5,181.2 195.8,177.1 Z" fill="#DEAC7D"></path>
                    <path d="M130.1,33.1 C117.1,33.6 121.2,23.8 120.5,17 C120.1,13.6 122.4,11.1 123.2,8.2 C124.9,2.4 129.2,-0.3 133.8,0.6 C140.3,1.8 138.6,8 137.9,12.5 C136.7,19.9 135.4,27.3 130.1,33.1 Z" fill="#28332D"></path>
                    <path d="M315.5,179.6 C317,170.2 314.8,163.7 303.7,163.1 C299.4,162.9 295,162 292.6,157.6 C300.1,156.1 315.5,169.4 312,147.2 C319.1,141.6 315.3,134.1 315.6,127.3 C320,127.5 324.4,127.8 328.7,128 C321.9,131.2 321.5,137.1 322.5,143.4 C320.6,147.4 314,149.8 317.6,155.8 C320.7,161 325.9,159.8 330.7,159.2 C334.4,158.8 338.1,158.1 341.8,157.6 C339.1,162.4 334.4,162.8 329.6,162.9 C319.1,163.3 316.7,167.9 322.3,176.8 C320.9,179.7 318.2,179.8 315.5,179.6 Z" fill="#A99277"></path>
                    <path d="M299.6,19.7 C299.6,22.2 299.7,24.7 299.7,27.3 C289.8,39.2 283.7,28.9 276.9,23.3 C272.6,20 270.5,15.3 274.2,11.2 C277.8,7.1 283.2,6 288.6,9.3 C293,12 298.5,13.5 299.6,19.7 Z" fill="#26312B"></path>
                    <path d="M195.8,177.1 C195.7,181.3 195.6,185.5 195.5,189.8 C194.8,190.7 194.7,191.6 195.2,192.6 C195.2,192.6 195.3,192.4 195.3,192.4 C192.4,196 190.3,201.8 184.5,200 C178.1,198.1 181.2,191.9 180.7,187.6 C180.3,184.5 180.4,181.2 181.1,178.1 C181.6,176.4 182,174.8 182.5,173.1 C186.7,171.3 184.8,162.2 191.7,164.6 C197.5,166.5 194.2,172.9 195.8,177.1 Z" fill="#202C25"></path>
                    <path d="M176.4,127.6 C184.1,117.5 178.9,114.4 168.9,113.9 C168.9,108.5 166.5,104.3 162.4,101 C168.8,93.9 170.3,107.1 175.7,104.2 C177.7,104.4 179.7,104.6 181.7,104.8 C179.6,111.4 182.3,115.5 188.4,117.9 C184.2,127.5 186,133.5 197.7,133.8 C197.1,136 196.5,138.1 195.9,140.3 C192.2,140 188.5,139.7 184.8,139.4 C184.3,133.9 183.9,128.2 176.4,127.6 Z" fill="#B68E65"></path>
                    <path d="M276.8,23.3 C284.8,22.3 290.6,33.9 299.6,27.3 C306,25.6 308.5,34.6 314.9,32.7 C316.9,42 309.5,39.1 305.2,40.3 C293.2,36.5 280.5,34.7 269.8,27.4 C272.2,26.2 276,27.3 276.8,23.3 Z" fill="#8E887A"></path>
                    <path d="M305.2,40.3 C306.4,35.2 313.6,37.7 314.9,32.7 C321.6,23.2 331.8,15 327.6,1.1 C334.2,3.5 332.2,8.9 331.5,13.4 C330.9,17.1 330.3,19.7 335,20.2 C328.7,27.8 321.7,34.9 316.2,43.1 C311.8,49.7 309.2,45.7 305.9,42.9 C305.9,41.9 305.6,41 305.2,40.3 Z" fill="#D4D0CA"></path>
                    <path d="M166.8,91.2 C160.4,87.2 153.1,88.6 146.3,87.7 C153.3,78.5 146,78.7 139.9,78.1 C146.7,74 148.9,68.9 143.2,62.2 C147.9,61.6 150.9,67.4 155.9,65.6 C151.6,78.9 157.4,82 169.4,79.2 C167.8,83.1 164.4,86.5 166.8,91.2 Z" fill="#A69279"></path>
                    <path d="M319.1,98.1 C331.6,96.1 340.2,87.9 348.4,79.2 C349.6,87.3 355.9,79.8 358.9,82.6 C348,93.1 334.6,99.7 321.8,107.2 C313.9,106.2 317.6,101.9 319.1,98.1 Z" fill="#CAC6BF"></path>
                    <path d="M312.3,95.3 C295.2,90.8 278.8,82.7 260.3,85.2 C266.1,77.1 276.6,85.6 282.8,78.9 C293,78.9 301.2,88.3 312.1,85.3 C312.2,88.7 312.3,92 312.3,95.3 Z" fill="#ADA89E"></path>
                    <path d="M116.6,45.2 C118.2,41.6 116.7,35.2 124.1,36.8 C125.7,40.9 128.1,43.9 133.2,42.9 C132.6,49 133.4,54.8 138.2,59.3 C132.3,60.9 126.7,63.9 120.3,61.9 C122.6,59 129,60.3 128.5,55.8 C127.9,49.4 123,46 116.6,45.2 Z" fill="#A69279"></path>
                    <path d="M181.2,178 C181.4,181.2 181.4,184.4 181.8,187.6 C182.2,191.1 180.3,195.8 184.6,197.7 C189.8,200.1 191.6,193.9 195.4,192.3 C194.6,195.5 193.8,198.7 193,201.9 C189.4,202.8 186.8,204.9 184.8,207.9 C181.6,202.2 172.9,206.3 170.2,199.6 C175.7,199.7 179.3,198.4 179.2,191.5 C178.9,187.2 177.1,182 181.2,178 Z" fill="#CA8245"></path>
                    <path d="M347.3,196.3 C337.9,198.6 328.5,200.9 319.2,203.2 C316.4,201.5 315.5,198.9 315.2,195.9 C326.3,196.9 337.3,196.4 348,192.8 C347.8,194 347.6,195.1 347.3,196.3 Z" fill="#A99277"></path>
                    <path d="M283.1,212.6 C291.8,211.3 300.5,210.1 309.2,208.8 C308.5,214.1 311.4,220 306.3,224.4 C306.3,218 304.1,214.4 296.7,215.1 C292.2,215.6 287,216.8 283.1,212.6 Z" fill="#A99277"></path>
                    <path d="M289.6,180 C298.3,179.8 307,179.6 315.8,179.4 C313.2,183.4 312.2,187.9 312.2,192.6 C311.1,192.5 310.1,192.4 309,192.2 C309.6,177 293.7,187.8 289.6,180 Z" fill="#A99277"></path>
                    <path d="M442.2,319.3 C444.5,315.1 448,312.7 452.9,312.6 C464.6,318.1 476.3,323.6 488,329.2 C488.7,332.3 487.9,333.8 484.4,332.9 C470.3,328.3 456.2,323.8 442.2,319.3 Z" fill="#D4CFC7"></path>
                    <path d="M484.4,332.9 C485.6,331.7 486.8,330.4 488,329.2 C501.7,334.6 513.9,342 525.3,355.6 C507.7,351.3 498.4,337.7 484.4,332.9 Z" fill="#848882"></path>
                    <path d="M454,238.2 C436.2,252.3 418.4,266.4 400.5,280.5 C412.7,259.2 433,248.3 454,238.2 Z" fill="#D4EDBE"></path>
                    <path d="M315.8,127.6 C309.4,125.3 302.9,123.1 296.5,120.8 C297.9,113.1 306.2,118.8 309.3,114.3 C317.7,113.8 311.6,122.3 315.7,124.5 C315.9,125.6 315.9,126.6 315.8,127.6 Z" fill="#E1D9CF"></path>
                    <path d="M315.6,124.6 C313.5,121.2 311.4,117.8 309.2,114.4 C312.5,109.5 317.1,104.9 314.2,98.1 C315.8,98.1 317.4,98.1 319.1,98.1 C317.8,101.8 317.9,105 321.7,107.2 C318.9,112.7 314.4,117.6 315.6,124.6 Z" fill="#7F6C52"></path>
                </g>
            </g>
        </g>
    </g>
</svg>