<?xml version="1.0" encoding="UTF-8"?>
<svg width="502px" height="205px" viewBox="0 0 502 205" version="1.1" xmlns="http://www.w3.org/2000/svg" xmlns:xlink="http://www.w3.org/1999/xlink">
    <!-- Generator: Sketch 51.2 (57519) - http://www.bohemiancoding.com/sketch -->
    <title>Untitled</title>
    <desc>Created with Sketch.</desc>
    <defs></defs>
    <g id="Page-1" stroke="none" stroke-width="1" fill="none" fill-rule="evenodd">
        <g id="SLT-Website-Graphics" transform="translate(-1456.000000, -1603.000000)">
            <g id="Group" transform="translate(124.000000, 1041.000000)"></g>
            <g id="Group" transform="translate(1456.000000, 1603.000000)" fill="#FFCE05" fill-rule="nonzero">
                <path d="M500.3,201.5 C482.1,198 462.5,199.5 444.1,199.9 C424,200.4 403.8,201.6 383.6,201.5 C364.6,201.4 345.5,197 326.9,193.5 C296.6,187.8 266.5,181.5 236.4,175.1 C219.9,171.6 203.4,167.7 186.6,165.7 C185.3,165.5 184,165.4 182.7,165.3 C224.3,162.9 266.1,160 307.3,154.4 C312.7,153.7 318.2,152.9 323.6,151.7 C331,150.1 338.1,147.4 345.3,145.2 C345.3,145.3 345.3,145.3 345.3,145.4 C345.7,149.2 348.7,156.5 353,158.9 C353,159.9 353,161 353,162 C353,162.8 353.7,163.5 354.5,163.5 C355.4,163.5 356.3,163.5 357.2,163.5 C358,163.5 358.7,162.8 358.7,162 C358.7,160.9 358.7,159.8 358.7,158.7 C362.7,155.8 363.8,147 363.9,143.4 C363.8,138.3 363.4,128.7 355.9,131.1 C353.8,131.8 351.8,133 350,134.6 C341.9,135.2 333.9,136 325.9,137.2 C322.9,137.7 320,138.3 317,138.4 C306.1,138.7 295.2,138 284.4,137.4 C253.5,135.6 222.8,131.7 192,128.5 C176.1,126.8 160.3,125.4 144.4,124 C146,124 147.5,123.9 149.1,123.9 C176.7,123.2 204.2,122.3 231.7,121.3 C288.8,119.3 346.2,117.8 403.1,112.8 C418.9,111.4 434.6,108.7 450.3,106.6 C466.3,104.5 483.5,101.1 499.6,102.8 C501.5,103 501.5,100 499.6,99.8 C486,98.4 471.7,100.9 458.3,102.6 C442,104.6 425.8,107.5 409.4,109.2 C386.6,111.5 363.6,112.6 340.7,113.7 C320.1,114.7 299.4,115.7 278.7,116.5 C278.5,114.7 278.2,113.1 277.6,111.5 C303.9,100.6 330.1,89.7 356.4,78.8 C360.2,77.2 364.1,75.6 367.9,74 C369.7,73.3 368.9,70.4 367.1,71.1 C340.4,82.2 313.7,93.3 287,104.4 C283.5,105.9 280,107.3 276.5,108.8 C274.6,104.7 271.6,101.4 267.7,99.1 C285,73.7 302.4,48.3 319.7,22.9 C322.2,19.2 324.7,15.6 327.2,11.9 C328.3,10.3 325.7,8.8 324.6,10.4 C307,36.2 289.4,62 271.8,87.8 C269.5,91.1 267.2,94.5 265,97.8 C262.2,96.6 259.2,95.9 255.8,95.8 C257.2,68.5 258.6,41.1 260,13.8 C260.2,9.8 260.4,5.8 260.6,1.8 C260.7,-0.1 257.7,-0.1 257.6,1.8 C256.2,29.6 254.8,57.4 253.3,85.2 C253.1,88.7 252.9,92.3 252.8,95.8 C248.8,96.1 245.2,97.3 242.1,99.2 C227.9,74.4 213.7,49.7 199.4,24.9 C197.4,21.3 195.3,17.8 193.3,14.2 C192.3,12.5 189.7,14 190.7,15.7 C205.2,40.9 219.6,66.1 234.1,91.3 C235.9,94.5 237.8,97.7 239.6,100.9 C236.5,103.4 234,106.6 232.2,110.4 C205.9,100.1 179.7,89.9 153.4,79.6 C149.5,78.1 145.7,76.6 141.8,75.1 C140,74.4 139.2,77.3 141,78 C167.6,88.4 194.2,98.8 220.8,109.2 C224.2,110.5 227.6,111.9 231,113.2 C230.4,114.9 229.9,116.7 229.6,118.6 C206.2,119.4 182.8,120.1 159.4,120.8 C148.5,121.1 137.7,121.4 126.8,121.6 C123.7,121.7 120.5,121.7 117.4,121.8 C116.6,121.8 115.9,121.8 115.1,121.8 C91.5,119.9 67.9,118.1 44.4,116.3 C30.8,115.3 15.2,115 2.4,113 C0.5,112.7 -0.3,115.6 1.6,115.9 C12.7,117.7 24.3,117.8 35.4,118.6 C59.3,120.4 83.2,122.3 107.1,124.2 C109.2,124.4 111.3,124.5 113.4,124.7 C114.6,125.1 116.1,125.1 117.6,125 C139.2,126.8 160.9,128.6 182.5,130.8 C212.1,133.7 241.5,137.7 271.2,139.8 C285.3,140.8 299.5,141.7 313.6,141.7 C324.7,141.6 335.7,139.2 346.8,138.1 C346,139.4 345.3,140.8 345,142.3 C333.4,145.6 322.5,149.4 310.5,151.1 C296.9,153.1 283.2,154.5 269.5,155.8 C240.2,158.5 210.8,160.6 181.5,162.5 C175,162.9 168.5,163.3 161.9,163.7 C150.9,162.9 139.9,162.5 128.9,162.2 C127.4,157.3 124.1,153.1 118.3,152.8 C112.9,152.5 108.5,157 106.3,161.9 C71.5,161.8 36.6,162.9 1.9,165.5 C9.09494702e-13,165.6 9.09494702e-13,168.6 1.9,168.5 C32.1,166.2 62.5,165.1 92.8,164.9 C87.8,166.3 81.9,171.2 80.5,176.1 C78.8,181.9 83.7,188.4 89.2,190 C89.3,192.5 89.3,195.1 89.3,197.6 C89.3,198.4 90,199.1 90.8,199.1 C91.2,199.1 91.6,199.1 92,199.1 C92.8,199.1 93.5,198.4 93.5,197.6 C93.5,196.1 93.4,194.5 93.4,193 C93.4,192.1 93.4,191.2 93.3,190.3 C93.3,190.2 93.3,190 93.3,189.9 C93.3,189.9 93.3,189.8 93.4,189.8 C97.2,188 98.4,181.5 98.5,177.5 C98.6,174.1 100.2,166.5 96.6,164.9 C99.5,164.9 102.3,164.9 105.2,164.9 C105,165.6 104.9,166.3 104.8,166.9 C104,173 106.8,186.4 114.7,187.2 C114.9,190 115,192.7 115,195.5 C115,196.3 115.7,197 116.5,197 C117.3,197 118,197 118.8,197 C119.6,197 120.3,196.3 120.3,195.5 C120.2,192 120,188.6 120.1,185.1 C121.8,183.5 123.2,181.3 124.5,179.6 C127.3,176 129.3,172.9 129.7,168.3 C129.7,168.2 129.7,168 129.7,167.9 C129.7,167.8 129.7,167.7 129.7,167.5 C129.7,166.7 129.6,165.9 129.5,165.1 C140.1,165.4 150.8,165.8 161.4,166.6 C161.5,166.6 161.6,166.6 161.7,166.6 C167.4,167 173.2,167.5 178.9,168.1 C194.6,169.7 209.8,172.8 225.2,176.2 C255.8,182.8 286.5,189.3 317.3,195.1 C337.1,198.9 357.3,203.4 377.5,204.6 C395.7,205.7 414.2,204 432.4,203.5 C444.9,203.1 457.5,202.8 470,202.9 C479.5,203 489.3,202.9 498.7,204.6 C501.3,204.7 502.2,201.8 500.3,201.5 Z M255.3,98.5 C266.4,98.7 274.7,105.7 275.9,116.5 C261.6,117.1 247.3,117.6 233.1,118.1 C235.1,107.2 243.6,98.3 255.3,98.5 Z M359.8,134.7 C361.3,136.3 360.9,141.2 361,143.3 C360.9,146.9 360.2,152.7 357.4,155.4 C356.5,156.3 355.5,156.3 354.5,155.9 C354.4,155.8 354.3,155.8 354.2,155.7 C354.2,155.7 354.2,155.7 354.1,155.7 C351.6,154.1 349.4,149.4 348.9,147.5 C347.3,142.5 349.6,138.4 353.8,135.5 C355.5,134.4 358.1,132.9 359.8,134.7 Z M88.8,185.9 C84.3,183.2 82.4,177.9 85.8,173.6 C87.7,171.2 91.1,168.1 94.2,167.5 C96.5,167.1 96.5,168.3 96.5,170.3 C96.5,172.6 96.2,174.9 96.2,177.2 C96.1,181.4 94.6,189.4 88.8,185.9 Z M123.1,177.2 C121.3,179.5 119.8,182.6 116.9,183.3 C109.9,185.1 107.6,170.5 108.6,165.7 C109.5,161.4 113.5,155.4 118.5,155.4 C125,155.4 127.3,162.3 127.4,167.6 C127.2,171.6 125.4,174.2 123.1,177.2 Z" id="Shape"></path>
                <path d="M154.2,178.2 C153.7,172.6 149.5,166.7 143.6,166 C137.1,165.2 130.9,172 130,178.1 C129.2,183.8 133.6,188.7 139,189.8 C139.1,192.1 139.2,194.5 139.3,196.8 C139.3,197.6 139.9,198.3 140.8,198.3 C141.6,198.3 142.3,198.3 143.1,198.3 C143.9,198.3 144.6,197.6 144.6,196.8 C144.5,194.4 144.5,192 144.2,189.7 C149.2,188.5 153.4,184.5 154.1,179.4 C154.2,179.2 154.2,179 154.2,178.8 C154.3,178.5 154.3,178.4 154.2,178.2 Z M133.5,176.9 C134.8,172.9 139,168.5 143.5,169 C148,169.6 151.1,174.5 151.3,178.7 C150.3,190.5 129.5,188.7 133.5,176.9 Z" id="Shape"></path>
                <path d="M499.9,115.6 C501.8,115.6 501.8,112.6 499.9,112.6 C486.8,112.8 473.5,113.4 460.5,115.1 C443.6,117.3 426.8,121.8 410.2,125.7 C409.2,123.7 407.3,122.3 403.9,122.4 C399.8,122.5 398,125.5 397.1,129 C396.1,125.8 394.2,123.1 390.8,122.6 C385.7,121.8 383.1,126.1 382,130.5 C380.9,126.4 378.6,122.8 373.9,122.5 C367.3,122.1 364,130.5 363.9,135.9 C363.8,140.4 364.8,151.1 370.8,152 C370.9,153.9 370.9,155.8 370.9,157.7 C370.9,158.5 371.6,159.2 372.4,159.2 C373.2,159.2 373.9,159.2 374.7,159.2 C375.5,159.2 376.2,158.5 376.2,157.7 C376.1,155.6 376,153.5 376,151.3 C380.1,150 381.8,147 382.5,143.1 C383.6,146 385.5,148.5 388.8,149.1 C388.8,150.3 388.9,151.5 388.9,152.8 C388.9,153.6 389.6,154.3 390.4,154.3 C390.7,154.3 391,154.3 391.3,154.3 C392.1,154.3 392.8,153.6 392.8,152.8 C392.8,151.6 392.8,150.3 392.7,149.1 C395.2,148.4 396.7,146.2 397.6,143.6 C398.3,144.8 399.3,145.6 400.9,145.7 C401.3,145.7 401.6,145.7 402,145.7 C402,146.9 402.1,148 402.1,149.2 C402.1,150 402.8,150.7 403.6,150.7 C403.9,150.7 404.2,150.7 404.5,150.7 C405.3,150.7 406,150 406,149.2 C406,147.6 405.9,145.9 406,144.3 C409.1,142 410.8,137.4 411.3,133.9 C411.5,132.1 411.6,130.2 411.3,128.5 C428,124.6 445,120 462.1,117.9 C474.4,116.5 487.2,115.9 499.9,115.6 Z M375.1,148.3 C374.5,147.9 373.6,148 373.1,148.6 C370.1,148.6 368.9,147 368,144.1 C367.3,141.5 366.8,138.6 366.8,136 C366.9,132.3 368.8,125.8 373.4,125.7 C378.8,125.6 379.6,132.7 379.7,136.6 C379.8,140.9 380,147 375.1,148.3 Z M391.3,146.4 C391.2,146.4 391.1,146.4 391,146.4 C390.8,146.4 390.7,146.4 390.5,146.5 C390.3,146.5 390.2,146.5 390,146.5 C389.2,146.4 388.4,146 387.4,145.3 C384.2,143 384.1,137.4 384.5,133.9 C384.9,130.4 387.5,122.6 392.3,126.5 C395.1,128.8 395.4,134 395.4,137.3 C395.3,140.5 394.2,145.6 391.3,146.4 Z M406.1,139.6 C405.7,140.2 404.8,141.1 403.9,141.8 C403.6,141.9 403.4,142 403.2,142.3 C402.5,142.7 401.8,142.9 401.2,142.7 C398.5,141.8 399.3,136.4 399.5,134.2 C399.8,131.2 400,126.7 403.2,125.6 C409.1,123.6 408.5,130.5 408.1,133.9 C407.7,136 407.2,138 406.1,139.6 Z" id="Shape"></path>
            </g>
        </g>
    </g>
</svg>