<?xml version="1.0" encoding="UTF-8"?>
<svg width="144px" height="187px" viewBox="0 0 144 187" version="1.1" xmlns="http://www.w3.org/2000/svg" xmlns:xlink="http://www.w3.org/1999/xlink">
    <g id="Page-1" stroke="none" stroke-width="1" fill="none" fill-rule="evenodd">
        <g id="tags-icon" transform="translate(77.500000, 87.500000) rotate(20.000000) translate(-77.500000, -87.500000) translate(27.000000, 0.000000)" fill="#B3B3B3" fill-rule="nonzero">
            <path d="M4.57984549,29.564111 L47.4080304,1.70419734 C49.2760904,0.489016447 51.6848443,0.489016447 53.5529044,1.70419734 L96.3810893,29.564111 C98.9380205,31.2274055 100.480467,34.0708521 100.480467,37.121171 L100.480467,165.595691 C100.480467,170.574691 96.4441901,174.610968 91.4651901,174.610968 L9.49574425,174.610968 C4.5167442,174.610968 0.480467161,170.574691 0.480467161,165.595691 L0.480467594,37.121171 C0.480467603,34.0708521 2.0229143,31.2274055 4.57984549,29.564111 Z M50.4804672,53.0598933 C56.6264204,53.0598933 61.6086998,48.0776138 61.6086998,41.9316606 C61.6086998,35.7857075 56.6264204,30.803428 50.4804672,30.803428 C44.334514,30.803428 39.3522345,35.7857075 39.3522345,41.9316606 C39.3522345,48.0776138 44.334514,53.0598933 50.4804672,53.0598933 Z" id="Combined-Shape"></path>
        </g>
    </g>
</svg>