<?xml version="1.0" encoding="UTF-8"?>
<svg width="514px" height="520px" viewBox="0 0 514 520" version="1.1" xmlns="http://www.w3.org/2000/svg" xmlns:xlink="http://www.w3.org/1999/xlink">
    <!-- Generator: Sketch 51.2 (57519) - http://www.bohemiancoding.com/sketch -->
    <title>Untitled</title>
    <desc>Created with Sketch.</desc>
    <defs></defs>
    <g id="Page-1" stroke="none" stroke-width="1" fill="none" fill-rule="evenodd">
        <g id="SLT-Website-Graphics" transform="translate(-4518.865234, 0.117188)" fill-rule="nonzero">
            <g id="Group" transform="translate(4519.000000, 0.000000)">
                <g id="Shape">
                    <g>
                        <path d="M56.9,78.1 C60.5,77 61.8,80.6 64.3,81.7 C72.6,85.3 78.9,86.6 75.7,73.6 C74.9,70.4 75.7,66.8 76.2,63.5 C76.4,61.8 76.7,59.3 79.4,59.4 C82,59.5 84.3,60.6 84,63.7 C83.5,69.3 83.4,75.9 90.5,75.9 C97.6,75.9 100.6,68.5 102.7,62.9 C109.1,45.3 120.8,32 135.3,20.8 C152.6,7.4 173.1,3.5 194.1,1.1 C201.8,0.2 208.4,3.5 214,8.7 C230.1,23.8 247.2,26.2 267.4,16.1 C290,4.8 296.2,6.4 312.7,25.6 C319.1,33.1 325.3,36.1 335.1,35.3 C353.6,33.8 364.5,42.1 366.9,57.5 C369.2,72.5 359.7,88.8 343.5,91.1 C324.3,93.8 309.5,101.7 295.1,114.4 C281.7,126.2 263.5,119.8 247.2,119.6 C238.2,123.8 227.9,124.1 219.3,129.2 C212,131.6 205.4,129.5 198.8,126.5 C179.6,111.9 156.8,110.7 134.1,110.2 C123.6,110 133.9,117.3 131.6,120.4 C131.2,121.8 130.4,123 129.3,124 C126.6,125.7 123.7,125.7 120.8,124.9 C113.9,122.1 108.4,117.1 103,112.2 C98.4,107.1 99.5,102.9 105,99.5 C117.3,96.3 129.8,96.1 142.3,96.7 C127.1,96.7 110.7,81.3 97.2,101.1 C95.8,102.6 94.3,103.9 92.7,105.1 C77.7,114.9 93.9,117.2 97,122.7 C98.4,124.3 99.6,126.1 100.5,128.1 C104,137.7 105.2,147.7 106.1,157.8 C106.6,163 107.5,168.5 102.2,172.3 C93.8,169.3 91.7,162 90.2,154.4 C88,147.6 95.4,137 82.1,134.9 C72.6,138.9 69.6,148 65.8,156.2 C62.8,162.8 60.5,169.7 54.9,175.9 C60.2,173.9 64.7,169.5 69.2,175.3 C66.2,182 68,190.3 62,195.8 C58.4,196 55.9,197.3 56.2,201.5 C53.8,205.2 50.7,209.1 46,206.4 C41.1,203.5 45.5,198.5 45,194.5 C38.7,188.9 36.5,198.1 31.9,198.1 C30.5,198.2 29.2,197.9 28.1,197.1 C16.1,183.5 25.2,172.9 33,162.2 C29.6,158.7 24.4,157.3 21.8,153 C20.3,150.7 19.3,148.2 19.6,145.4 C25,139.4 29.3,144.7 33.3,147.2 C41,152.2 46.6,151.1 51.5,143.3 C59.3,130.7 58.6,114.2 70,103 C72.9,100.2 69.3,97 65.1,96.7 C60.6,96.3 56.6,98.3 52.3,98.9 C50.8,99 49.5,98.8 48.1,98.3 C46.2,96.9 45.2,95.1 45.3,92.8 C45.9,91.3 47,90.5 48.6,90.4 C53.5,87.8 66,90.7 57.3,78.3 L56.9,78.1 Z" fill="#80DD4A"></path>
                        <path d="M196.1,247.7 C200.7,233.5 192.9,220.3 193.1,206.4 C193.8,205.1 194.9,204.5 196.3,204.8 C200.4,206.2 204,209.3 208.7,208.7 C216.1,207.7 217.9,211.5 215.3,220.4 C220.5,213.7 221.5,207 228.7,206.3 C237.5,207.3 244.1,211.9 249.8,218.2 C251.5,220.6 253.3,223.3 253,226.2 C251.2,246 257.9,264.5 260.6,283.7 C261.9,292.9 263.9,301.7 267.3,310.4 C269.1,315.1 272.2,320.2 269.1,325.7 C262.8,320.5 256.2,315.5 250.2,310 C246.7,306.8 243.5,301.4 239,302.8 C234,304.4 235.5,311 234.1,316.2 C225.9,314.1 216.9,313.3 218.8,300.9 C222.1,299.6 233.4,284 232.3,281.4 C226.8,269.1 223.2,256.5 224.4,242.8 C221,252.5 226.3,261 227.7,269.9 C228.5,275.5 236.7,281.6 228.5,286.2 C220.4,290.7 217.1,282 212.7,277.1 C205.8,268 193,262.3 196.1,247.7 Z" fill="#212B25"></path>
                        <path d="M376.1,219.1 C391.1,225.9 404.8,234.9 415.1,247.6 C420,253.5 429.4,255.2 430.4,264.4 C429.9,264.9 429.5,265.5 429,266 C414.6,263.7 400.3,261.1 390.5,248.6 C391.2,246.6 392.8,245.7 394.8,245.3 C357.5,238.6 320.6,229.4 282.2,231.8 C271.3,233.5 262.6,228.8 254.6,222.3 C251.3,219.7 247.1,216.8 248.5,211.8 C250,206.7 255,206.9 259.2,206.6 C261.6,206.4 264,206.3 266.4,206.2 C290.6,204.9 314.7,207.1 338.9,208.9 C346.6,210.8 354.5,211.9 361.9,214.9 C366.4,217.2 371.1,218.9 376.1,219.1 Z" fill="#262E28"></path>
                        <path d="M351.9,375.2 C343.1,370.6 334.3,366 325.4,361.4 C318.4,356.6 312.8,350.3 308.3,343.1 C298,321.3 292.8,298 288.9,274.4 C288.2,270.1 289.1,265.8 291.8,262.1 C303.1,255 308.4,263.9 314.6,270.6 C317.4,273.9 311.8,282.7 323.2,281.1 C328.2,280.4 331,289.6 330.3,295.3 C327.1,320.2 340.3,339.6 350.4,360.2 C352.8,364.9 358.2,369.5 351.9,375.2 Z" fill="#292E27"></path>
                        <path d="M311.6,353.4 C299.7,347.2 287.8,341 277.5,332.2 C261.7,307.2 260.5,277.9 254.1,250.2 C252.1,241.7 254.5,232 267.6,233 C273.2,234.8 277.3,238.5 280.6,243.1 C288.5,252.3 288,263.5 288.9,274.6 C290.5,292.9 296.3,310.3 302.4,327.6 C302,337.4 315,342.5 311.6,353.4 Z" fill="#232B25"></path>
                        <path d="M77.5,396 C83,389.1 77.9,387.4 72.6,387.5 C67.9,387.6 63.3,389.6 58.6,390.8 C61.7,381.1 61.7,381.1 77,377.5 C70,374.4 62.8,373.7 55.9,372.1 C50,370.7 45.4,368.1 52.1,361.8 C62.2,362.6 72.3,363.4 82.4,364.2 C86.4,364.8 89.6,362.5 93.2,361.5 C95.3,361.2 97.2,361.6 99.1,362.3 C109.5,367.6 109.8,368.5 103.5,374.2 C93.5,378 95.1,384 102.4,388 C107.6,390.8 110.2,394.3 112.2,399.2 C111.2,401.1 109.5,402.2 107.7,401.8 C100.9,400.3 102.5,402.5 105.3,406.3 C106.8,408.4 107.3,411.7 103.1,412.7 C97.4,413.6 89.3,409.8 87.4,418.8 C86,425.7 88.2,431.7 95.5,435.6 C99.4,437.7 101.8,442.4 105.2,446.4 C96.1,448 93.7,431.8 83.6,440.2 C80.8,446.5 69.5,445.9 71.1,455.7 C70.8,457.7 70,459.6 68.8,461.2 C66.8,463.2 64.5,464.1 61.7,462.7 C59.1,460.1 57.4,457.1 56.2,453.6 C56,451.2 55.8,448.9 55.6,446.5 C61.6,440.4 60,437 51.7,436.2 C50,437 48.4,437.7 46.7,438.5 C40.1,430.1 44.5,426 52.7,424.4 C68.5,421.3 74.5,410 77.5,396 Z" fill="#33B546"></path>
                        <path d="M396.4,395.3 C390,392.7 383.6,390 377.3,387.4 C362.2,381.4 355.3,367.9 348.8,354.6 C345.9,348.6 343.1,342.5 339.4,336.9 C334.1,327.2 331.1,316.8 330.8,305.7 C330.6,300.9 330.3,296.1 335.3,293.2 C339.4,291.9 342.8,293.5 345.9,296.1 C349.2,299.4 354,303.3 354,307.1 C354,317.5 360.2,309.8 363.1,311.1 C364.6,311.7 365.8,312.6 366.7,313.8 C368.6,316.7 369.7,320.1 369.2,323.4 C366.8,339.9 374.3,353 382.4,366.3 C387.9,375.4 397.8,382.7 396.4,395.3 Z" fill="#282D27"></path>
                        <path d="M57,288.3 C62.3,286.1 66.4,282.7 70.6,278.6 C78.5,270.9 88.1,265.8 97.1,278.2 C98,280.7 98.6,283.2 97.8,285.9 C95.3,292.6 93.6,299.8 88,304.9 C88.6,307.1 80.5,303.2 85.5,308.4 C88.2,311.2 90.6,313.9 89.4,318.1 C81.3,322.4 71.7,325 70.4,336.3 C64.6,338.1 58.9,337.3 53.2,335.8 C50.1,333.4 47,330.9 43.9,328.5 C48.7,315.2 54.4,302.3 57,288.3 Z" fill="#2C3228"></path>
                        <path d="M494.9,369.3 C497.8,375.4 500.7,381.5 503.6,387.6 C500.8,390.7 497.8,388.8 496.2,386.8 C486.8,375 473.2,371 459.7,367.1 C436.7,368.8 422.3,352.6 405.5,341.1 C402,338.3 397.9,335.2 399.8,330.3 C401.6,325.5 406.8,325.4 411.2,325.8 C444.8,329.1 473.7,341.7 494.9,369.3 Z" fill="#36322B"></path>
                        <path d="M96.4,284.1 C96.6,282.1 96.9,280.1 97.1,278.1 C99.3,278.5 101.5,278.9 103.8,279.4 C109.4,276.4 115.5,274.9 121.9,274.6 C123.2,274.8 124.4,275 125.6,275.3 L125.3,275.2 C131.6,276.7 136,280.4 137.9,286.7 C137.7,287.4 137.5,288.2 137.3,288.9 C131.3,293.2 130.3,300.1 128.3,306.4 C127,310.5 128.9,314.2 132.1,316.6 C136.2,319.6 140.2,318.7 143.1,314.3 L143.9,315 C145.7,320.3 141.4,323.2 139,326.8 C133.5,332.6 127.6,328.7 121.8,327.7 C115.4,332.5 113.3,339.5 111.8,346.9 C111.5,347.5 111.3,348.1 111,348.8 C110.4,349 109.7,349.2 109.1,349.5 C105.5,349.7 102.5,348.7 100.3,345.6 C99.9,344.3 99.9,343 100.1,341.7 C101,338.5 102.2,335.5 105.1,333.5 C108.3,319.8 100.1,317.8 89.5,318.3 C85.7,312.1 80.1,307.9 72.3,304.5 C78.6,299.9 83.2,305.6 87.9,304.7 C95.5,303.4 100.1,312.6 108.3,310.3 C112.3,305.6 101.2,301.7 107.2,296.9 C109.7,295 114.8,296.1 114.7,291.6 C114.6,288.9 111,289.4 108.8,289 C104.3,287.7 98.9,289.7 96.4,284.1 Z" fill="#6FD357"></path>
                        <path d="M52.1,361.8 C50.4,364.5 49.7,368.6 53.4,368.3 C65.1,367.3 75,375.1 89.5,372.7 C78.9,382.5 64.7,380 58.6,390.8 C56.7,390.9 54.8,390.9 52.9,391 C50.6,382.2 47.5,374.4 36.5,374.9 C34.7,373.5 34.3,377.3 35.4,375.7 C35.5,375.6 35.8,375.9 36.6,376.2 C38.9,377 41.3,377.7 41.1,380.9 C36.3,394.7 23.2,390.1 13.6,393.3 C9.1,390.7 5.9,386.2 0.7,384.5 C-0.6,370.2 13,371.5 20.1,365.9 C25.5,363.5 28.4,357.6 34.1,355.6 C41.8,352.5 48.6,352.6 52.1,361.8 Z" fill="#2B2F27"></path>
                        <path d="M429.4,402.9 C422,406.6 417.4,398.5 410.9,398.5 C407.8,397.1 404.6,395.8 402,393.4 C390,377.7 378.7,361.6 371.5,343 C368.1,336.7 367,330.2 370,323.3 C373.4,319.5 377.1,320 381,322.4 C387.2,327 392.2,333 398.7,337.2 C404.7,341.1 408.1,346.9 408.8,354 C410.2,369 415.7,381.7 427,392 C429.8,394.6 434.4,398.1 429.4,402.9 Z" fill="#242D26"></path>
                        <path d="M429.4,402.9 C428.5,391 413.8,388.9 411.3,377.7 C410.8,375.4 408.3,372.6 408.4,370 C409,348.4 394.5,336.9 379.5,325.7 C382.2,322.5 385.6,323.4 388.3,325.1 C393.6,328.4 395.7,324.3 398.5,321.4 C403.8,317.4 409.5,319.1 415.2,320 C439.4,323.9 461.6,332.8 482,346.3 C483.8,347.3 485.3,348.8 486.8,350.3 C491.1,356 494.9,361.9 494.9,369.4 C467.7,346.3 438.4,328.4 400.9,329.3 C400.2,336.3 406.2,335.8 407.9,339 C411,343.7 413.3,348.8 415,354.2 C418.9,376 428.5,393.5 450.4,402.1 C453.1,403.2 455.2,405.4 455.1,408.8 C445.5,411.2 437.6,406.1 429.4,402.9 Z" fill="#33B546"></path>
                        <path d="M486.7,350.2 C485.3,350.1 483.8,350 482.4,349.9 C455.8,315.6 417.9,305.5 377.4,301 C371.3,300.3 364.6,302.8 359.6,297.3 C359.1,294.2 360.4,291.7 362.5,289.5 C378.5,282.5 394.2,287.7 409.1,292.5 C425,297.6 441.1,302.5 457.7,309.7 C447.6,292.6 426.6,291.8 416.1,277.4 C415.7,275.2 416.2,273.3 417.6,271.6 C425.3,271.5 425.3,271.5 432.4,274.7 C431.9,272.9 430.3,271.9 429.7,270.3 C428.9,268.5 428.4,266.7 428.7,264.8 L429.5,263.9 L430.5,264.4 C435.5,265.3 439.7,268.5 442.2,272.3 C459,297 475.3,322.2 486.7,350.2 Z" fill="#5C9360"></path>
                        <path d="M128.8,405.8 C136.2,414.6 142.9,423.7 156.4,424 C163.1,424.1 165.4,431.2 165.6,437.1 C165.8,444.1 159.3,443.8 154.9,444.4 C145.1,445.7 136.1,445.6 129.3,435.7 C124.9,429.3 118.8,423.3 110.4,421.4 C110.5,406.3 113.3,403.9 128.8,405.8 Z" fill="#67503A"></path>
                        <path d="M77.5,396 C79.8,398.9 89,399.1 81.6,406 C72.1,414.8 68.4,430.9 50.1,428.6 C42.9,427.7 47.9,435.1 46.7,438.6 C42.2,442.5 37.9,446.7 31.8,448 C18.4,438.3 18.3,437.7 29.6,427.4 C31.5,425.7 32.8,423.8 32.4,421.2 C34.6,419.4 36.8,417.6 39.1,415.8 C43.5,411.3 49.1,414.9 54.1,413.2 C50.7,410.9 44.8,410.8 45.5,404.5 C53.4,391.7 67.1,400.2 77.5,396 Z" fill="#242D26"></path>
                        <path d="M455.1,408.6 C427.8,400.5 413.9,381.9 411.7,353.9 C412.6,350.2 415.8,348.9 418.1,350.8 C431.4,362.1 451.4,367.4 453.1,389.2 C450.9,396.2 465,399.6 457.2,407.8 C456.5,408.2 455.8,408.5 455.1,408.6 Z" fill="#366026"></path>
                        <path d="M103.5,374.2 C110.2,364.8 96,369.7 96.7,364.3 C101.9,359.5 104.7,352.7 110.2,348.1 C111.7,348.4 113.1,349.3 113.5,350.6 C116.9,362.6 123.7,363.6 133,357 C138.4,352.5 145.6,356.3 151.2,352.9 C160.5,356.3 157.8,362 153.6,367.5 C146,377.5 135.3,382.9 123.6,386.6 C114.5,386.5 106.7,384.1 103.5,374.2 Z" fill="#242D26"></path>
                        <path d="M265.7,234.4 C253.4,237.4 256.9,247.5 258.7,254.3 C265.3,278.5 265.1,304.6 278.4,327 C279.5,328.8 279.1,330.7 277.5,332.2 C273.3,331.8 271.7,328.1 269.1,325.7 C256.8,294.4 248.3,262.4 250,228.3 C250.1,225.6 248.3,222.8 247.4,220.1 C256.9,220.6 263.5,224.7 265.7,234.4 Z" fill="#33B546"></path>
                        <path d="M337,293.6 C329.7,307.5 336.9,319.8 341.2,332.4 C348.4,351 359.7,367.3 369.1,384.7 C362,383.9 357.3,378.9 351.9,375.1 C344.8,359.5 338,343.8 330.7,328.2 C326.8,319.8 324.9,311.7 326,302 C326.9,294.7 332.8,281.2 315.2,282 C314.4,282 313.2,275.2 312.2,271.6 C328.1,270.4 331.5,283.2 337,293.6 Z" fill="#6FC979"></path>
                        <path d="M60.4,461.8 C63.5,462.8 66.1,462.1 68.1,459.4 C75.7,456.9 76,462.6 77.1,467.4 C75.9,474.3 70.8,479.5 65,479.9 C56.3,480.5 57.7,486.8 59.3,489.8 C67.4,505.5 58.5,512.9 46,518.9 C38,506.8 38.7,496.1 51.8,487.4 C54.3,485.8 57.8,483.9 55.4,480 C55.1,479.5 52,480.7 50.1,481.2 C48.9,480.3 48.5,479.2 48.8,477.7 C52.5,472.3 54.5,465.7 60.4,461.8 Z" fill="#2B3029"></path>
                        <path d="M80.3,228 C82.2,226.8 84.1,225.6 86,224.4 C87.9,220.3 85.7,219.6 82.3,219.7 C80.8,219.4 79.4,219 77.9,218.7 C72.4,214 72.9,209 77.4,203.9 C81.3,202.5 85.6,204.4 89.5,202.8 C93.6,201.2 97.7,200.1 101.8,202.7 C110.2,210.5 116.2,219.3 112.3,231.5 C110.8,236.1 113.9,239.7 114.2,243.9 C114.3,250.2 111.1,254.2 105.2,256.2 C100.1,252.5 98.3,246.5 98.4,241.3 C98.6,223.7 91.3,230 83.6,236 C78.3,235 79.5,231.4 80.3,228 Z" fill="#BB7949"></path>
                        <path d="M123.7,386.7 C131,377.9 142.5,374.8 150.4,365.7 C155.7,359.6 153.6,357.5 151.3,353.1 C154.2,352.2 157.2,351.3 160.1,350.4 C161.1,350.3 161.7,350.6 162.1,351.2 C162.5,351.9 162.5,352.3 162.3,352.4 C164.6,358.9 170.2,361.3 175.9,363.6 C176.5,367 174.2,368.5 171.8,370 C158.7,372.1 168.4,379.7 168.2,384.9 C168.3,387.8 167.1,390 164.3,391.1 C156.3,392.5 149.8,386.1 141.9,386.8 C135.8,389.2 129.7,387.7 123.7,386.7 Z" fill="#5C9360"></path>
                        <path d="M218.1,278.7 C221.2,280.5 222.3,287 226.8,284.6 C232,281.9 227.7,277.8 225.9,274.9 C220.4,266.1 222.3,254.8 215.5,246.5 C212.6,242.9 214.8,240 218.1,238.3 C221.4,236.6 224.6,233.3 228.7,235.8 C232,237.9 233.1,241.7 231.5,244.8 C224.2,258.8 231.6,271.1 236.2,283.4 C238.4,289.3 238.9,292.1 232.1,293.7 C228.2,294.6 223.8,295.1 226.2,302.1 C226.9,304.3 221.7,299.9 218.8,300.9 C217.9,299.5 217,298.2 216.2,296.8 C210.7,291.1 214.2,284.8 214.9,278.7 C215.9,277.4 217,277.4 218.1,278.7 Z" fill="#17963E"></path>
                        <path d="M457.2,407.8 C459.2,400.3 446.9,399.5 449.6,391.6 C453.3,381.4 459.4,380.1 468.4,385.9 C474.1,389.5 480.3,392.3 486.8,394.6 C488.2,395.2 489.4,396 490.6,397 C494.8,401.6 501,406.2 490.6,410.7 C479.6,407 468.2,410.3 457.2,407.8 Z" fill="#366026"></path>
                        <path d="M371.8,325 C372.4,329.7 373,334.4 373.6,339.2 C379.9,359.5 391.8,376.5 405.5,392.4 C408.8,393.1 410.3,395.4 411,398.5 C404.9,403 400.6,399.4 396.5,395.3 C391.1,386.6 385.9,377.8 380.2,369.3 C370.2,354.4 362.5,339 365.2,320.2 C365.6,317.6 363.9,314.7 363.1,311.9 C374.9,310.2 371,319.2 371.8,325 Z" fill="#6FD357"></path>
                        <path d="M32.3,421.1 C34.7,422.1 41.1,424.2 37.5,425.3 C21.2,430.2 23.2,437.7 31.7,447.9 C22.3,452 19.6,467 5.4,463.6 C4.5,450.2 7.7,439 20.6,431.9 C25.2,429.4 28.5,424.8 32.3,421.1 Z" fill="#99714A"></path>
                        <path d="M490.5,410.7 C498.1,403.2 487.4,402.1 486,397.8 C486.5,396.7 487.2,395.8 488.3,395.2 C490.2,394.2 492.5,394 493.7,391.9 C491,383.8 483.2,382.2 477,378.7 C470.4,374.1 460.6,374 457.4,364.8 C458.4,363.7 459.6,363.2 461.1,363.1 C478.4,365.9 491.1,376.6 503.6,387.6 C504.5,388.7 505.3,389.9 506.2,391 C511.2,397.3 514.8,406.3 510.5,411.7 C506.8,416.1 497.2,414.4 490.5,410.7 Z" fill="#6FC979"></path>
                        <path d="M57,288.3 C61.3,295 67.3,301.3 53.9,305.9 C51.4,306.8 52.5,316.6 50.7,322.3 C49.4,326.6 47,327.3 43.9,328.4 C35,324.6 40.3,321.6 44,317.6 C47,314.4 52.1,309.5 42.2,308.1 C37.1,305.4 31.7,303.3 26.6,300.6 C27.6,296.9 30.9,294 33.7,294.6 C42.8,296.5 49.8,292.4 57,288.3 Z" fill="#B28A65"></path>
                        <path d="M78.3,204.9 C74.8,209.4 77.5,214.1 77.9,218.7 C71.7,223.8 65.2,224.1 58.2,220.5 C47.8,215.3 56.9,206.4 54.4,199.8 C55.4,199.2 56.3,198.6 57.3,197.9 C60.3,197.5 62.6,195.6 64.9,194 C68.2,191.8 71.7,189.7 75.5,192.3 C80.2,195.6 81.1,199.9 78.3,204.9 Z" fill="#2F352D"></path>
                        <path d="M169.1,368.6 C171.4,366.9 173.6,365.3 175.9,363.6 C182.1,363.3 183.4,368.3 185.5,372.4 C187,379.6 178.4,385 181.8,392.6 L181.8,392.7 C180.5,397.2 178.6,401.2 174.4,403.8 C171.6,403.4 168.8,402.9 166,402.5 C161.8,400.4 161.3,396.7 161.8,392.5 C162.1,391.9 162.4,391.3 162.7,390.8 C163.8,388.8 164.8,386.8 165.9,384.7 C167.5,379.5 160.7,372.5 169.1,368.6 Z" fill="#2E352D"></path>
                        <path d="M216.6,279.9 C222.5,285.7 213.2,291.2 216.2,296.9 C211.6,299.4 206.7,297.2 201.4,299 C192.2,302.1 185,295.8 182.6,285.8 C190,279.3 200.8,282.9 208.5,277.2 C211.6,276.7 214.4,277.3 216.6,279.9 Z" fill="#3B372C"></path>
                        <path d="M105.2,256.2 C107.6,252.5 110,248.8 112.4,245.1 C112.8,243.7 113.6,242.4 114.6,241.4 C120.4,237.6 126.4,235.7 133.2,238.8 C134.6,240.4 138,243.1 135.1,244.1 C117.2,250.3 119.3,262 125.7,275.2 C124.8,275.3 124,275.7 123.3,276.1 C116.6,275.2 111.1,272.8 109.5,265.3 C110.6,261.1 107.1,259 105.2,256.2 Z" fill="#2D2E27"></path>
                        <path d="M376.1,219.1 C371,222.8 366.1,221.1 361.3,218.5 C356.9,210.2 348.3,213.3 341.5,211.2 C332.7,207.1 321.8,211.9 313.8,204.6 C322.7,199.7 331,192.9 342.2,197.6 C353.6,204.8 364.9,211.9 376.1,219.1 Z" fill="#32352E"></path>
                        <path d="M60.4,461.8 C59.1,469.1 57,475.9 49.3,479.1 C42.8,483.6 37.6,477.5 31.8,476.9 C35.2,464.2 43.4,456.6 56.1,453.6 C60.3,454.9 61.2,457.9 60.4,461.8 Z" fill="#2A3029"></path>
                        <path d="M143.4,168 C142.2,169.2 140.9,170.4 139.7,171.5 C127.4,179.4 113.7,183 99.5,185.6 C95.3,185 92.7,182.9 93.2,178.3 C96.2,176.9 100,176.9 101.5,173.1 C101,167.5 104.6,165.9 109.2,165.1 C120.5,167.2 132.2,164.6 143.4,168 Z" fill="#33B546"></path>
                        <path d="M162.3,352.4 C161.6,351.7 160.8,351.1 160.1,350.4 C153.9,347.4 152.5,339.8 145.7,336.7 C152.8,334.8 156.8,326.6 164.9,330.1 C164.5,331.4 164.2,332.8 163.6,334.1 C165.3,334.2 165.2,332.4 166.2,331.7 C174.9,333.7 178.2,342.1 177.5,348 C176.7,354.5 166.9,348.2 162.3,352.4 Z" fill="#645239"></path>
                        <path d="M68.1,186.8 C66.3,182.5 55.3,182 62.2,174.2 C69.3,166.2 78.7,168.1 86.5,178.3 C89.1,181.6 86.9,183.8 84.8,186 C79.4,189.6 73.9,191.3 68.1,186.8 Z" fill="#544E3D"></path>
                        <path d="M68.1,186.8 C73.5,186.6 78.8,186.4 83.6,183.5 C87.1,191.1 95.1,191.5 101.4,194.7 C101.8,203.3 91.2,201.4 89,207.4 C84.7,209.7 81.3,208.2 78.4,204.9 C77.1,185.3 65.2,197.9 57.4,197.9 C61,194.3 66.7,192.6 68.1,186.8 Z" fill="#C19182"></path>
                        <path d="M157,273.6 C153.9,265.7 157.5,259.4 161.7,253.2 C171.5,249.1 173.8,256.5 176.8,262.9 C177.8,271.8 173.4,277.5 165.9,281.3 C161.2,280.7 158.4,277.9 157,273.6 Z" fill="#31322B"></path>
                        <path d="M143.8,314.9 C143.8,314.9 143,314.2 143,314.2 C139.7,308.8 143.8,304.1 144.4,299.1 C145,293.3 148.7,289.5 153.9,288.1 C156.6,287.3 159.4,290 160.6,292.6 C163,298.1 164.3,303.7 157.5,307.4 C155,311.2 151.6,313.6 147,314 C145.8,314.3 144.8,314.6 143.8,314.9 Z" fill="#323A34"></path>
                        <path d="M165.8,281.3 C168.5,276 171.1,270.6 176.3,267.2 C185.8,273.5 198.9,271 207.4,279.7 C201.3,291 190.7,283.3 182.5,285.7 C179,276.7 171.1,283.8 165.8,281.3 Z" fill="#64B74E"></path>
                        <path d="M128.8,405.8 C118,405.5 112.5,411.5 110.3,421.4 C106.4,419.7 104.6,416.3 103,412.7 C104.7,408.1 102.7,405.3 98.3,404.3 C94.3,403.3 92.4,401.2 94.1,397.2 C96.5,391.5 98.9,395.8 101.5,397.2 C104.7,398.9 108.1,401.3 112.1,399.2 C117.7,401.4 123.3,403.6 128.8,405.8 Z" fill="#33332A"></path>
                        <path d="M46.5,217.9 C45.8,218.5 45.1,219.2 44.3,219.8 C38.4,224.5 31.6,223.7 25.1,222.1 C22.6,221.5 22.5,218.3 23.7,215.9 C27.4,208.5 31.9,202.6 41.6,205 C46.6,208 50,211.7 46.5,217.9 Z" fill="#393E35"></path>
                        <path d="M102.1,342.2 C101.5,342.9 101,343.6 100.4,344.2 C101.5,352.1 96,357.2 92.7,363.4 C89.8,370.5 86.1,367.3 82.4,364.2 C81.3,355.3 80.4,346.4 83,337.6 C89.8,337.1 96.3,338.2 102.1,342.2 Z" fill="#4A4434"></path>
                        <path d="M146.9,314 C148.7,309.2 152,306.6 157.4,307.4 C162.3,317.3 170.4,318.2 179.8,315.5 C181.3,320.2 179.3,323.6 175.5,326.2 C170.8,324.6 166.8,318.4 161.2,322.2 C150.1,329.9 148.8,321.7 146.9,314 Z" fill="#A97E59"></path>
                        <path d="M41.1,380.8 C36.1,377.9 29.3,381.5 24.1,375.7 C33.7,365.2 43.6,372.2 52.4,375.8 C60.8,379.3 52.7,385.8 52.9,390.9 C46.2,390.8 46.8,382.1 41.1,380.8 Z" fill="#6FC979"></path>
                        <path d="M175.5,326.2 C175.1,321.9 176.5,318.3 179.8,315.5 C180.3,315.4 180.8,315.2 181.2,315.2 C190.3,315.6 193.4,322 195.6,329.3 C196.5,332.4 194.7,333.2 192,334.2 C183.6,337.3 179.5,332 175.5,326.2 Z" fill="#30362E"></path>
                        <path d="M102.1,342.2 C94.3,346.5 88.5,342.8 83,337.6 C86.4,327 96.3,325.1 105,333.2 C105.2,336.6 104.8,339.8 102.1,342.2 Z" fill="#986643"></path>
                        <path d="M121.6,327.6 C127.1,323 133.1,327.4 138.8,326.7 C142.9,334.6 139.5,341.5 132.3,342.7 C121.5,344.5 123.2,334.1 121.6,327.6 Z" fill="#2E352E"></path>
                        <path d="M26.7,300.6 C35,296.7 40,299.6 42.3,308.1 C35.8,316.3 26.4,312.6 18,314.7 C17.5,307.3 22.5,304.2 26.7,300.6 Z" fill="#27312B"></path>
                        <path d="M99.7,194.2 C87.1,198.2 83.1,195.6 83.5,183.5 C85.6,182.5 86.9,181 86.4,178.4 C88.6,178.4 90.9,178.4 93.1,178.3 C94.8,180.9 96.9,182.9 100.2,183.4 C105.9,187.3 105.6,190.9 99.7,194.2 Z" fill="#2D322B"></path>
                        <path d="M122.2,136.7 C132.1,131.7 138.8,136.4 144.3,144.2 C142.4,146.9 140.4,149.7 140.3,153.2 C136.4,157 132.4,155.2 128.4,153.6 C127.6,147.6 117.1,145 122.2,136.7 Z" fill="#404239"></path>
                        <path d="M109.2,165.2 C106.6,167.9 104.1,170.5 101.5,173.2 C98.3,172.6 95,171.9 91.7,171.3 C89.5,166 86.2,160.7 92.8,156.1 C101.5,153.4 105.8,158.4 109.2,165.2 Z" fill="#3E3F33"></path>
                        <path d="M46.5,217.9 C46.6,212.9 43.9,209 41.6,204.9 C47.4,207 50.5,202.3 54.4,199.7 C57.8,203 66.3,204.8 57.7,211.7 C54.1,214.6 57.2,217.6 58.2,220.5 C54.3,219.7 50.4,218.8 46.5,217.9 Z" fill="#B27B49"></path>
                        <path d="M80.3,228 C81.4,230.7 82.4,233.3 83.5,235.9 C82.2,241.2 78.1,243.5 73.6,245.4 C66.8,243.2 64.9,237.8 64.8,231.4 C69.3,227.3 74,224.1 80.3,228 Z" fill="#323933"></path>
                        <path d="M45.3,404.5 C50.2,411.9 57.7,409.6 65.1,409.5 C57.6,418.6 48.7,419.1 38.9,415.7 C40,411.3 41,406.9 45.3,404.5 Z" fill="#99714A"></path>
                        <path d="M369.1,384.8 C356.5,369.1 347.2,351.7 341.2,332.5 C350.7,343 353.2,357.5 361.5,368.8 C366.4,375.4 371.5,381.6 377.2,387.4 C374.5,386.5 371.8,385.6 369.1,384.8 Z" fill="#292E27"></path>
                        <path d="M77.1,467.4 C74.3,464.5 72.4,460.6 68.1,459.4 C68.2,458.3 68.4,457.3 68.5,456.2 C71.5,446.3 79.7,447.7 87.2,447.7 C93.9,459.5 76.4,458.8 77.1,467.4 Z" fill="#A66E52"></path>
                        <path d="M87.2,447.8 C83.6,456.4 72.4,448.2 68.5,456.3 C63.6,441.7 75.9,443.2 83.5,440.2 C84.7,442.7 85.9,445.3 87.2,447.8 Z" fill="#3D372D"></path>
                        <path d="M311.6,353.4 C309.5,343.8 299.7,337.9 299.1,327.6 C305.6,328.5 304.9,336.6 310.2,338.8 C315.3,346.3 320.4,353.8 325.5,361.3 C319.8,360.5 315.5,357.3 311.6,353.4 Z" fill="#17963E"></path>
                        <path d="M141.9,386.9 C150.5,379.3 156.2,387.2 162.6,390.8 C162.6,390.8 162.6,391 162.6,391 C160.7,396.6 157,399.1 151,398 C148,394.3 145,390.6 141.9,386.9 Z" fill="#35332A"></path>
                        <path d="M109.4,265.3 C113,270.2 120.7,269.8 123.2,276.1 C117.1,279.6 110.6,280.4 103.8,279.3 C107.3,275.3 104.5,268.8 109.4,265.3 Z" fill="#D0A488"></path>
                        <path d="M51.7,436.3 C56.7,433.4 63.1,429.8 65.8,437.3 C68.4,444.7 61.9,446.7 55.6,446.6 C53,443.6 50.8,440.5 51.7,436.3 Z" fill="#372E27"></path>
                        <path d="M133,357.1 C130.4,359.2 128.1,362.2 125.1,363.3 C119.7,365.4 109.4,374.1 114.4,357 C115.1,354.7 111.7,351.1 110.2,348.1 C110.6,347.5 111.1,347 111.6,346.6 C117.6,352.6 120.2,365.3 133,357.1 Z" fill="#986643"></path>
                        <path d="M181.8,392.6 C173.5,384.1 181.5,378.6 185.5,372.4 C194,380.9 187.4,386.7 181.8,392.6 Z" fill="#B88C65"></path>
                        <path d="M64.8,231.5 C67.8,236.2 70.7,240.8 73.7,245.5 C69.1,247.9 64,248.9 60.8,244.1 C57.5,239 61.9,235.2 64.8,231.5 Z" fill="#C08D61"></path>
                        <path d="M53.2,335.7 C59.1,331.3 64.9,329.1 70.4,336.2 C64.4,345 58.6,346.4 53.2,335.7 Z" fill="#B48052"></path>
                        <path d="M144.8,268.6 C147.8,273.8 142.6,277.2 141.2,281.2 C146,283.9 148.3,280.2 151.2,279.2 C149.9,287.3 143.5,287.9 137.2,288.7 C137.2,288.1 137.3,287.5 137.4,286.9 C132.9,278.1 131.6,270.5 144.8,268.6 Z" fill="#33B546"></path>
                        <path d="M31.7,477 C38.4,470.4 43.5,477.2 49.2,479.2 C49.6,479.9 49.9,480.6 50.1,481.3 C43.4,482.3 35.3,489.4 31.7,477 Z" fill="#B08157"></path>
                        <path d="M122.2,136.7 C123.6,142.6 131.1,146.2 128.4,153.6 C120.7,150.1 111.8,147 122.2,136.7 Z" fill="#C8986E"></path>
                        <path d="M92.8,156 C92.4,161.1 92.1,166.1 91.7,171.2 C87.3,170.5 82.1,169.3 82.8,164 C83.5,159.7 86.4,154.9 92.8,156 Z" fill="#CF9E73"></path>
                        <path d="M151.1,398 C155,395.7 158.8,393.3 162.7,391 C163.8,394.8 164.9,398.7 166,402.5 C159.3,406.6 155.4,401.5 151.1,398 Z" fill="#B88457"></path>
                        <path d="M0.7,384.4 C10.6,379.1 12.3,385.9 13.6,393.2 C6.4,394.6 1.7,392.2 0.7,384.4 Z" fill="#BD8B5E"></path>
                        <path d="M174.4,403.8 C173.3,397.7 176.9,394.8 181.8,392.7 C184.1,395.6 187,398.6 184.3,402.4 C181.7,406.1 178,405.2 174.4,403.8 Z" fill="#C48753"></path>
                        <path d="M34.1,355.5 C30,359.7 30.3,369.9 20.1,365.8 C22.4,359.2 27.3,356.1 34.1,355.5 Z" fill="#B18B69"></path>
                        <path d="M82.3,219.8 C84.6,215.7 87.5,214.2 91.3,218 C93,219.7 94.9,221.9 93.7,224.1 C91.7,227.7 88.6,223.9 86,224.5 C84.8,222.9 83.6,221.3 82.3,219.8 Z" fill="#453A2E"></path>
                        <path d="M140.4,153.3 C137,148.2 136,144.2 144.4,144.3 C147,148.3 149.5,152.3 152.1,156.3 C152.1,156.3 152.2,156 152.2,156 C147.9,156.4 145.1,150.6 140.4,153.3 Z" fill="#5C9360"></path>
                        <path d="M166.2,331.6 C165.7,334.9 169.6,339.2 164.3,341.2 C162.9,341.7 159.8,340.6 159.2,339.4 C156.4,333.7 161.6,332.3 164.9,330 C165.7,330.2 166.2,330.8 166.2,331.6 Z" fill="#B7763E"></path>
                        <path d="M371.8,325 C368,321.3 371,312.9 363,312 C363,312 362.6,312.3 362.6,312.3 C354.9,310.5 350.9,303.7 345.1,299.4 C342.4,297.5 339.7,295.6 337,293.7 C327.7,287.5 324.3,274.8 312.3,271.7 C305.5,270.1 303,257.8 293.1,263.9 C288.9,266.6 287.9,263.1 287.6,260.5 C286.9,253.6 282.3,249.5 277.9,245.1 C273.9,241.6 269.9,238.1 265.8,234.5 C259.7,229.7 253.6,224.9 247.5,220.2 C241.3,216.2 235.1,212.1 228.9,208.1 C225,207.3 222.9,205 223,200.9 C223.8,200 224.6,199.1 225.5,198.2 C241.2,200 257,200 272.4,204.1 C273.7,207.9 272.3,209.7 268.4,209.8 C262.7,213.6 256.2,209.6 247.1,211.6 C259.5,220.7 267.7,231.7 283.4,228.2 C285.3,234.5 285.1,242.3 293.9,244 C303.3,250.4 314,253.4 324.7,256.4 C325.9,258.2 326.1,260.2 325.9,262.3 C326.2,279.1 342,279.2 351.7,285.7 C355.1,288 360.5,285.9 363.3,290.4 C363.8,293.4 361.4,294.8 359.9,296.8 C371.5,307.8 385.1,316.1 398.8,324.1 C397.1,329.2 395.9,335.4 388.5,329.1 C385.9,326.9 383,325.3 379.4,325.9 C377,324.1 374.6,321 371.8,325 Z" fill="#D4EDBE"></path>
                        <path d="M271.2,204.3 C255.5,205.2 239.7,207 225.4,198 C224.1,192.4 216.3,192.5 214.9,184.5 C243.9,183.9 272.1,183.2 296.6,202.1 C288.6,209 279.9,205.9 271.2,204.3 Z" fill="#262D27"></path>
                        <path d="M226.5,147.5 C242,133.7 315.8,136.8 341.8,145.4 C304.1,146.4 266.2,141.7 226.5,147.5 Z" fill="#212B25"></path>
                        <path d="M190.4,176.9 C193.6,165.5 201,162.3 212.2,164.9 C225,167.8 238.7,168.3 249.2,178.7 C233.3,177.5 217.7,178.2 202.1,179 C198.6,176.3 192.6,187.1 190.4,176.9 Z" fill="#312E28"></path>
                        <path d="M222.9,200.7 C224.9,203.1 226.8,205.5 228.8,207.9 C224.7,210.1 222.2,213.6 221.9,218.2 C221.7,222.1 222.7,226.5 217,226.6 C214.9,226.6 212,225.4 210.9,223.7 C208.2,219.8 210.3,216.5 213.5,213.7 C214,213.2 214,212 214.6,209.7 C204.9,218.2 199.2,213.9 194.9,205.1 C194.9,195.7 199.9,193.7 207.8,196.7 C210.8,197.9 213.1,200.8 216.6,201.1 C218.6,201 220.8,200.9 222.9,200.7 Z" fill="#B4713C"></path>
                        <path d="M271.2,204.3 C279.6,203.5 288.1,202.8 296.5,202 C302.2,203.8 307.8,206 313.9,204.5 C323.1,206.2 332.3,208 341.5,209.7 C341.8,211.8 340.9,212.8 338.7,212.8 C315.3,210.2 291.8,208.7 268.2,209.5 C269.3,207.8 270.2,206.1 271.2,204.3 Z" fill="#77897B"></path>
                        <path d="M99.6,204.1 C113.6,202.4 111.6,215.7 116.7,222.4 C117.8,224.9 118.9,227.4 120,229.8 C120.8,234.9 118.3,238.8 115.6,242.7 C114.5,243.5 113.5,244.3 112.4,245.1 C110,239.1 102.1,235.5 110.2,226 C114.8,220.7 104,211.4 99.6,204.1 Z" fill="#303329"></path>
                        <path d="M190.4,176.9 C193.3,183.2 199,174.2 202.1,179 C198.3,181.3 195.4,183.8 200.3,187.8 C199.1,193.3 196.5,197.5 190.5,198.8 C179.3,195.6 177.8,189.4 185,180.7 C186.9,179.4 188.7,178.2 190.4,176.9 Z" fill="#B56B3B"></path>
                        <path d="M190.3,198.6 C193.9,195.3 195,189.6 200.4,187.9 C205.8,192.3 211.1,196.8 216.5,201.2 C215,202.7 213.7,205.8 211.2,202.8 C204.2,194.3 199.3,198.2 194.8,205.2 C194.3,205.7 193.8,206.1 193.2,206.5 C192,204.8 190.9,203.2 189.7,201.5 C189.1,200.3 189.3,199.3 190.3,198.6 Z" fill="#43352A"></path>
                        <path d="M144.8,268.7 C138.7,273.4 134.9,278.9 137.3,287.1 C132.9,283.5 127.6,280.7 125.1,275.1 C130.1,268 134.8,260.1 144.8,268.7 Z" fill="#403329"></path>
                        <path d="M188.6,231.6 C183.6,224.3 177,217.7 177.8,207.8 C183.9,204.1 186.6,206.8 187.7,213 C188.7,219.1 190.5,225.2 188.6,231.6 Z" fill="#3D332B"></path>
                        <path d="M190.3,198.6 C190.1,199.6 189.9,200.5 189.6,201.5 C183.8,198.6 176.7,196.8 176.5,188.6 C176.3,183.3 181.1,182.2 185.1,180.7 C183.3,187.7 182.1,194.5 190.3,198.6 Z" fill="#4F372A"></path>
                        <path d="M115.5,242.7 C109.9,236 119.3,234.4 119.9,229.8 C124.3,232.8 128.7,235.8 133,238.7 C127.2,240.1 121.4,241.4 115.5,242.7 Z" fill="#BB7949"></path>
                        <path d="M323.7,256.6 C309.8,263.7 302.5,250.2 292.1,246.4 C289.6,245.9 288.4,243.5 286.3,242.3 C283.8,240.9 280.8,239.4 281.7,235.9 C282.7,232 286.4,231.4 289.7,230.6 C294.5,229.5 299.4,230.5 304.2,230.8 C331.2,232.7 358.2,235.7 384.3,243.4 C387,244.2 390.2,244.2 391.3,247.6 C402.6,255.8 416.4,258.6 428.7,264.7 C433.2,268.4 436.8,272.8 439,279 C430.4,280.9 425.1,273.2 417.8,272.7 C413.2,277.5 407.9,275.4 403,273.6 C384.7,267 365.8,264.3 346.5,263.5 C338.4,263.2 330.1,262.9 323.7,256.6 Z" fill="#212B25"></path>
                        <path d="M391.3,247.6 C356,238.9 320.6,231.2 283.8,234.1 C283.4,241.4 290.7,241.7 292.1,246.4 C281.4,244 276.3,238.9 283.2,228 C296.2,225 309.2,227.5 322.1,228.8 C346.8,231.3 371.1,235.9 395,242.6 C397.5,243.3 399.4,244.6 399.9,248.2 C396.9,247.9 394.1,247.8 391.3,247.6 Z" fill="#77897B"></path>
                        <path d="M338.8,212.9 C339.7,211.9 340.7,210.9 341.6,209.8 C349.5,209.8 358.7,206.7 361.4,218.5 C353.8,216.6 346.3,214.8 338.8,212.9 Z" fill="#6FD357"></path>
                        <path d="M277.8,245 C288.5,246.7 287.6,257.8 293,263.8 C293.4,290 302.4,314.3 310.2,338.8 C303.7,337.8 303,331.2 299.1,327.6 C290.7,307.5 284.6,286.9 285.3,264.9 C285.5,257.1 281.9,251.1 277.8,245 Z" fill="#6FD357"></path>
                        <path d="M92.6,363.4 C90.6,355.2 96,349.9 100.3,344.2 C103.6,345.5 106.9,346.8 110.1,348.1 C109.4,356.6 108.2,364.7 96.6,364.3 C95.4,364 94,363.7 92.6,363.4 Z" fill="#986643"></path>
                        <path d="M345.1,299.4 C352.8,301.2 357.5,307 362.6,312.3 C359.4,314.2 356.1,316 351.3,318.9 C356.4,309.2 346.9,305.9 345.1,299.4 Z" fill="#33B546"></path>
                        <path d="M461,363.1 C459.9,363.8 458.8,364.6 457.7,365.3 C459,379.1 472.8,379.6 480.5,386.6 C484.3,389.5 487.1,392.8 486.3,398 C481,398.4 477.5,394.8 473.2,392.7 C466.2,389.2 458.3,379.7 451.8,393.6 C451.1,393 450.3,392.3 449.6,391.7 C446.7,375.5 426.3,355.2 411.7,354 C408.1,349.6 406.9,344.5 407.9,338.9 C415.8,344.5 425.3,347.9 431.1,356.4 C434.4,361.2 439.8,362.5 445.4,361.7 C450.7,360.9 455.9,361 461,363.1 Z" fill="#77897B"></path>
                        <path d="M108,298.6 C105.6,294.1 105.9,289.6 107.8,285.1 C113.1,285.9 122,281.4 121.4,291.5 C121.1,298.4 115.7,302.2 108,298.6 Z" fill="#37322A"></path>
                        <path d="M405.4,392.4 C389.4,377.9 378.8,360.1 373.5,339.2 C382.1,358.1 393.8,375.2 405.4,392.4 Z" fill="#282D27"></path>
                        <path d="M398.8,323.8 C384.7,322.8 363.3,307.9 359.9,296.5 C391.5,293.8 420.3,304.7 448.6,316 C463.7,322.1 479.3,330.5 482.5,349.8 C466,345.2 453.3,332.4 436.5,328.2 C424,325.2 411.9,320.5 398.8,323.8 Z" fill="#222C26"></path>
                        <path d="M363.3,290.1 C345.9,293.8 335.2,281.9 323.7,272.4 C321.5,270.6 315.6,266.4 322.5,262.3 C348.2,260.2 373.2,264.6 397.9,271 C404.2,272.7 411.4,272.6 416.8,277.3 C429,283.3 441.6,288.5 452.2,297.3 C458.8,302.7 463.6,308.9 464.5,318.1 C431.7,303.7 399.8,288.7 363.3,290.1 Z" fill="#2A2F28"></path>
                        <path d="M416.8,277.3 C404.3,278.4 393.6,270.9 381.4,269.9 C361.7,268.2 342.1,264.9 322.5,262.3 C322.9,260.4 323.3,258.5 323.7,256.6 C355.6,258.7 386.8,264.9 417.8,272.8 C417.5,274.3 417.2,275.8 416.8,277.3 Z" fill="#BDB2A6"></path>
                        <path d="M169.1,368.6 C165,373.4 174.9,381 165.8,384.8 C162.2,380.4 157,376.5 160.5,369.6 C162.8,365 166,367 169.1,368.6 Z" fill="#6FC979"></path>
                        <path d="M486.2,397.9 C484.6,393 480.3,390.7 476.6,387.9 C476.7,384 476.6,380 478.7,376.4 C488.9,380.1 499.8,383 499.4,397.2 C495.6,396.2 492.5,391.3 487.8,394.9 C487.2,395.8 486.6,396.8 486,397.7 C486,397.8 486.2,397.9 486.2,397.9 Z" fill="#36322B"></path>
                        <path d="M478.8,376.4 C482.6,381.1 482.1,384.9 476.7,387.9 C467.2,385.3 460.2,379.1 453.5,372.3 C452,370.8 448.2,369.7 450,367.4 C451.3,365.7 455.1,365.9 457.8,365.3 C464.7,369 471.7,372.7 478.8,376.4 Z" fill="#2F312A"></path>
                        <path d="M487.9,395 C487.4,391.8 488.7,388.3 491.5,388.4 C496.4,388.5 496.7,394.3 499.5,397.3 C495.2,398.4 491.6,396.3 487.9,395 Z" fill="#2F312A"></path>
                        <path d="M135.7,200.8 C129.5,202.6 126.2,198.7 125.2,193.9 C124,187.7 128.9,184.6 134,182.4 C143.5,187.7 135.4,194.7 135.7,200.8 Z" fill="#553E36"></path>
                        <path d="M135.7,200.8 C132.6,194.9 137.9,188.2 134,182.4 C137.4,180.1 140.8,177.8 144.2,175.4 C144.2,175.4 143.9,175.3 143.9,175.3 C140.6,183.6 144.5,194.3 135.7,200.8 Z" fill="#33B546"></path>
                    </g>
                </g>
            </g>
        </g>
    </g>
</svg>