<?xml version="1.0" encoding="UTF-8"?>
<svg width="123px" height="141px" viewBox="0 0 123 141" version="1.1" xmlns="http://www.w3.org/2000/svg" xmlns:xlink="http://www.w3.org/1999/xlink">
    <g id="Page-1" stroke="none" stroke-width="1" fill="none" fill-rule="evenodd">
        <g id="bug" fill="#FFCE05" fill-rule="nonzero">
            <path d="M28.9,108.3 C32.8,103.5 44.6,88.9 47.8,84.8 C49.4,82.8 51.8,79.9 53.9,77.5 C57.3,73.5 58.2,72.4 58.6,71.6 C59.9,69.9 59.6,68.4 57.4,66.2 C55.4,64.1 54,64 52.3,64.2 C51.6,64.2 50.9,64.3 50,64.1 L49.4,63.9 L48.9,64.3 C48.6,64.5 41.7,69.8 37.2,75.3 C34.5,78.5 27.8,87.3 22.4,94.3 C18.6,99.3 15.3,103.5 14.5,104.5 C12.7,106.7 6.9,116.6 7.2,119.4 C7.2,119.8 7.2,120.4 7.2,121 C7.1,123.4 6.9,126.2 8.7,127.3 C8.8,127.4 8.9,127.4 9,127.5 C9.9,127.9 11,127.7 12.3,127 C15.7,125.1 20.7,118.8 26,112 C27,110.8 27.8,109.7 28.4,108.9 L28.9,108.3 Z M26.8,106.6 L26.3,107.3 C25.7,108.1 24.8,109.2 23.8,110.4 C20.2,115.1 14.1,122.9 10.9,124.7 C10.4,125 10.1,125 10.1,125.1 C9.7,124.6 9.8,122.3 9.9,121.2 C9.9,120.4 10,119.7 9.9,119.2 C9.8,117.7 14.3,109.1 16.6,106.2 C17.5,105.1 20.7,100.9 24.6,95.9 C30,88.9 36.7,80.2 39.3,77 C43,72.5 48.4,68.1 50.1,66.9 C51.1,67.1 51.9,67 52.6,67 C53.7,66.9 54.2,66.9 55.6,68.2 C56.7,69.3 56.8,69.8 56.6,70 C56.4,70.2 56.2,70.5 56.1,70.8 C55.8,71.3 53.8,73.7 52,75.8 C49.9,78.3 47.4,81.1 45.8,83.3 C42.5,87.2 30.7,101.8 26.8,106.6 Z" id="Shape"></path>
            <path d="M65.9,74 C65.1,72.5 63.8,71.5 62.1,71.1 L61.3,70.9 L60.8,71.6 C60.4,72.1 51.3,83.2 47.4,88.9 C43.5,94.6 28.7,114.2 26.9,116.3 C25,118.5 19.8,126.5 18.9,128.4 C18.4,129.5 18.5,130.6 19.3,131.4 C19.5,131.6 19.8,131.8 20.1,131.9 C21.4,132.5 23.4,132.2 25.6,131 C29,129.2 35.2,124.4 38.3,119.5 C40,116.8 46.4,110.3 51,105.5 C54.1,102.3 56.6,99.7 57.4,98.7 C59.5,95.9 65.6,85 66.4,82.5 C66.9,80.8 67.5,76.9 65.9,74 Z M55.1,97 C54.4,97.9 51.7,100.7 48.9,103.6 C43.9,108.7 37.7,115.1 35.8,118 C33,122.4 27.2,126.9 24.1,128.5 C22.7,129.3 21.8,129.4 21.3,129.4 C22.3,127.5 27,120.1 28.8,118.1 C30.7,115.9 45.5,96.3 49.5,90.4 C52.8,85.6 60,76.7 62.1,74 C62.6,74.3 63.1,74.7 63.4,75.3 C64.4,77.2 64.1,80.1 63.6,81.6 C63,83.8 57,94.5 55.1,97 Z" id="Shape"></path>
            <path d="M75.6,58.8 C75.3,57 74.5,54.7 73,53.8 C72.8,53.7 72.7,53.6 72.6,53.4 C71.6,51.9 70.2,51.7 66.2,52.3 C64.1,51.4 61.9,51.7 60.5,51.9 C59.9,52 58.5,52.2 54.4,58.3 C54,58.9 53.9,59.7 54.1,60.4 C54.9,63.2 60.8,66.2 63.2,67.2 C65.9,71.8 67.5,73.2 68.4,73.6 C68.8,73.8 69.1,73.8 69.2,73.8 C69.4,73.8 69.5,73.8 69.7,73.8 C71.5,73.9 73.3,73.7 75.4,69.7 C77.5,65.8 77.9,64.6 75.7,59.5 C75.7,59.3 75.6,59 75.6,58.8 Z M70.3,54.9 C70.5,55.2 70.9,55.7 71.6,56.2 C71.9,56.4 72.6,57.4 72.9,58.9 C73.2,60.3 73,61.1 72.9,61.3 C72,62.2 70.1,62.8 67.9,62.8 C66.1,62.8 65.5,60.7 65.3,59.8 C65.1,59.1 66,56.8 67,54.9 C69.5,54.5 70.1,54.7 70.3,54.9 Z M72.9,68.6 C71.5,71.1 70.8,71.1 69.9,71 C69.7,71 69.4,71 69.4,71 C68.7,70.7 66.8,68.1 65.2,65.4 C65.2,65.4 65.1,65.3 65.1,65.3 C65,65.2 65,65.2 64.9,65.1 C64.8,65 64.8,65 64.7,64.9 C64.7,64.9 64.6,64.8 64.6,64.8 C60.6,63 56.8,60.5 56.6,59.7 C59,56.2 60.5,54.7 60.9,54.5 C61.8,54.4 62.9,54.2 64,54.4 C63.2,56.1 62.1,58.8 62.5,60.4 C63,62.7 64.2,64.4 65.8,65.1 C66.4,65.4 67,65.5 67.7,65.5 C70.4,65.5 72.8,64.8 74.2,63.6 C74.8,65.2 74.3,66.1 72.9,68.6 Z" id="Shape"></path>
            <path d="M122.8,35.8 C122.8,35.1 122.3,34.5 121.6,34.4 L121.4,34.1 L120.8,34 C120.1,33.9 119.7,34.2 119.1,34.7 C118.5,35.2 117.1,36.3 114.3,38.4 C107.7,43.4 86.9,51.3 81.4,53.4 C80.6,50.4 79.2,47.8 76.8,46.6 C75.4,45.9 73.8,45.5 71.9,45.2 C74.1,41.3 78.9,32.6 80.1,27.8 C81.5,22.2 92.8,5.5 94.7,3 C95.2,2.4 95.1,1.5 94.5,1.1 C93.9,0.6 93,0.7 92.6,1.3 C91.1,3.2 79.1,20.7 77.5,27.1 C76.2,32.1 70.5,42.2 68.9,45 C63.2,44.9 56.7,46.8 53,51.7 C52,53.1 51.2,54.1 50.6,55 C49.4,54.1 47.4,52.7 46.7,52.2 C45.6,51.5 43.5,51.4 42.3,52.5 C41.8,53 40.7,54.3 41.9,56.6 C42,56.8 42.1,56.9 42.1,57.1 C40.8,56.3 39.5,56 35.5,56.6 L34,57 C30,57.7 28,58 26.9,56.4 C25.3,54.1 22.2,53.7 20.6,54.8 C19.6,55.5 18.8,57 20.1,59 C20.8,60.1 23.7,64.2 25.9,65.1 C26.3,65.3 26.6,65.3 26.9,65.3 C27.1,65.3 27.6,65.3 28.3,65.3 C31.3,65.3 34.4,65.3 35.9,64.8 C36.4,64.6 36.9,64.4 37.3,64.2 C38.6,63.6 38.6,63.7 38.8,63.9 C39.2,64.3 39.7,64.5 40.2,64.7 C36.9,67.4 33,71.2 29.2,76.5 C26.6,80.1 23.8,83.5 21,86.8 C19.3,86.9 16.6,86.7 16.2,85.5 C15.4,83 12.5,81 10.9,80.8 C9.7,80.6 9.2,81.2 9,81.5 C8.7,81.9 8.4,82.6 9.1,83.8 C8.9,84.1 7.6,84.5 6.9,84.7 C6.3,84.9 5.8,85 5.5,85.2 C4.7,85.5 4.3,86.2 4.4,87 C4.6,89.2 9.4,91 10.2,91.2 C10.7,91.3 11.5,91.7 12.4,92.3 C13.2,92.8 14.1,93.3 15.2,93.8 C10.5,99.4 6.8,104.3 5.4,108.9 C4.6,111.5 3.7,113.8 3,115.9 C1.2,120.5 -0.1,124.2 1,127.5 C1.9,130.1 3.4,131.4 4.5,132.4 C5.4,133.1 5.7,133.5 5.7,133.9 C5.7,134.5 5.6,134.9 5.4,135.3 C5,136.6 4.8,137.8 6.5,139.6 C6.6,139.7 6.8,139.9 7.2,140.1 C7.9,140.4 9,140.5 10.6,139.6 C11.1,139.3 11.4,139.1 11.7,138.8 C12.1,138.5 12.3,138.3 15.6,139 C21.5,140.2 33.9,133.4 38.6,128.4 C40.5,126.4 43.1,123.5 45.8,120.4 C47.2,121.9 50,123.6 54,125.7 L54.9,126.2 C55,126.3 55.1,126.3 55.2,126.4 C56.3,126.9 57.1,126.7 57.6,126.4 C59,125.7 59.3,123.9 59.5,122.2 C59.8,119.1 53.7,116.5 52.5,116.1 C51.6,115.8 50.9,115.3 50.5,114.9 C53,112 55.3,109.1 57.2,106.8 C60.2,103 64.6,96.9 67.6,92 C68.2,95 71.5,99.6 72.7,100.4 C72.9,100.5 73,100.6 73.2,100.7 C75.1,101.6 78.6,101.6 79.8,100 C80.7,98.9 81.9,97.4 81.4,95.9 C81.2,95.5 80.8,94.8 79.7,94.6 C79,94.4 77.5,93.7 76.5,93.1 C76.8,92.4 76.8,91.4 76.8,90.2 L76.8,89.5 C76.9,85.5 75.9,82.9 73.9,82 C73.2,81.7 72.6,81.5 72.1,81.4 C72.2,80.9 72.2,80.3 72.2,79.5 C72.8,79.3 73.5,78.9 74.2,78.4 C75.8,78.5 80.8,78.7 85.8,76.6 C90.4,74.7 90.5,74.7 91.2,74.7 L91.9,74.7 C92.8,74.7 93.6,74.6 94.3,74.4 C95.1,74.2 95.6,74.1 96,74.3 C97.1,74.8 98.5,74.6 99.5,73.7 C100.7,72.7 101.1,71.2 100.7,69.5 C99.9,66.1 94.7,65.5 92.3,65.3 C90.4,65.1 87.9,66.3 85.6,67.5 C84.6,68 83.6,68.5 82.8,68.8 C82.1,69 81.5,69.3 81,69.5 C80.8,69.6 80.6,69.7 80.4,69.7 C80.9,68.6 81.3,67.4 81.6,66 C82,64 82.3,60.2 81.8,56.4 C86.6,54.6 108.6,46.3 115.8,40.9 C118.4,38.9 119.8,37.8 120.5,37.3 C120.7,37.4 121,37.4 121.3,37.4 C122.3,37.1 122.8,36.5 122.8,35.8 Z M45.3,54.5 C46,55 47.9,56.3 49.1,57.2 C48.6,58 48.5,58.3 48.3,58.8 C48.2,59 48.2,59.1 48.1,59.3 C47.8,59.5 47.3,59.7 46.7,60 C46.3,59.4 46,58.8 45.7,58 C45.4,57.3 45.1,56.5 44.5,55.3 C44.2,54.7 44.3,54.5 44.3,54.5 C44.4,54.4 45.1,54.3 45.3,54.5 Z M40.6,61.8 C39,60.3 37.3,61.1 36.1,61.6 C35.7,61.8 35.3,61.9 34.9,62.1 C33.7,62.5 30,62.5 28.2,62.5 C27.6,62.5 27.1,62.5 26.8,62.5 C26.1,62.1 24,60.1 22.3,57.5 C22.1,57.2 22.1,57 22,57 C22.1,56.9 22.3,56.9 22.7,56.9 C23.4,57 24.1,57.4 24.6,58 C26.8,61.1 30.3,60.4 34.4,59.7 L36,59.4 C39.6,58.8 40.2,59.1 41.2,59.7 C41.4,59.8 41.7,60 41.9,60.1 C42.6,60.5 43.4,61.1 44,61.6 C43.7,61.8 43.4,62 43.1,62.2 C42.3,62.3 41,62.2 40.6,61.8 Z M13.7,89.8 C12.6,89.2 11.6,88.6 10.7,88.4 C10,88.3 8.8,87.7 7.9,87.1 C9.3,86.7 10.9,86.1 11.5,84.8 C11.6,84.6 11.7,84.4 11.7,84.1 C12.4,84.6 13.3,85.4 13.6,86.3 C14.3,88.6 16.7,89.3 18.7,89.5 C18.6,89.6 18.5,89.7 18.4,89.8 C17.9,90.3 17.5,90.9 17,91.4 C15.7,90.9 14.7,90.3 13.7,89.8 Z M51.8,118.4 C54,119.1 56.8,121 56.9,121.7 C56.8,123.2 56.5,123.6 56.6,123.7 C56.6,123.7 56.5,123.7 56.3,123.6 L55.4,123.1 C49.9,120.1 48,118.7 47.6,118.2 C48,117.7 48.4,117.2 48.9,116.7 C49.5,117.3 50.5,118 51.8,118.4 Z M73,84.1 C73,84.1 73,84.1 73,84.1 C73.7,84.4 74.3,86 74.2,89 L74.2,89.7 C74.2,90.4 74.2,91 74.1,91.4 L73.2,91.6 L73.2,92.7 C73.2,94.4 77.1,96.1 78.6,96.6 C78.3,97 77.9,97.6 77.7,97.8 C77.2,98.2 75,98.2 74.1,97.6 C73,96.9 70,91.9 70.1,90.8 C70.5,90 70.5,90 70.7,89.7 C70.9,89.5 71.1,89.3 71.4,88.8 C72.5,87.3 71.8,85.6 71,84.4 C71.1,84 71.2,83.7 71.3,83.4 C71.8,83.8 72.4,83.9 73,84.1 Z M82.2,71.7 C82.7,71.5 83.2,71.3 83.9,71.1 C84.8,70.8 85.9,70.3 87,69.7 C88.8,68.8 91,67.7 92.2,67.8 C96.9,68.3 98.1,69.2 98.3,69.9 C98.5,70.5 98.3,71.1 98,71.4 C97.8,71.6 97.5,71.6 97.4,71.6 C96.2,71.1 95,71.3 94,71.5 C93.4,71.6 92.9,71.7 92.3,71.7 L91.7,71.7 C90.3,71.6 89.9,71.7 85,73.8 C82.1,75 79.1,75.4 77,75.4 C77.2,75 77.5,74.7 77.8,74.3 C78.2,73.8 78.6,73.2 79,72.7 C80.1,72.6 81.1,72.2 82.2,71.7 Z M75.5,72.6 C75.1,73.2 74.7,73.7 74.3,74.3 C74,74.8 73.6,75.2 73.1,75.5 C73.1,75.5 73.1,75.5 73.1,75.5 C71.9,76.4 70.5,76.9 70.5,76.9 L69.5,77.2 L69.5,78.2 C69.6,80.4 69.4,80.8 68.9,82.1 C68.7,82.7 68.4,83.4 68.1,84.5 C67.1,87.8 60,98.4 54.9,104.7 C49.8,111 41,121.4 36.4,126.2 C31.9,130.9 20.3,136.9 15.9,136 C12,135.2 11.1,135.2 9.8,136.3 C9.6,136.4 9.4,136.6 9.1,136.8 C8.6,137.1 8.3,137.2 8.2,137.2 C7.6,136.6 7.7,136.5 7.9,135.8 C8.1,135.3 8.3,134.5 8.3,133.5 C8.3,131.8 7.1,130.9 6.1,130 C5.1,129.1 4,128.2 3.4,126.3 C2.6,123.9 3.8,120.8 5.4,116.5 C6.2,114.4 7.1,112 7.9,109.3 C9.4,104.3 14.5,98.3 20.4,91.4 C21.1,90.5 21.9,89.6 22.7,88.7 C22.7,88.7 22.7,88.7 22.7,88.7 C25.6,85.2 28.6,81.7 31.3,77.8 C40.1,65.5 49.5,61.4 49.6,61.4 L50.1,61.2 L50.3,60.8 C50.6,60.3 50.7,59.9 50.8,59.7 C51.1,58.9 51.3,58.5 55.3,53.2 C60.1,46.9 70.8,46.8 75.4,48.8 C75.5,48.8 75.6,48.9 75.7,48.9 C79.7,50.9 80.1,60.5 79.1,65 C78.5,68.4 76.9,70.6 75.5,72.6 Z" id="Shape"></path>
        </g>
    </g>
</svg>