<?xml version="1.0" encoding="UTF-8"?>
<svg width="1191px" height="142px" viewBox="0 0 1191 142" version="1.1" xmlns="http://www.w3.org/2000/svg" xmlns:xlink="http://www.w3.org/1999/xlink">
    <g id="Page-1" stroke="none" stroke-width="1" fill="none" fill-rule="evenodd">
        <g id="SLT-Website-Graphics" transform="translate(-3282.066406, -2182.589844)" fill="#FFCE05" fill-rule="nonzero">
            <g id="Group" transform="translate(3283.562500, 2183.000000)">
                <path d="M1.696875,3.60625 C77.096875,4.10625 146.896875,35.80625 218.696875,54.70625 C294.596875,74.70625 372.896875,74.90625 450.796875,74.60625 C532.296875,74.20625 613.696875,76.10625 695.096875,78.20625 C734.996875,79.30625 775.196875,80.40625 814.596875,87.40625 C853.496875,94.30625 890.296875,108.50625 928.096875,119.40625 C1002.69687,141.10625 1080.89687,143.40625 1157.99688,138.60625 C1167.69688,138.00625 1177.49688,137.30625 1187.19688,136.50625 C1189.09688,136.30625 1189.09688,133.30625 1187.19688,133.50625 C1109.19688,139.90625 1029.49688,141.10625 952.896875,122.90625 C914.596875,113.80625 877.996875,99.00625 839.796875,89.60625 C802.096875,80.40625 763.296875,77.50625 724.696875,76.10625 C643.396875,73.10625 561.996875,71.40625 480.696875,71.50625 C401.196875,71.50625 320.596875,74.50625 242.396875,57.40625 C170.696875,41.70625 102.896875,9.50625 29.296875,2.10625 C20.096875,1.20625 10.896875,0.70625 1.696875,0.60625 C-0.303125,0.60625 -0.303125,3.60625 1.696875,3.60625 Z" id="Shape"></path>
            </g>
        </g>
    </g>
</svg>